%TF.GenerationSoftware,KiCad,Pcbnew,9.0.2*%
%TF.CreationDate,2026-09-07T21:48:09+07:00*%
%TF.ProjectId,PWMaster,50574d61-7374-4657-922e-6b696361645f,rev?*%
%TF.SameCoordinates,Original*%
%TF.FileFunction,Paste,Top*%
%TF.FilePolarity,Positive*%
%FSLAX46Y46*%
G04 Gerber Fmt 4.6, Leading zero omitted, Abs format (unit mm)*
G04 Created by KiCad (PCBNEW 9.0.2) date 2026-09-07 21:48:09*
%MOMM*%
%LPD*%
G01*
G04 APERTURE LIST*
G04 Aperture macros list*
%AMRoundRect*
0 Rectangle with rounded corners*
0 $1 Rounding radius*
0 $2 $3 $4 $5 $6 $7 $8 $9 X,Y pos of 4 corners*
0 Add a 4 corners polygon primitive as box body*
4,1,4,$2,$3,$4,$5,$6,$7,$8,$9,$2,$3,0*
0 Add four circle primitives for the rounded corners*
1,1,$1+$1,$2,$3*
1,1,$1+$1,$4,$5*
1,1,$1+$1,$6,$7*
1,1,$1+$1,$8,$9*
0 Add four rect primitives between the rounded corners*
20,1,$1+$1,$2,$3,$4,$5,0*
20,1,$1+$1,$4,$5,$6,$7,0*
20,1,$1+$1,$6,$7,$8,$9,0*
20,1,$1+$1,$8,$9,$2,$3,0*%
G04 Aperture macros list end*
%ADD10RoundRect,0.250000X-0.450000X0.262500X-0.450000X-0.262500X0.450000X-0.262500X0.450000X0.262500X0*%
%ADD11RoundRect,0.250000X-0.250000X-0.475000X0.250000X-0.475000X0.250000X0.475000X-0.250000X0.475000X0*%
%ADD12R,1.500000X0.900000*%
%ADD13R,0.900000X1.500000*%
%ADD14R,1.000000X1.000000*%
%ADD15RoundRect,0.250000X0.450000X-0.262500X0.450000X0.262500X-0.450000X0.262500X-0.450000X-0.262500X0*%
%ADD16RoundRect,0.250000X-0.650000X1.000000X-0.650000X-1.000000X0.650000X-1.000000X0.650000X1.000000X0*%
%ADD17RoundRect,0.250000X0.475000X-0.250000X0.475000X0.250000X-0.475000X0.250000X-0.475000X-0.250000X0*%
%ADD18RoundRect,0.250000X0.250000X0.475000X-0.250000X0.475000X-0.250000X-0.475000X0.250000X-0.475000X0*%
%ADD19RoundRect,0.250000X-0.262500X-0.450000X0.262500X-0.450000X0.262500X0.450000X-0.262500X0.450000X0*%
%ADD20RoundRect,0.150000X-0.150000X0.512500X-0.150000X-0.512500X0.150000X-0.512500X0.150000X0.512500X0*%
%ADD21RoundRect,0.250000X-1.000000X-0.650000X1.000000X-0.650000X1.000000X0.650000X-1.000000X0.650000X0*%
%ADD22RoundRect,0.375000X-0.625000X-0.375000X0.625000X-0.375000X0.625000X0.375000X-0.625000X0.375000X0*%
%ADD23RoundRect,0.500000X-0.500000X-1.400000X0.500000X-1.400000X0.500000X1.400000X-0.500000X1.400000X0*%
G04 APERTURE END LIST*
D10*
%TO.C,R7*%
X152350000Y-104007500D03*
X152350000Y-105832500D03*
%TD*%
D11*
%TO.C,C5*%
X155690000Y-116840000D03*
X157590000Y-116840000D03*
%TD*%
D12*
%TO.C,U1*%
X152125000Y-75110000D03*
X152125000Y-76380000D03*
X152125000Y-77650000D03*
X152125000Y-78920000D03*
X152125000Y-80190000D03*
X152125000Y-81460000D03*
X152125000Y-82730000D03*
X152125000Y-84000000D03*
X152125000Y-85270000D03*
X152125000Y-86540000D03*
X152125000Y-87810000D03*
X152125000Y-89080000D03*
X152125000Y-90350000D03*
X152125000Y-91620000D03*
D13*
X153890000Y-92870000D03*
X155160000Y-92870000D03*
X156430000Y-92870000D03*
X157700000Y-92870000D03*
X158970000Y-92870000D03*
X160240000Y-92870000D03*
X161510000Y-92870000D03*
X162780000Y-92870000D03*
X164050000Y-92870000D03*
X165320000Y-92870000D03*
X166590000Y-92870000D03*
X167860000Y-92870000D03*
D12*
X169625000Y-91620000D03*
X169625000Y-90350000D03*
X169625000Y-89080000D03*
X169625000Y-87810000D03*
X169625000Y-86540000D03*
X169625000Y-85270000D03*
X169625000Y-84000000D03*
X169625000Y-82730000D03*
X169625000Y-81460000D03*
X169625000Y-80190000D03*
X169625000Y-78920000D03*
X169625000Y-77650000D03*
X169625000Y-76380000D03*
X169625000Y-75110000D03*
D14*
X158015000Y-78960000D03*
X158015000Y-80460000D03*
X158015000Y-81960000D03*
X159515000Y-78960000D03*
X159515000Y-80460000D03*
X159515000Y-81960000D03*
X161015000Y-78960000D03*
X161015000Y-80460000D03*
X161015000Y-81960000D03*
%TD*%
D15*
%TO.C,R9*%
X169500000Y-125642500D03*
X169500000Y-123817500D03*
%TD*%
%TO.C,R6*%
X149580000Y-105812500D03*
X149580000Y-103987500D03*
%TD*%
%TO.C,R1*%
X172920000Y-125642500D03*
X172920000Y-123817500D03*
%TD*%
D16*
%TO.C,D1*%
X148910000Y-138282500D03*
X148910000Y-142282500D03*
%TD*%
D17*
%TO.C,C7*%
X168960000Y-108790000D03*
X168960000Y-106890000D03*
%TD*%
D18*
%TO.C,C1*%
X141710000Y-125500000D03*
X139810000Y-125500000D03*
%TD*%
D19*
%TO.C,R2*%
X147445000Y-90740000D03*
X149270000Y-90740000D03*
%TD*%
D15*
%TO.C,R5*%
X172900000Y-116582500D03*
X172900000Y-114757500D03*
%TD*%
D17*
%TO.C,C8*%
X169230000Y-116700000D03*
X169230000Y-114800000D03*
%TD*%
D15*
%TO.C,R4*%
X172660000Y-108732500D03*
X172660000Y-106907500D03*
%TD*%
D11*
%TO.C,C6*%
X159550000Y-120730000D03*
X161450000Y-120730000D03*
%TD*%
D20*
%TO.C,U3*%
X161200000Y-123862500D03*
X160250000Y-123862500D03*
X159300000Y-123862500D03*
X159300000Y-126137500D03*
X160250000Y-126137500D03*
X161200000Y-126137500D03*
%TD*%
D21*
%TO.C,D5*%
X148850000Y-130980000D03*
X152850000Y-130980000D03*
%TD*%
D10*
%TO.C,R8*%
X154960000Y-104017500D03*
X154960000Y-105842500D03*
%TD*%
D19*
%TO.C,R3*%
X147437500Y-94530000D03*
X149262500Y-94530000D03*
%TD*%
D22*
%TO.C,U2*%
X146910000Y-120320000D03*
X146910000Y-122620000D03*
D23*
X153210000Y-122620000D03*
D22*
X146910000Y-124920000D03*
%TD*%
D18*
%TO.C,C9*%
X149390000Y-76400000D03*
X147490000Y-76400000D03*
%TD*%
M02*
