%TF.GenerationSoftware,KiCad,Pcbnew,9.0.2*%
%TF.CreationDate,2026-09-07T21:48:09+07:00*%
%TF.ProjectId,PWMaster,50574d61-7374-4657-922e-6b696361645f,rev?*%
%TF.SameCoordinates,Original*%
%TF.FileFunction,Copper,L1,Top*%
%TF.FilePolarity,Positive*%
%FSLAX46Y46*%
G04 Gerber Fmt 4.6, Leading zero omitted, Abs format (unit mm)*
G04 Created by KiCad (PCBNEW 9.0.2) date 2026-09-07 21:48:09*
%MOMM*%
%LPD*%
G01*
G04 APERTURE LIST*
G04 Aperture macros list*
%AMRoundRect*
0 Rectangle with rounded corners*
0 $1 Rounding radius*
0 $2 $3 $4 $5 $6 $7 $8 $9 X,Y pos of 4 corners*
0 Add a 4 corners polygon primitive as box body*
4,1,4,$2,$3,$4,$5,$6,$7,$8,$9,$2,$3,0*
0 Add four circle primitives for the rounded corners*
1,1,$1+$1,$2,$3*
1,1,$1+$1,$4,$5*
1,1,$1+$1,$6,$7*
1,1,$1+$1,$8,$9*
0 Add four rect primitives between the rounded corners*
20,1,$1+$1,$2,$3,$4,$5,0*
20,1,$1+$1,$4,$5,$6,$7,0*
20,1,$1+$1,$6,$7,$8,$9,0*
20,1,$1+$1,$8,$9,$2,$3,0*%
G04 Aperture macros list end*
%TA.AperFunction,ComponentPad*%
%ADD10R,1.700000X1.700000*%
%TD*%
%TA.AperFunction,ComponentPad*%
%ADD11C,1.700000*%
%TD*%
%TA.AperFunction,ComponentPad*%
%ADD12C,3.500000*%
%TD*%
%TA.AperFunction,SMDPad,CuDef*%
%ADD13RoundRect,0.250000X-0.450000X0.262500X-0.450000X-0.262500X0.450000X-0.262500X0.450000X0.262500X0*%
%TD*%
%TA.AperFunction,SMDPad,CuDef*%
%ADD14RoundRect,0.250000X-0.250000X-0.475000X0.250000X-0.475000X0.250000X0.475000X-0.250000X0.475000X0*%
%TD*%
%TA.AperFunction,SMDPad,CuDef*%
%ADD15R,1.500000X0.900000*%
%TD*%
%TA.AperFunction,SMDPad,CuDef*%
%ADD16R,0.900000X1.500000*%
%TD*%
%TA.AperFunction,HeatsinkPad*%
%ADD17R,1.000000X1.000000*%
%TD*%
%TA.AperFunction,HeatsinkPad*%
%ADD18C,0.600000*%
%TD*%
%TA.AperFunction,ComponentPad*%
%ADD19C,2.000000*%
%TD*%
%TA.AperFunction,ComponentPad*%
%ADD20RoundRect,0.250000X0.550000X0.550000X-0.550000X0.550000X-0.550000X-0.550000X0.550000X-0.550000X0*%
%TD*%
%TA.AperFunction,ComponentPad*%
%ADD21C,1.600000*%
%TD*%
%TA.AperFunction,SMDPad,CuDef*%
%ADD22RoundRect,0.250000X0.450000X-0.262500X0.450000X0.262500X-0.450000X0.262500X-0.450000X-0.262500X0*%
%TD*%
%TA.AperFunction,ComponentPad*%
%ADD23R,1.800000X1.800000*%
%TD*%
%TA.AperFunction,ComponentPad*%
%ADD24C,1.800000*%
%TD*%
%TA.AperFunction,SMDPad,CuDef*%
%ADD25RoundRect,0.250000X-0.650000X1.000000X-0.650000X-1.000000X0.650000X-1.000000X0.650000X1.000000X0*%
%TD*%
%TA.AperFunction,SMDPad,CuDef*%
%ADD26RoundRect,0.250000X0.475000X-0.250000X0.475000X0.250000X-0.475000X0.250000X-0.475000X-0.250000X0*%
%TD*%
%TA.AperFunction,SMDPad,CuDef*%
%ADD27RoundRect,0.250000X0.250000X0.475000X-0.250000X0.475000X-0.250000X-0.475000X0.250000X-0.475000X0*%
%TD*%
%TA.AperFunction,SMDPad,CuDef*%
%ADD28RoundRect,0.250000X-0.262500X-0.450000X0.262500X-0.450000X0.262500X0.450000X-0.262500X0.450000X0*%
%TD*%
%TA.AperFunction,SMDPad,CuDef*%
%ADD29RoundRect,0.150000X-0.150000X0.512500X-0.150000X-0.512500X0.150000X-0.512500X0.150000X0.512500X0*%
%TD*%
%TA.AperFunction,SMDPad,CuDef*%
%ADD30RoundRect,0.250000X-1.000000X-0.650000X1.000000X-0.650000X1.000000X0.650000X-1.000000X0.650000X0*%
%TD*%
%TA.AperFunction,SMDPad,CuDef*%
%ADD31RoundRect,0.375000X-0.625000X-0.375000X0.625000X-0.375000X0.625000X0.375000X-0.625000X0.375000X0*%
%TD*%
%TA.AperFunction,SMDPad,CuDef*%
%ADD32RoundRect,0.500000X-0.500000X-1.400000X0.500000X-1.400000X0.500000X1.400000X-0.500000X1.400000X0*%
%TD*%
%TA.AperFunction,ViaPad*%
%ADD33C,0.500000*%
%TD*%
%TA.AperFunction,ViaPad*%
%ADD34C,0.700000*%
%TD*%
%TA.AperFunction,Conductor*%
%ADD35C,0.500000*%
%TD*%
%TA.AperFunction,Conductor*%
%ADD36C,0.300000*%
%TD*%
%TA.AperFunction,Conductor*%
%ADD37C,0.200000*%
%TD*%
G04 APERTURE END LIST*
D10*
%TO.P,J1,1,VBUS*%
%TO.N,Net-(D5-A)*%
X166240000Y-131332500D03*
D11*
%TO.P,J1,2,D-*%
%TO.N,D-*%
X163740000Y-131332500D03*
%TO.P,J1,3,D+*%
%TO.N,D+*%
X163740000Y-133332500D03*
%TO.P,J1,4,GND*%
%TO.N,GND*%
X166240000Y-133332500D03*
D12*
%TO.P,J1,5,Shield*%
X171010000Y-136042500D03*
X158970000Y-136042500D03*
%TD*%
D13*
%TO.P,R7,1*%
%TO.N,Net-(D3-A)*%
X152350000Y-104007500D03*
%TO.P,R7,2*%
%TO.N,+3V3*%
X152350000Y-105832500D03*
%TD*%
D14*
%TO.P,C5,1*%
%TO.N,+3V3*%
X155690000Y-116840000D03*
%TO.P,C5,2*%
%TO.N,GND*%
X157590000Y-116840000D03*
%TD*%
D15*
%TO.P,U1,1,GND*%
%TO.N,GND*%
X152125000Y-75110000D03*
%TO.P,U1,2,3V3*%
%TO.N,+3V3*%
X152125000Y-76380000D03*
%TO.P,U1,3,EN*%
%TO.N,Net-(U1-EN)*%
X152125000Y-77650000D03*
%TO.P,U1,4,IO4*%
%TO.N,IO4*%
X152125000Y-78920000D03*
%TO.P,U1,5,IO5*%
%TO.N,IO5*%
X152125000Y-80190000D03*
%TO.P,U1,6,IO6*%
%TO.N,IO6*%
X152125000Y-81460000D03*
%TO.P,U1,7,IO7*%
%TO.N,IO7*%
X152125000Y-82730000D03*
%TO.P,U1,8,IO15*%
%TO.N,IO15*%
X152125000Y-84000000D03*
%TO.P,U1,9,IO16*%
%TO.N,IO16*%
X152125000Y-85270000D03*
%TO.P,U1,10,IO17*%
%TO.N,IO17*%
X152125000Y-86540000D03*
%TO.P,U1,11,IO18*%
%TO.N,IO18*%
X152125000Y-87810000D03*
%TO.P,U1,12,IO8*%
%TO.N,SDA*%
X152125000Y-89080000D03*
%TO.P,U1,13,USB_D-/IO19*%
%TO.N,D-*%
X152125000Y-90350000D03*
%TO.P,U1,14,USB_D+/IO20*%
%TO.N,D+*%
X152125000Y-91620000D03*
D16*
%TO.P,U1,15,IO3*%
%TO.N,unconnected-(U1-IO3-Pad15)*%
X153890000Y-92870000D03*
%TO.P,U1,16,IO46*%
%TO.N,unconnected-(U1-IO46-Pad16)*%
X155160000Y-92870000D03*
%TO.P,U1,17,IO9*%
%TO.N,SCL*%
X156430000Y-92870000D03*
%TO.P,U1,18,IO10*%
%TO.N,IO10*%
X157700000Y-92870000D03*
%TO.P,U1,19,IO11*%
%TO.N,IO11*%
X158970000Y-92870000D03*
%TO.P,U1,20,IO12*%
%TO.N,IO12*%
X160240000Y-92870000D03*
%TO.P,U1,21,IO13*%
%TO.N,IO13*%
X161510000Y-92870000D03*
%TO.P,U1,22,IO14*%
%TO.N,IO14*%
X162780000Y-92870000D03*
%TO.P,U1,23,IO21*%
%TO.N,Net-(U1-IO21)*%
X164050000Y-92870000D03*
%TO.P,U1,24,IO47*%
%TO.N,Net-(D3-K)*%
X165320000Y-92870000D03*
%TO.P,U1,25,IO48*%
%TO.N,Net-(D4-K)*%
X166590000Y-92870000D03*
%TO.P,U1,26,IO45*%
%TO.N,unconnected-(U1-IO45-Pad26)*%
X167860000Y-92870000D03*
D15*
%TO.P,U1,27,IO0*%
%TO.N,Net-(U1-IO0)*%
X169625000Y-91620000D03*
%TO.P,U1,28,NC*%
%TO.N,unconnected-(U1-NC-Pad28)*%
X169625000Y-90350000D03*
%TO.P,U1,29,NC*%
%TO.N,unconnected-(U1-NC-Pad29)*%
X169625000Y-89080000D03*
%TO.P,U1,30,NC*%
%TO.N,unconnected-(U1-NC-Pad30)*%
X169625000Y-87810000D03*
%TO.P,U1,31,IO38*%
%TO.N,Net-(U1-IO38)*%
X169625000Y-86540000D03*
%TO.P,U1,32,MTCK/IO39*%
%TO.N,MTCK*%
X169625000Y-85270000D03*
%TO.P,U1,33,MTDO/IO40*%
%TO.N,MTDO*%
X169625000Y-84000000D03*
%TO.P,U1,34,MTDI/IO41*%
%TO.N,MTDI*%
X169625000Y-82730000D03*
%TO.P,U1,35,MTMS/IO42*%
%TO.N,MTMS*%
X169625000Y-81460000D03*
%TO.P,U1,36,RXD0/IO44*%
%TO.N,RXD0*%
X169625000Y-80190000D03*
%TO.P,U1,37,TXD0/IO43*%
%TO.N,TXD0*%
X169625000Y-78920000D03*
%TO.P,U1,38,IO2*%
%TO.N,IO2*%
X169625000Y-77650000D03*
%TO.P,U1,39,IO1*%
%TO.N,IO1*%
X169625000Y-76380000D03*
%TO.P,U1,40,GND*%
%TO.N,GND*%
X169625000Y-75110000D03*
D17*
%TO.P,U1,41,GND*%
X158015000Y-78960000D03*
D18*
X158015000Y-79710000D03*
D17*
X158015000Y-80460000D03*
D18*
X158015000Y-81210000D03*
D17*
X158015000Y-81960000D03*
D18*
X158765000Y-78960000D03*
X158765000Y-80460000D03*
X158765000Y-81960000D03*
D17*
X159515000Y-78960000D03*
D18*
X159515000Y-79710000D03*
D17*
X159515000Y-80460000D03*
D18*
X159515000Y-81210000D03*
D17*
X159515000Y-81960000D03*
D18*
X160265000Y-78960000D03*
X160265000Y-80460000D03*
X160265000Y-81960000D03*
D17*
X161015000Y-78960000D03*
D18*
X161015000Y-79710000D03*
D17*
X161015000Y-80460000D03*
D18*
X161015000Y-81210000D03*
D17*
X161015000Y-81960000D03*
%TD*%
D19*
%TO.P,SW4,1,1*%
%TO.N,+3V3*%
X177060000Y-128720000D03*
X183560000Y-128720000D03*
%TO.P,SW4,2,2*%
%TO.N,Net-(U1-IO38)*%
X177060000Y-133220000D03*
X183560000Y-133220000D03*
%TD*%
D20*
%TO.P,C3,1*%
%TO.N,Net-(D1-K)*%
X141450000Y-135730000D03*
D21*
%TO.P,C3,2*%
%TO.N,GND*%
X139450000Y-135730000D03*
%TD*%
D22*
%TO.P,R9,1*%
%TO.N,Net-(U1-IO38)*%
X169500000Y-125642500D03*
%TO.P,R9,2*%
%TO.N,GND*%
X169500000Y-123817500D03*
%TD*%
D23*
%TO.P,D3,1,K*%
%TO.N,Net-(D3-K)*%
X155610000Y-97460000D03*
D24*
%TO.P,D3,2,A*%
%TO.N,Net-(D3-A)*%
X155610000Y-100000000D03*
%TD*%
D22*
%TO.P,R6,1*%
%TO.N,+3V3*%
X149580000Y-105812500D03*
%TO.P,R6,2*%
%TO.N,Net-(D2-A)*%
X149580000Y-103987500D03*
%TD*%
%TO.P,R1,1*%
%TO.N,Net-(U1-IO21)*%
X172920000Y-125642500D03*
%TO.P,R1,2*%
%TO.N,GND*%
X172920000Y-123817500D03*
%TD*%
D25*
%TO.P,D1,1,K*%
%TO.N,Net-(D1-K)*%
X148910000Y-138282500D03*
%TO.P,D1,2,A*%
%TO.N,+5V*%
X148910000Y-142282500D03*
%TD*%
D20*
%TO.P,C2,1*%
%TO.N,Net-(D1-K)*%
X141480000Y-129630000D03*
D21*
%TO.P,C2,2*%
%TO.N,GND*%
X139480000Y-129630000D03*
%TD*%
D23*
%TO.P,D4,1,K*%
%TO.N,Net-(D4-K)*%
X161570000Y-97470000D03*
D24*
%TO.P,D4,2,A*%
%TO.N,Net-(D4-A)*%
X161570000Y-100010000D03*
%TD*%
D26*
%TO.P,C7,1*%
%TO.N,GND*%
X168960000Y-108790000D03*
%TO.P,C7,2*%
%TO.N,Net-(U1-EN)*%
X168960000Y-106890000D03*
%TD*%
D27*
%TO.P,C1,1*%
%TO.N,Net-(D1-K)*%
X141710000Y-125500000D03*
%TO.P,C1,2*%
%TO.N,GND*%
X139810000Y-125500000D03*
%TD*%
D19*
%TO.P,SW2,1,1*%
%TO.N,GND*%
X183590000Y-116170000D03*
X177090000Y-116170000D03*
%TO.P,SW2,2,2*%
%TO.N,Net-(U1-IO0)*%
X183590000Y-111670000D03*
X177090000Y-111670000D03*
%TD*%
D28*
%TO.P,R2,1*%
%TO.N,+3V3*%
X147445000Y-90740000D03*
%TO.P,R2,2*%
%TO.N,SDA*%
X149270000Y-90740000D03*
%TD*%
D22*
%TO.P,R5,1*%
%TO.N,+3V3*%
X172900000Y-116582500D03*
%TO.P,R5,2*%
%TO.N,Net-(U1-IO0)*%
X172900000Y-114757500D03*
%TD*%
D26*
%TO.P,C8,1*%
%TO.N,GND*%
X169230000Y-116700000D03*
%TO.P,C8,2*%
%TO.N,Net-(U1-IO0)*%
X169230000Y-114800000D03*
%TD*%
D20*
%TO.P,C4,1*%
%TO.N,+3V3*%
X150255113Y-115080000D03*
D21*
%TO.P,C4,2*%
%TO.N,GND*%
X148255113Y-115080000D03*
%TD*%
D23*
%TO.P,D2,1,K*%
%TO.N,GND*%
X149650000Y-97460000D03*
D24*
%TO.P,D2,2,A*%
%TO.N,Net-(D2-A)*%
X149650000Y-100000000D03*
%TD*%
D22*
%TO.P,R4,1*%
%TO.N,+3V3*%
X172660000Y-108732500D03*
%TO.P,R4,2*%
%TO.N,Net-(U1-EN)*%
X172660000Y-106907500D03*
%TD*%
D14*
%TO.P,C6,1*%
%TO.N,+3V3*%
X159550000Y-120730000D03*
%TO.P,C6,2*%
%TO.N,GND*%
X161450000Y-120730000D03*
%TD*%
D29*
%TO.P,U3,1,I/O1*%
%TO.N,D-*%
X161200000Y-123862500D03*
%TO.P,U3,2,GND*%
%TO.N,GND*%
X160250000Y-123862500D03*
%TO.P,U3,3,I/O2*%
%TO.N,D+*%
X159300000Y-123862500D03*
%TO.P,U3,4,I/O2*%
X159300000Y-126137500D03*
%TO.P,U3,5,VBUS*%
%TO.N,+3V3*%
X160250000Y-126137500D03*
%TO.P,U3,6,I/O1*%
%TO.N,D-*%
X161200000Y-126137500D03*
%TD*%
D30*
%TO.P,D5,1,K*%
%TO.N,Net-(D1-K)*%
X148850000Y-130980000D03*
%TO.P,D5,2,A*%
%TO.N,Net-(D5-A)*%
X152850000Y-130980000D03*
%TD*%
D19*
%TO.P,SW1,1,1*%
%TO.N,GND*%
X183580000Y-107750000D03*
X177080000Y-107750000D03*
%TO.P,SW1,2,2*%
%TO.N,Net-(U1-EN)*%
X183580000Y-103250000D03*
X177080000Y-103250000D03*
%TD*%
D13*
%TO.P,R8,1*%
%TO.N,Net-(D4-A)*%
X154960000Y-104017500D03*
%TO.P,R8,2*%
%TO.N,+3V3*%
X154960000Y-105842500D03*
%TD*%
D19*
%TO.P,SW3,1,1*%
%TO.N,+3V3*%
X183580000Y-124700000D03*
X177080000Y-124700000D03*
%TO.P,SW3,2,2*%
%TO.N,Net-(U1-IO21)*%
X183580000Y-120200000D03*
X177080000Y-120200000D03*
%TD*%
D28*
%TO.P,R3,1*%
%TO.N,+3V3*%
X147437500Y-94530000D03*
%TO.P,R3,2*%
%TO.N,SCL*%
X149262500Y-94530000D03*
%TD*%
D31*
%TO.P,U2,1,GND*%
%TO.N,GND*%
X146910000Y-120320000D03*
%TO.P,U2,2,VO*%
%TO.N,+3V3*%
X146910000Y-122620000D03*
D32*
X153210000Y-122620000D03*
D31*
%TO.P,U2,3,VI*%
%TO.N,Net-(D1-K)*%
X146910000Y-124920000D03*
%TD*%
D27*
%TO.P,C9,1*%
%TO.N,+3V3*%
X149390000Y-76400000D03*
%TO.P,C9,2*%
%TO.N,GND*%
X147490000Y-76400000D03*
%TD*%
D10*
%TO.P,J2,1,Pin_1*%
%TO.N,+5V*%
X144180000Y-144730000D03*
D11*
%TO.P,J2,2,Pin_2*%
X141640000Y-144730000D03*
%TO.P,J2,3,Pin_3*%
%TO.N,GND*%
X139100000Y-144730000D03*
%TO.P,J2,4,Pin_4*%
X136560000Y-144730000D03*
%TD*%
D10*
%TO.P,J4,1,Pin_1*%
%TO.N,+3V3*%
X183075000Y-77280000D03*
D11*
%TO.P,J4,2,Pin_2*%
%TO.N,GND*%
X183075000Y-79820000D03*
%TO.P,J4,3,Pin_3*%
%TO.N,TXD0*%
X183075000Y-82360000D03*
%TO.P,J4,4,Pin_4*%
%TO.N,RXD0*%
X183075000Y-84900000D03*
%TD*%
D10*
%TO.P,J5,1,Pin_1*%
%TO.N,IO1*%
X134935000Y-78450000D03*
D11*
%TO.P,J5,2,Pin_2*%
%TO.N,IO2*%
X134935000Y-80990000D03*
%TO.P,J5,3,Pin_3*%
%TO.N,IO4*%
X134935000Y-83530000D03*
%TO.P,J5,4,Pin_4*%
%TO.N,IO5*%
X134935000Y-86070000D03*
%TO.P,J5,5,Pin_5*%
%TO.N,IO6*%
X134935000Y-88610000D03*
%TO.P,J5,6,Pin_6*%
%TO.N,IO7*%
X134935000Y-91150000D03*
%TD*%
D10*
%TO.P,J3,1,Pin_1*%
%TO.N,MTCK*%
X183035000Y-97380000D03*
D11*
%TO.P,J3,2,Pin_2*%
%TO.N,MTDO*%
X183035000Y-94840000D03*
%TO.P,J3,3,Pin_3*%
%TO.N,MTDI*%
X183035000Y-92300000D03*
%TO.P,J3,4,Pin_4*%
%TO.N,MTMS*%
X183035000Y-89760000D03*
%TD*%
D10*
%TO.P,J6,1,Pin_1*%
%TO.N,IO10*%
X135110000Y-98120000D03*
D11*
%TO.P,J6,2,Pin_2*%
%TO.N,IO11*%
X135110000Y-100660000D03*
%TO.P,J6,3,Pin_3*%
%TO.N,IO12*%
X135110000Y-103200000D03*
%TO.P,J6,4,Pin_4*%
%TO.N,IO13*%
X135110000Y-105740000D03*
%TO.P,J6,5,Pin_5*%
%TO.N,IO14*%
X135110000Y-108280000D03*
%TO.P,J6,6,Pin_6*%
%TO.N,IO15*%
X135110000Y-110820000D03*
%TO.P,J6,7,Pin_7*%
%TO.N,IO16*%
X135110000Y-113360000D03*
%TO.P,J6,8,Pin_8*%
%TO.N,IO17*%
X135110000Y-115900000D03*
%TO.P,J6,9,Pin_9*%
%TO.N,IO18*%
X135110000Y-118440000D03*
%TD*%
D33*
%TO.N,Net-(U1-IO21)*%
X167760000Y-94650000D03*
X166850000Y-90070000D03*
%TO.N,Net-(U1-IO38)*%
X180820000Y-101850000D03*
D34*
%TO.N,+3V3*%
X164240000Y-80270000D03*
D33*
X159550000Y-122210000D03*
X157430000Y-119220000D03*
X160190000Y-127590000D03*
D34*
X152760000Y-96020000D03*
D33*
X172900000Y-118230000D03*
D34*
X156040000Y-91070000D03*
D33*
X172660000Y-110660000D03*
%TO.N,D+*%
X159825000Y-128450000D03*
X155049999Y-90705001D03*
X165981758Y-98582009D03*
%TO.N,D-*%
X160675000Y-128450000D03*
X154876865Y-89820000D03*
X166615165Y-98880000D03*
%TO.N,Net-(U1-EN)*%
X168800000Y-99020000D03*
X154230000Y-83070000D03*
%TO.N,Net-(U1-IO0)*%
X179600000Y-104700000D03*
X178555000Y-101965000D03*
%TO.N,IO1*%
X166850000Y-76380000D03*
%TO.N,IO2*%
X166870000Y-77650000D03*
%TO.N,IO10*%
X157700000Y-84030000D03*
%TO.N,IO11*%
X158970000Y-85260000D03*
%TO.N,IO12*%
X160240000Y-86540000D03*
%TO.N,IO13*%
X161510000Y-87740000D03*
%TO.N,IO14*%
X162780000Y-89020000D03*
%TD*%
D35*
%TO.N,Net-(D3-A)*%
X154260000Y-100000000D02*
X155610000Y-100000000D01*
X152350000Y-101910000D02*
X154260000Y-100000000D01*
X152350000Y-104007500D02*
X152350000Y-101910000D01*
%TO.N,Net-(D3-K)*%
X164380000Y-95440000D02*
X165320000Y-94500000D01*
X157320000Y-97460000D02*
X159340000Y-95440000D01*
X155610000Y-97460000D02*
X157320000Y-97460000D01*
X159340000Y-95440000D02*
X164380000Y-95440000D01*
X165320000Y-94500000D02*
X165320000Y-92870000D01*
%TO.N,Net-(D4-A)*%
X159682500Y-104007500D02*
X161570000Y-102120000D01*
X161570000Y-102120000D02*
X161570000Y-100010000D01*
X155530000Y-104007500D02*
X159682500Y-104007500D01*
%TO.N,Net-(D4-K)*%
X164470000Y-97420000D02*
X166590000Y-95300000D01*
X166590000Y-95300000D02*
X166590000Y-92870000D01*
X161260000Y-97420000D02*
X164470000Y-97420000D01*
%TO.N,Net-(D5-A)*%
X163110000Y-135470000D02*
X167190000Y-135470000D01*
X167990000Y-134670000D02*
X167990000Y-132770000D01*
X167190000Y-135470000D02*
X167990000Y-134670000D01*
X158620000Y-130980000D02*
X163110000Y-135470000D01*
X166552500Y-131332500D02*
X166240000Y-131332500D01*
X167990000Y-132770000D02*
X166552500Y-131332500D01*
X152850000Y-130980000D02*
X158620000Y-130980000D01*
D36*
%TO.N,Net-(U1-IO21)*%
X177080000Y-120200000D02*
X167230000Y-120200000D01*
X164800000Y-102090000D02*
X166920000Y-99970000D01*
X174860000Y-122440000D02*
X174860000Y-124790000D01*
X166850000Y-90070000D02*
X164670000Y-90070000D01*
X174860000Y-124790000D02*
X174007500Y-125642500D01*
X164050000Y-90690000D02*
X164050000Y-92870000D01*
X177080000Y-120220000D02*
X174860000Y-122440000D01*
X177080000Y-120200000D02*
X177080000Y-120220000D01*
X164670000Y-90070000D02*
X164050000Y-90690000D01*
X174007500Y-125642500D02*
X172920000Y-125642500D01*
X165660000Y-118630000D02*
X164800000Y-117770000D01*
X166920000Y-99970000D02*
X167760000Y-99130000D01*
X164800000Y-117770000D02*
X164800000Y-102380000D01*
X177080000Y-120200000D02*
X183580000Y-120200000D01*
X167230000Y-120200000D02*
X165660000Y-118630000D01*
X164800000Y-102380000D02*
X164800000Y-102090000D01*
X167760000Y-99130000D02*
X167760000Y-94650000D01*
D35*
%TO.N,SDA*%
X149270000Y-90740000D02*
X149270000Y-90000000D01*
X149270000Y-90000000D02*
X150190000Y-89080000D01*
X150190000Y-89080000D02*
X152125000Y-89080000D01*
%TO.N,SCL*%
X149262500Y-94530000D02*
X155930000Y-94530000D01*
X155930000Y-94530000D02*
X156430000Y-94030000D01*
X156430000Y-94030000D02*
X156430000Y-92870000D01*
D36*
%TO.N,Net-(U1-IO38)*%
X169500000Y-130500000D02*
X169500000Y-125642500D01*
X171540000Y-92600000D02*
X179240000Y-100300000D01*
X171540000Y-87550000D02*
X171540000Y-92600000D01*
X180790000Y-101850000D02*
X180820000Y-101850000D01*
X170530000Y-86540000D02*
X171540000Y-87550000D01*
X177060000Y-133220000D02*
X183560000Y-133220000D01*
X172220000Y-133220000D02*
X169500000Y-130500000D01*
X179240000Y-100300000D02*
X180790000Y-101850000D01*
X177060000Y-133220000D02*
X172220000Y-133220000D01*
X169625000Y-86540000D02*
X170530000Y-86540000D01*
D35*
%TO.N,+3V3*%
X149390000Y-76400000D02*
X152105000Y-76400000D01*
X151000000Y-101560000D02*
X151000000Y-105670000D01*
X152760000Y-96020000D02*
X152760000Y-99800000D01*
D36*
X177080000Y-124700000D02*
X183580000Y-124700000D01*
X172900000Y-116582500D02*
X172900000Y-118230000D01*
D35*
X152125000Y-76380000D02*
X155200000Y-76380000D01*
X147410129Y-108240129D02*
X148850000Y-109680000D01*
D36*
X177060000Y-124720000D02*
X177080000Y-124700000D01*
D35*
X147445000Y-94522500D02*
X147437500Y-94530000D01*
D37*
X159550000Y-122210000D02*
X159550000Y-120730000D01*
D35*
X152105000Y-76400000D02*
X152125000Y-76380000D01*
X147445000Y-90740000D02*
X147445000Y-94522500D01*
D36*
X157430000Y-119220000D02*
X155980000Y-119220000D01*
D35*
X156050000Y-77230000D02*
X156050000Y-91060000D01*
D37*
X160250000Y-126137500D02*
X160250000Y-127530000D01*
D35*
X151770000Y-100790000D02*
X151000000Y-101560000D01*
X155200000Y-76380000D02*
X156050000Y-77230000D01*
X156050000Y-91060000D02*
X156040000Y-91070000D01*
X147437500Y-94530000D02*
X147400000Y-94530000D01*
X164240000Y-78510000D02*
X164240000Y-80270000D01*
X162960000Y-77230000D02*
X164240000Y-78510000D01*
X156050000Y-77230000D02*
X162960000Y-77230000D01*
X147400000Y-94530000D02*
X147410129Y-94540129D01*
D37*
X159550000Y-120730000D02*
X155870000Y-120730000D01*
D36*
X172660000Y-110660000D02*
X172660000Y-108732500D01*
D35*
X152760000Y-99800000D02*
X151770000Y-100790000D01*
D37*
X160250000Y-127530000D02*
X160190000Y-127590000D01*
D36*
X177060000Y-128720000D02*
X183560000Y-128720000D01*
X177060000Y-128720000D02*
X177060000Y-124720000D01*
D35*
X147410129Y-94540129D02*
X147410129Y-108240129D01*
X148850000Y-109680000D02*
X150310000Y-109680000D01*
D37*
%TO.N,D+*%
X163732500Y-133332500D02*
X161880000Y-131480000D01*
X165990000Y-98871801D02*
X165990000Y-98590251D01*
X159300000Y-126137500D02*
X159300000Y-123862500D01*
X159300000Y-127925000D02*
X159300000Y-126137500D01*
X163290000Y-101571801D02*
X165990000Y-98871801D01*
X163290000Y-128040000D02*
X163290000Y-101571801D01*
X154135000Y-91620000D02*
X152125000Y-91620000D01*
X165990000Y-98590251D02*
X165981758Y-98582009D01*
X161880000Y-129450000D02*
X163290000Y-128040000D01*
X163740000Y-133332500D02*
X163732500Y-133332500D01*
X159825000Y-128450000D02*
X159300000Y-127925000D01*
X161880000Y-131480000D02*
X161880000Y-129450000D01*
X155049999Y-90705001D02*
X154135000Y-91620000D01*
%TO.N,D-*%
X154280000Y-89820000D02*
X153750000Y-90350000D01*
X161200000Y-126137500D02*
X161200000Y-123862500D01*
X163740000Y-122670000D02*
X163740000Y-123340000D01*
X166403034Y-99092131D02*
X166403034Y-99095165D01*
X153750000Y-90350000D02*
X152125000Y-90350000D01*
X163740000Y-123340000D02*
X163740000Y-131332500D01*
X161200000Y-127925000D02*
X161200000Y-126137500D01*
X160675000Y-128450000D02*
X161200000Y-127925000D01*
X166403034Y-99095165D02*
X163740000Y-101758199D01*
X154876865Y-89820000D02*
X154280000Y-89820000D01*
X166615165Y-98880000D02*
X166403034Y-99092131D01*
X161210000Y-126147500D02*
X161200000Y-126137500D01*
X163740000Y-101758199D02*
X163740000Y-122670000D01*
D36*
%TO.N,Net-(U1-EN)*%
X172660000Y-105190000D02*
X174600000Y-103250000D01*
X153175000Y-77650000D02*
X152125000Y-77650000D01*
X172642500Y-106890000D02*
X172660000Y-106907500D01*
X172660000Y-106907500D02*
X172660000Y-105190000D01*
X154230000Y-83070000D02*
X154220000Y-83060000D01*
X154220000Y-78695000D02*
X153175000Y-77650000D01*
X174130000Y-99020000D02*
X177080000Y-101970000D01*
X168800000Y-99020000D02*
X174130000Y-99020000D01*
X177080000Y-101970000D02*
X177080000Y-103250000D01*
X177080000Y-103250000D02*
X183580000Y-103250000D01*
X168960000Y-106890000D02*
X172642500Y-106890000D01*
X174600000Y-103250000D02*
X177080000Y-103250000D01*
X154220000Y-83060000D02*
X154220000Y-78695000D01*
%TO.N,Net-(U1-IO0)*%
X178400000Y-109880000D02*
X179600000Y-108680000D01*
X172857500Y-114800000D02*
X172900000Y-114757500D01*
X172900000Y-114757500D02*
X172900000Y-113910000D01*
X177090000Y-111190000D02*
X178400000Y-109880000D01*
X177090000Y-111670000D02*
X177090000Y-111190000D01*
X169625000Y-93035000D02*
X169625000Y-91620000D01*
X177090000Y-111670000D02*
X183590000Y-111670000D01*
X179600000Y-108680000D02*
X179600000Y-104700000D01*
X169230000Y-114800000D02*
X172857500Y-114800000D01*
X178555000Y-101965000D02*
X169625000Y-93035000D01*
X175140000Y-111670000D02*
X177090000Y-111670000D01*
X172900000Y-113910000D02*
X175140000Y-111670000D01*
D35*
%TO.N,Net-(D2-A)*%
X149580000Y-103987500D02*
X149580000Y-100070000D01*
X149580000Y-100070000D02*
X149650000Y-100000000D01*
X149560000Y-100370000D02*
X149930000Y-100000000D01*
X149580000Y-103987500D02*
X149560000Y-103967500D01*
D36*
%TO.N,IO1*%
X169625000Y-76380000D02*
X166850000Y-76380000D01*
%TO.N,IO2*%
X169625000Y-77650000D02*
X166870000Y-77650000D01*
%TO.N,IO4*%
X152115000Y-78930000D02*
X152125000Y-78920000D01*
X142080000Y-78920000D02*
X152125000Y-78920000D01*
X137470000Y-83530000D02*
X142080000Y-78920000D01*
X134935000Y-83530000D02*
X137470000Y-83530000D01*
%TO.N,IO5*%
X152105000Y-80210000D02*
X152125000Y-80190000D01*
X137210000Y-86070000D02*
X143090000Y-80190000D01*
X143090000Y-80190000D02*
X152125000Y-80190000D01*
X134935000Y-86070000D02*
X137210000Y-86070000D01*
%TO.N,IO6*%
X134935000Y-88610000D02*
X136810000Y-88610000D01*
X136810000Y-88610000D02*
X143960000Y-81460000D01*
X143960000Y-81460000D02*
X152125000Y-81460000D01*
%TO.N,IO7*%
X134935000Y-91150000D02*
X136610000Y-91150000D01*
X145030000Y-82730000D02*
X152125000Y-82730000D01*
X136610000Y-91150000D02*
X145030000Y-82730000D01*
%TO.N,IO10*%
X157700000Y-84030000D02*
X157700000Y-92870000D01*
%TO.N,IO11*%
X158970000Y-85260000D02*
X158970000Y-92870000D01*
%TO.N,IO12*%
X160240000Y-86540000D02*
X160240000Y-92870000D01*
%TO.N,IO13*%
X161510000Y-87740000D02*
X161510000Y-92870000D01*
%TO.N,IO14*%
X162780000Y-89020000D02*
X162780000Y-92870000D01*
%TO.N,IO15*%
X139730000Y-109270000D02*
X139730000Y-89960000D01*
X135110000Y-110820000D02*
X138180000Y-110820000D01*
X138180000Y-110820000D02*
X139730000Y-109270000D01*
X139730000Y-89960000D02*
X145690000Y-84000000D01*
X145690000Y-84000000D02*
X152125000Y-84000000D01*
%TO.N,IO16*%
X140960000Y-90510000D02*
X146200000Y-85270000D01*
X138690000Y-113360000D02*
X140960000Y-111090000D01*
X146200000Y-85270000D02*
X152125000Y-85270000D01*
X135110000Y-113360000D02*
X138690000Y-113360000D01*
X140960000Y-111090000D02*
X140960000Y-90510000D01*
%TO.N,IO17*%
X142240000Y-112410000D02*
X142240000Y-90990000D01*
X138750000Y-115900000D02*
X142240000Y-112410000D01*
X146690000Y-86540000D02*
X152125000Y-86540000D01*
X142240000Y-90990000D02*
X146690000Y-86540000D01*
X135110000Y-115900000D02*
X138750000Y-115900000D01*
%TO.N,IO18*%
X143550000Y-114250000D02*
X139360000Y-118440000D01*
X152125000Y-87810000D02*
X147360000Y-87810000D01*
X147360000Y-87810000D02*
X143550000Y-91620000D01*
X139360000Y-118440000D02*
X135110000Y-118440000D01*
X143550000Y-91620000D02*
X143550000Y-114250000D01*
%TO.N,RXD0*%
X179650000Y-84900000D02*
X183075000Y-84900000D01*
X174940000Y-80190000D02*
X179650000Y-84900000D01*
X169625000Y-80190000D02*
X174940000Y-80190000D01*
%TO.N,TXD0*%
X180190000Y-82360000D02*
X176750000Y-78920000D01*
X183075000Y-82360000D02*
X180190000Y-82360000D01*
X176750000Y-78920000D02*
X169625000Y-78920000D01*
%TO.N,MTMS*%
X177030000Y-84390000D02*
X174100000Y-81460000D01*
X183035000Y-89760000D02*
X178760000Y-89760000D01*
X178760000Y-89760000D02*
X177030000Y-88030000D01*
X177030000Y-88030000D02*
X177030000Y-84390000D01*
X174100000Y-81460000D02*
X169625000Y-81460000D01*
%TO.N,MTDI*%
X175570000Y-89790000D02*
X175570000Y-85400000D01*
X172900000Y-82730000D02*
X169625000Y-82730000D01*
X183035000Y-92300000D02*
X178080000Y-92300000D01*
X178080000Y-92300000D02*
X175570000Y-89790000D01*
X175570000Y-85400000D02*
X172900000Y-82730000D01*
%TO.N,MTDO*%
X178100000Y-94840000D02*
X183035000Y-94840000D01*
X174010000Y-86290000D02*
X174010000Y-90750000D01*
X171720000Y-84000000D02*
X174010000Y-86290000D01*
X174010000Y-90750000D02*
X178100000Y-94840000D01*
X169625000Y-84000000D02*
X171720000Y-84000000D01*
%TO.N,MTCK*%
X170780000Y-85270000D02*
X172780000Y-87270000D01*
X172780000Y-87270000D02*
X172780000Y-91680000D01*
X178480000Y-97380000D02*
X183035000Y-97380000D01*
X169625000Y-85270000D02*
X170780000Y-85270000D01*
X172780000Y-91680000D02*
X178480000Y-97380000D01*
X183035000Y-97380000D02*
X183035000Y-97365000D01*
%TD*%
%TA.AperFunction,Conductor*%
%TO.N,+3V3*%
G36*
X156263039Y-105089685D02*
G01*
X156308794Y-105142489D01*
X156320000Y-105194000D01*
X156320000Y-124238638D01*
X156300315Y-124305677D01*
X156283681Y-124326319D01*
X155856319Y-124753681D01*
X155794996Y-124787166D01*
X155768638Y-124790000D01*
X151531362Y-124790000D01*
X151464323Y-124770315D01*
X151443681Y-124753681D01*
X151016319Y-124326319D01*
X150982834Y-124264996D01*
X150980000Y-124238638D01*
X150980000Y-123720000D01*
X150480000Y-123720000D01*
X147860478Y-123720000D01*
X147830557Y-123716335D01*
X147737090Y-123693091D01*
X147653892Y-123672400D01*
X147632506Y-123670950D01*
X147611123Y-123669500D01*
X147611120Y-123669500D01*
X146208877Y-123669500D01*
X146208874Y-123669501D01*
X146166112Y-123672399D01*
X146062995Y-123698043D01*
X145993187Y-123695119D01*
X145945389Y-123665389D01*
X145536319Y-123256319D01*
X145502834Y-123194996D01*
X145500000Y-123168638D01*
X145500000Y-122051361D01*
X145519685Y-121984322D01*
X145536314Y-121963685D01*
X145929374Y-121570625D01*
X145990695Y-121537142D01*
X146046979Y-121537973D01*
X146166106Y-121567599D01*
X146166107Y-121567599D01*
X146166111Y-121567600D01*
X146208877Y-121570500D01*
X147611122Y-121570499D01*
X147653889Y-121567600D01*
X147838693Y-121521641D01*
X147856293Y-121512911D01*
X147911388Y-121500000D01*
X149600000Y-121500000D01*
X149600000Y-105621362D01*
X149619685Y-105554323D01*
X149636319Y-105533681D01*
X150063681Y-105106319D01*
X150125004Y-105072834D01*
X150151362Y-105070000D01*
X156196000Y-105070000D01*
X156263039Y-105089685D01*
G37*
%TD.AperFunction*%
%TD*%
%TA.AperFunction,Conductor*%
%TO.N,+5V*%
G36*
X150115672Y-140376912D02*
G01*
X150136327Y-140393550D01*
X150563669Y-140820769D01*
X150597162Y-140882088D01*
X150600000Y-140908463D01*
X150600000Y-145978638D01*
X150580315Y-146045677D01*
X150563681Y-146066319D01*
X150136319Y-146493681D01*
X150074996Y-146527166D01*
X150048638Y-146530000D01*
X140961480Y-146530000D01*
X140894441Y-146510315D01*
X140873657Y-146493539D01*
X140447963Y-146066463D01*
X140414577Y-146005086D01*
X140411787Y-145978530D01*
X140414729Y-145070999D01*
X140417115Y-145051155D01*
X140416484Y-145051056D01*
X140450500Y-144836286D01*
X140450500Y-144623713D01*
X140418425Y-144421201D01*
X140416899Y-144401412D01*
X140428212Y-140911228D01*
X140448113Y-140844257D01*
X140464660Y-140823823D01*
X140893719Y-140396031D01*
X140955091Y-140362637D01*
X140981231Y-140359842D01*
X145515000Y-140358545D01*
X150048628Y-140357247D01*
X150115672Y-140376912D01*
G37*
%TD.AperFunction*%
%TD*%
%TA.AperFunction,Conductor*%
%TO.N,Net-(D1-K)*%
G36*
X145540793Y-123979685D02*
G01*
X145561435Y-123996319D01*
X145587947Y-124022831D01*
X145678403Y-124094631D01*
X145726201Y-124124361D01*
X145830593Y-124173756D01*
X145830595Y-124173756D01*
X145830598Y-124173758D01*
X145972032Y-124200176D01*
X145993511Y-124201075D01*
X146041831Y-124203100D01*
X146041840Y-124203100D01*
X146041843Y-124203100D01*
X146184991Y-124188601D01*
X146224945Y-124178665D01*
X146254871Y-124175000D01*
X147565128Y-124175000D01*
X147595054Y-124178665D01*
X147708560Y-124206893D01*
X147769098Y-124218085D01*
X147799019Y-124221750D01*
X147860478Y-124225500D01*
X150359550Y-124225500D01*
X150426589Y-124245185D01*
X150472344Y-124297989D01*
X150481953Y-124329666D01*
X150488884Y-124372443D01*
X150488885Y-124372447D01*
X150515694Y-124444323D01*
X150539168Y-124507257D01*
X150541410Y-124511362D01*
X150565971Y-124556344D01*
X150572653Y-124568580D01*
X150645267Y-124665581D01*
X150669684Y-124731043D01*
X150670000Y-124739890D01*
X150670000Y-139068638D01*
X150650315Y-139135677D01*
X150633681Y-139156319D01*
X150206319Y-139583681D01*
X150144996Y-139617166D01*
X150118638Y-139620000D01*
X141311362Y-139620000D01*
X141244323Y-139600315D01*
X141223681Y-139583681D01*
X140796319Y-139156319D01*
X140762834Y-139094996D01*
X140760000Y-139068638D01*
X140760000Y-129871538D01*
X140761527Y-129852140D01*
X140780500Y-129732351D01*
X140780500Y-129527648D01*
X140761527Y-129407859D01*
X140760000Y-129388461D01*
X140760000Y-126268514D01*
X140766293Y-126229513D01*
X140799999Y-126127797D01*
X140810500Y-126025009D01*
X140810499Y-124974992D01*
X140799999Y-124872203D01*
X140766294Y-124770487D01*
X140765843Y-124767694D01*
X140765023Y-124766418D01*
X140760000Y-124731483D01*
X140760000Y-124511362D01*
X140779685Y-124444323D01*
X140796319Y-124423681D01*
X141223681Y-123996319D01*
X141285004Y-123962834D01*
X141311362Y-123960000D01*
X145473754Y-123960000D01*
X145540793Y-123979685D01*
G37*
%TD.AperFunction*%
%TD*%
%TA.AperFunction,Conductor*%
%TO.N,GND*%
G36*
X185192539Y-74540185D02*
G01*
X185238294Y-74592989D01*
X185249500Y-74644500D01*
X185249500Y-102749566D01*
X185229815Y-102816605D01*
X185177011Y-102862360D01*
X185107853Y-102872304D01*
X185044297Y-102843279D01*
X185007569Y-102787885D01*
X184970566Y-102674003D01*
X184877924Y-102492184D01*
X184863343Y-102463567D01*
X184724517Y-102272490D01*
X184557510Y-102105483D01*
X184366433Y-101966657D01*
X184330686Y-101948443D01*
X184155996Y-101859433D01*
X183931368Y-101786446D01*
X183698097Y-101749500D01*
X183698092Y-101749500D01*
X183461908Y-101749500D01*
X183461903Y-101749500D01*
X183228631Y-101786446D01*
X183004003Y-101859433D01*
X182793566Y-101966657D01*
X182694106Y-102038920D01*
X182602490Y-102105483D01*
X182602488Y-102105485D01*
X182602487Y-102105485D01*
X182435485Y-102272487D01*
X182435485Y-102272488D01*
X182435483Y-102272490D01*
X182400605Y-102320495D01*
X182296657Y-102463566D01*
X182261893Y-102531795D01*
X182213918Y-102582591D01*
X182151408Y-102599500D01*
X181431230Y-102599500D01*
X181364191Y-102579815D01*
X181318436Y-102527011D01*
X181308492Y-102457853D01*
X181337517Y-102394297D01*
X181343549Y-102387819D01*
X181402948Y-102328419D01*
X181402951Y-102328416D01*
X181485084Y-102205495D01*
X181541658Y-102068913D01*
X181555078Y-102001447D01*
X181570500Y-101923920D01*
X181570500Y-101776079D01*
X181541659Y-101631092D01*
X181541658Y-101631091D01*
X181541658Y-101631087D01*
X181532721Y-101609511D01*
X181485087Y-101494511D01*
X181485080Y-101494498D01*
X181402951Y-101371584D01*
X181402948Y-101371580D01*
X181298419Y-101267051D01*
X181298415Y-101267048D01*
X181175501Y-101184919D01*
X181175488Y-101184912D01*
X181038915Y-101128342D01*
X181038907Y-101128340D01*
X181012608Y-101123109D01*
X180950697Y-101090724D01*
X180949119Y-101089173D01*
X177990869Y-98130923D01*
X177957384Y-98069600D01*
X177962368Y-97999908D01*
X178004240Y-97943975D01*
X178069704Y-97919558D01*
X178137977Y-97934410D01*
X178147437Y-97940137D01*
X178171873Y-97956465D01*
X178290256Y-98005501D01*
X178290260Y-98005501D01*
X178290261Y-98005502D01*
X178415928Y-98030500D01*
X178415931Y-98030500D01*
X181560501Y-98030500D01*
X181627540Y-98050185D01*
X181673295Y-98102989D01*
X181684501Y-98154500D01*
X181684501Y-98277876D01*
X181690908Y-98337483D01*
X181741202Y-98472328D01*
X181741206Y-98472335D01*
X181827452Y-98587544D01*
X181827455Y-98587547D01*
X181942664Y-98673793D01*
X181942671Y-98673797D01*
X182077517Y-98724091D01*
X182077516Y-98724091D01*
X182084444Y-98724835D01*
X182137127Y-98730500D01*
X183932872Y-98730499D01*
X183992483Y-98724091D01*
X184127331Y-98673796D01*
X184242546Y-98587546D01*
X184328796Y-98472331D01*
X184379091Y-98337483D01*
X184385500Y-98277873D01*
X184385499Y-96482128D01*
X184379091Y-96422517D01*
X184371506Y-96402181D01*
X184328797Y-96287671D01*
X184328793Y-96287664D01*
X184242547Y-96172455D01*
X184242544Y-96172452D01*
X184127335Y-96086206D01*
X184127328Y-96086202D01*
X183995917Y-96037189D01*
X183939983Y-95995318D01*
X183915566Y-95929853D01*
X183930418Y-95861580D01*
X183951563Y-95833332D01*
X184065104Y-95719792D01*
X184190051Y-95547816D01*
X184286557Y-95358412D01*
X184352246Y-95156243D01*
X184385500Y-94946287D01*
X184385500Y-94733713D01*
X184352246Y-94523757D01*
X184286557Y-94321588D01*
X184190051Y-94132184D01*
X184190049Y-94132181D01*
X184190048Y-94132179D01*
X184065109Y-93960213D01*
X183914786Y-93809890D01*
X183742820Y-93684951D01*
X183742115Y-93684591D01*
X183734054Y-93680485D01*
X183683259Y-93632512D01*
X183666463Y-93564692D01*
X183688999Y-93498556D01*
X183734054Y-93459515D01*
X183742816Y-93455051D01*
X183764789Y-93439086D01*
X183914786Y-93330109D01*
X183914788Y-93330106D01*
X183914792Y-93330104D01*
X184065104Y-93179792D01*
X184065106Y-93179788D01*
X184065109Y-93179786D01*
X184190048Y-93007820D01*
X184190047Y-93007820D01*
X184190051Y-93007816D01*
X184286557Y-92818412D01*
X184352246Y-92616243D01*
X184385500Y-92406287D01*
X184385500Y-92193713D01*
X184352246Y-91983757D01*
X184286557Y-91781588D01*
X184190051Y-91592184D01*
X184190049Y-91592181D01*
X184190048Y-91592179D01*
X184065109Y-91420213D01*
X183914786Y-91269890D01*
X183742820Y-91144951D01*
X183742115Y-91144591D01*
X183734054Y-91140485D01*
X183683259Y-91092512D01*
X183666463Y-91024692D01*
X183688999Y-90958556D01*
X183734054Y-90919515D01*
X183742816Y-90915051D01*
X183777432Y-90889901D01*
X183914786Y-90790109D01*
X183914788Y-90790106D01*
X183914792Y-90790104D01*
X184065104Y-90639792D01*
X184065106Y-90639788D01*
X184065109Y-90639786D01*
X184190048Y-90467820D01*
X184190047Y-90467820D01*
X184190051Y-90467816D01*
X184286557Y-90278412D01*
X184352246Y-90076243D01*
X184385500Y-89866287D01*
X184385500Y-89653713D01*
X184352246Y-89443757D01*
X184286557Y-89241588D01*
X184190051Y-89052184D01*
X184190049Y-89052181D01*
X184190048Y-89052179D01*
X184065109Y-88880213D01*
X183914786Y-88729890D01*
X183742820Y-88604951D01*
X183553414Y-88508444D01*
X183553413Y-88508443D01*
X183553412Y-88508443D01*
X183351243Y-88442754D01*
X183351241Y-88442753D01*
X183351240Y-88442753D01*
X183157854Y-88412124D01*
X183141287Y-88409500D01*
X182928713Y-88409500D01*
X182912146Y-88412124D01*
X182718760Y-88442753D01*
X182516585Y-88508444D01*
X182327179Y-88604951D01*
X182155213Y-88729890D01*
X182004890Y-88880213D01*
X181877085Y-89056125D01*
X181875740Y-89055148D01*
X181829295Y-89097166D01*
X181775382Y-89109500D01*
X179080808Y-89109500D01*
X179013769Y-89089815D01*
X178993127Y-89073181D01*
X177716819Y-87796873D01*
X177683334Y-87735550D01*
X177680500Y-87709192D01*
X177680500Y-84325928D01*
X177655502Y-84200261D01*
X177655501Y-84200260D01*
X177655501Y-84200256D01*
X177652427Y-84192834D01*
X177629032Y-84136353D01*
X177621563Y-84066884D01*
X177652838Y-84004405D01*
X177712927Y-83968753D01*
X177782753Y-83971247D01*
X177831274Y-84001220D01*
X179235325Y-85405272D01*
X179235328Y-85405275D01*
X179235331Y-85405277D01*
X179294032Y-85444499D01*
X179341873Y-85476465D01*
X179460256Y-85525501D01*
X179460260Y-85525501D01*
X179460261Y-85525502D01*
X179585928Y-85550500D01*
X179585931Y-85550500D01*
X181815382Y-85550500D01*
X181882421Y-85570185D01*
X181916099Y-85604591D01*
X181917085Y-85603875D01*
X182044890Y-85779786D01*
X182195213Y-85930109D01*
X182367179Y-86055048D01*
X182367181Y-86055049D01*
X182367184Y-86055051D01*
X182556588Y-86151557D01*
X182758757Y-86217246D01*
X182968713Y-86250500D01*
X182968714Y-86250500D01*
X183181286Y-86250500D01*
X183181287Y-86250500D01*
X183391243Y-86217246D01*
X183593412Y-86151557D01*
X183782816Y-86055051D01*
X183882650Y-85982518D01*
X183954786Y-85930109D01*
X183954788Y-85930106D01*
X183954792Y-85930104D01*
X184105104Y-85779792D01*
X184105106Y-85779788D01*
X184105109Y-85779786D01*
X184230048Y-85607820D01*
X184230047Y-85607820D01*
X184230051Y-85607816D01*
X184326557Y-85418412D01*
X184392246Y-85216243D01*
X184425500Y-85006287D01*
X184425500Y-84793713D01*
X184392246Y-84583757D01*
X184326557Y-84381588D01*
X184230051Y-84192184D01*
X184230049Y-84192181D01*
X184230048Y-84192179D01*
X184105109Y-84020213D01*
X183954786Y-83869890D01*
X183782820Y-83744951D01*
X183776612Y-83741788D01*
X183774054Y-83740485D01*
X183723259Y-83692512D01*
X183706463Y-83624692D01*
X183728999Y-83558556D01*
X183774054Y-83519515D01*
X183782816Y-83515051D01*
X183856983Y-83461166D01*
X183954786Y-83390109D01*
X183954788Y-83390106D01*
X183954792Y-83390104D01*
X184105104Y-83239792D01*
X184105106Y-83239788D01*
X184105109Y-83239786D01*
X184230048Y-83067820D01*
X184230047Y-83067820D01*
X184230051Y-83067816D01*
X184326557Y-82878412D01*
X184392246Y-82676243D01*
X184425500Y-82466287D01*
X184425500Y-82253713D01*
X184392246Y-82043757D01*
X184326557Y-81841588D01*
X184230051Y-81652184D01*
X184230049Y-81652181D01*
X184230048Y-81652179D01*
X184105109Y-81480213D01*
X183954786Y-81329890D01*
X183782820Y-81204951D01*
X183593414Y-81108444D01*
X183593413Y-81108443D01*
X183593412Y-81108443D01*
X183391243Y-81042754D01*
X183391241Y-81042753D01*
X183391240Y-81042753D01*
X183229957Y-81017208D01*
X183181287Y-81009500D01*
X182968713Y-81009500D01*
X182920042Y-81017208D01*
X182758760Y-81042753D01*
X182556585Y-81108444D01*
X182367179Y-81204951D01*
X182195213Y-81329890D01*
X182044890Y-81480213D01*
X181917085Y-81656125D01*
X181915740Y-81655148D01*
X181869295Y-81697166D01*
X181815382Y-81709500D01*
X180510808Y-81709500D01*
X180443769Y-81689815D01*
X180423127Y-81673181D01*
X177164674Y-78414727D01*
X177164673Y-78414726D01*
X177143382Y-78400500D01*
X177058127Y-78343535D01*
X177001755Y-78320185D01*
X176939744Y-78294499D01*
X176939745Y-78294499D01*
X176935486Y-78293652D01*
X176922591Y-78291087D01*
X176922566Y-78291082D01*
X176814071Y-78269500D01*
X176814069Y-78269500D01*
X170999500Y-78269500D01*
X170932461Y-78249815D01*
X170886706Y-78197011D01*
X170875500Y-78145500D01*
X170875499Y-77152129D01*
X170875498Y-77152123D01*
X170871258Y-77112681D01*
X170869091Y-77092517D01*
X170856340Y-77058332D01*
X170851357Y-76988642D01*
X170856338Y-76971672D01*
X170869091Y-76937483D01*
X170875500Y-76877873D01*
X170875500Y-76382135D01*
X181724500Y-76382135D01*
X181724500Y-78177870D01*
X181724501Y-78177876D01*
X181730908Y-78237483D01*
X181781202Y-78372328D01*
X181781206Y-78372335D01*
X181867452Y-78487544D01*
X181867455Y-78487547D01*
X181982664Y-78573793D01*
X181982671Y-78573797D01*
X182117517Y-78624091D01*
X182117516Y-78624091D01*
X182124444Y-78624835D01*
X182177127Y-78630500D01*
X183972872Y-78630499D01*
X184032483Y-78624091D01*
X184167331Y-78573796D01*
X184282546Y-78487546D01*
X184368796Y-78372331D01*
X184419091Y-78237483D01*
X184425500Y-78177873D01*
X184425499Y-76382128D01*
X184419091Y-76322517D01*
X184412961Y-76306082D01*
X184368797Y-76187671D01*
X184368793Y-76187664D01*
X184282547Y-76072455D01*
X184282544Y-76072452D01*
X184167335Y-75986206D01*
X184167328Y-75986202D01*
X184032482Y-75935908D01*
X184032483Y-75935908D01*
X183972883Y-75929501D01*
X183972881Y-75929500D01*
X183972873Y-75929500D01*
X183972864Y-75929500D01*
X182177129Y-75929500D01*
X182177123Y-75929501D01*
X182117516Y-75935908D01*
X181982671Y-75986202D01*
X181982664Y-75986206D01*
X181867455Y-76072452D01*
X181867452Y-76072455D01*
X181781206Y-76187664D01*
X181781202Y-76187671D01*
X181730908Y-76322517D01*
X181724501Y-76382116D01*
X181724501Y-76382123D01*
X181724500Y-76382135D01*
X170875500Y-76382135D01*
X170875499Y-75882128D01*
X170869091Y-75822517D01*
X170859593Y-75797052D01*
X170818797Y-75687671D01*
X170818793Y-75687664D01*
X170732547Y-75572455D01*
X170732544Y-75572452D01*
X170617335Y-75486206D01*
X170617328Y-75486202D01*
X170482482Y-75435908D01*
X170482483Y-75435908D01*
X170422883Y-75429501D01*
X170422881Y-75429500D01*
X170422873Y-75429500D01*
X170422864Y-75429500D01*
X168827129Y-75429500D01*
X168827123Y-75429501D01*
X168767516Y-75435908D01*
X168632671Y-75486202D01*
X168632664Y-75486206D01*
X168517456Y-75572452D01*
X168517455Y-75572453D01*
X168517454Y-75572454D01*
X168437087Y-75679811D01*
X168381153Y-75721682D01*
X168337820Y-75729500D01*
X167263840Y-75729500D01*
X167211479Y-75716385D01*
X167211122Y-75717247D01*
X167205495Y-75714916D01*
X167068913Y-75658342D01*
X167068907Y-75658340D01*
X166923920Y-75629500D01*
X166923918Y-75629500D01*
X166776082Y-75629500D01*
X166776080Y-75629500D01*
X166631092Y-75658340D01*
X166631082Y-75658343D01*
X166494511Y-75714912D01*
X166494498Y-75714919D01*
X166371584Y-75797048D01*
X166371580Y-75797051D01*
X166267051Y-75901580D01*
X166267048Y-75901584D01*
X166184919Y-76024498D01*
X166184912Y-76024511D01*
X166128343Y-76161082D01*
X166128340Y-76161092D01*
X166099500Y-76306079D01*
X166099500Y-76306082D01*
X166099500Y-76453918D01*
X166099500Y-76453920D01*
X166099499Y-76453920D01*
X166128340Y-76598907D01*
X166128343Y-76598917D01*
X166184912Y-76735488D01*
X166184919Y-76735501D01*
X166267048Y-76858415D01*
X166267051Y-76858419D01*
X166345951Y-76937319D01*
X166379436Y-76998642D01*
X166374452Y-77068334D01*
X166345951Y-77112681D01*
X166287051Y-77171580D01*
X166287048Y-77171584D01*
X166204919Y-77294498D01*
X166204912Y-77294511D01*
X166148343Y-77431082D01*
X166148340Y-77431092D01*
X166119500Y-77576079D01*
X166119500Y-77576082D01*
X166119500Y-77723918D01*
X166119500Y-77723920D01*
X166119499Y-77723920D01*
X166148340Y-77868907D01*
X166148343Y-77868917D01*
X166204912Y-78005488D01*
X166204919Y-78005501D01*
X166287048Y-78128415D01*
X166287051Y-78128419D01*
X166391580Y-78232948D01*
X166391584Y-78232951D01*
X166514498Y-78315080D01*
X166514511Y-78315087D01*
X166651082Y-78371656D01*
X166651087Y-78371658D01*
X166651091Y-78371658D01*
X166651092Y-78371659D01*
X166796079Y-78400500D01*
X166796082Y-78400500D01*
X166943920Y-78400500D01*
X167041462Y-78381096D01*
X167088913Y-78371658D01*
X167225495Y-78315084D01*
X167225496Y-78315083D01*
X167231122Y-78312753D01*
X167231479Y-78313614D01*
X167283840Y-78300500D01*
X168250500Y-78300500D01*
X168317539Y-78320185D01*
X168363294Y-78372989D01*
X168374500Y-78424500D01*
X168374500Y-79417870D01*
X168374501Y-79417876D01*
X168380908Y-79477481D01*
X168393659Y-79511669D01*
X168398642Y-79581361D01*
X168393659Y-79598331D01*
X168380908Y-79632518D01*
X168374501Y-79692116D01*
X168374500Y-79692135D01*
X168374500Y-80687870D01*
X168374501Y-80687876D01*
X168380908Y-80747481D01*
X168393659Y-80781669D01*
X168398642Y-80851361D01*
X168393659Y-80868331D01*
X168380908Y-80902518D01*
X168374501Y-80962116D01*
X168374500Y-80962135D01*
X168374500Y-81957870D01*
X168374501Y-81957876D01*
X168380908Y-82017481D01*
X168393659Y-82051669D01*
X168398642Y-82121361D01*
X168393659Y-82138331D01*
X168380908Y-82172518D01*
X168374501Y-82232116D01*
X168374500Y-82232135D01*
X168374500Y-83227870D01*
X168374501Y-83227876D01*
X168380908Y-83287481D01*
X168393659Y-83321669D01*
X168398642Y-83391361D01*
X168393659Y-83408331D01*
X168380908Y-83442518D01*
X168374501Y-83502116D01*
X168374500Y-83502135D01*
X168374500Y-84497870D01*
X168374501Y-84497876D01*
X168380908Y-84557481D01*
X168393659Y-84591669D01*
X168398642Y-84661361D01*
X168393659Y-84678331D01*
X168380908Y-84712518D01*
X168375296Y-84764723D01*
X168374501Y-84772123D01*
X168374500Y-84772135D01*
X168374500Y-85767870D01*
X168374501Y-85767876D01*
X168380908Y-85827481D01*
X168393659Y-85861669D01*
X168398642Y-85931361D01*
X168393659Y-85948331D01*
X168380908Y-85982518D01*
X168374501Y-86042116D01*
X168374501Y-86042123D01*
X168374500Y-86042135D01*
X168374500Y-87037870D01*
X168374501Y-87037876D01*
X168380908Y-87097481D01*
X168393659Y-87131669D01*
X168398642Y-87201361D01*
X168393659Y-87218331D01*
X168380908Y-87252518D01*
X168375296Y-87304723D01*
X168374501Y-87312123D01*
X168374500Y-87312135D01*
X168374500Y-88307870D01*
X168374501Y-88307876D01*
X168380908Y-88367481D01*
X168393659Y-88401669D01*
X168398642Y-88471361D01*
X168393659Y-88488331D01*
X168380908Y-88522518D01*
X168374501Y-88582116D01*
X168374501Y-88582123D01*
X168374500Y-88582135D01*
X168374500Y-89577870D01*
X168374501Y-89577871D01*
X168380908Y-89637481D01*
X168393659Y-89671669D01*
X168398642Y-89741361D01*
X168393659Y-89758331D01*
X168380908Y-89792518D01*
X168374501Y-89852116D01*
X168374500Y-89852135D01*
X168374500Y-90847870D01*
X168374501Y-90847876D01*
X168380908Y-90907481D01*
X168393659Y-90941669D01*
X168398642Y-91011361D01*
X168393659Y-91028331D01*
X168380908Y-91062518D01*
X168374501Y-91122116D01*
X168374500Y-91122135D01*
X168374500Y-91495500D01*
X168354815Y-91562539D01*
X168302011Y-91608294D01*
X168250500Y-91619500D01*
X167362129Y-91619500D01*
X167362123Y-91619501D01*
X167302518Y-91625908D01*
X167268331Y-91638659D01*
X167198639Y-91643642D01*
X167181669Y-91638659D01*
X167147480Y-91625908D01*
X167147482Y-91625908D01*
X167087883Y-91619501D01*
X167087881Y-91619500D01*
X167087873Y-91619500D01*
X167087864Y-91619500D01*
X166092129Y-91619500D01*
X166092123Y-91619501D01*
X166032518Y-91625908D01*
X165998331Y-91638659D01*
X165928639Y-91643642D01*
X165911669Y-91638659D01*
X165877480Y-91625908D01*
X165877482Y-91625908D01*
X165817883Y-91619501D01*
X165817881Y-91619500D01*
X165817873Y-91619500D01*
X165817865Y-91619500D01*
X164824500Y-91619500D01*
X164757461Y-91599815D01*
X164711706Y-91547011D01*
X164700500Y-91495500D01*
X164700500Y-91010808D01*
X164709144Y-90981367D01*
X164715668Y-90951381D01*
X164719422Y-90946365D01*
X164720185Y-90943769D01*
X164736819Y-90923127D01*
X164903127Y-90756819D01*
X164964450Y-90723334D01*
X164990808Y-90720500D01*
X166436160Y-90720500D01*
X166488520Y-90733614D01*
X166488878Y-90732753D01*
X166494504Y-90735083D01*
X166494505Y-90735084D01*
X166631087Y-90791658D01*
X166631091Y-90791658D01*
X166631092Y-90791659D01*
X166776079Y-90820500D01*
X166776082Y-90820500D01*
X166923920Y-90820500D01*
X167025689Y-90800256D01*
X167068913Y-90791658D01*
X167205495Y-90735084D01*
X167328416Y-90652951D01*
X167432951Y-90548416D01*
X167515084Y-90425495D01*
X167571658Y-90288913D01*
X167600500Y-90143918D01*
X167600500Y-89996082D01*
X167600500Y-89996079D01*
X167571659Y-89851092D01*
X167571658Y-89851091D01*
X167571658Y-89851087D01*
X167571284Y-89850185D01*
X167515087Y-89714511D01*
X167515080Y-89714498D01*
X167432951Y-89591584D01*
X167432948Y-89591580D01*
X167328419Y-89487051D01*
X167328415Y-89487048D01*
X167205501Y-89404919D01*
X167205488Y-89404912D01*
X167068917Y-89348343D01*
X167068907Y-89348340D01*
X166923920Y-89319500D01*
X166923918Y-89319500D01*
X166776082Y-89319500D01*
X166776080Y-89319500D01*
X166631092Y-89348340D01*
X166631086Y-89348342D01*
X166488878Y-89407247D01*
X166488520Y-89406385D01*
X166436160Y-89419500D01*
X164605929Y-89419500D01*
X164483986Y-89443757D01*
X164483980Y-89443758D01*
X164480260Y-89444497D01*
X164480257Y-89444498D01*
X164361870Y-89493535D01*
X164255331Y-89564722D01*
X164255324Y-89564728D01*
X163642181Y-90177872D01*
X163580858Y-90211357D01*
X163511166Y-90206373D01*
X163455233Y-90164501D01*
X163430816Y-90099037D01*
X163430500Y-90090191D01*
X163430500Y-89433840D01*
X163443616Y-89381481D01*
X163442753Y-89381124D01*
X163501656Y-89238917D01*
X163501658Y-89238913D01*
X163515465Y-89169501D01*
X163530500Y-89093920D01*
X163530500Y-88946079D01*
X163501659Y-88801092D01*
X163501658Y-88801091D01*
X163501658Y-88801087D01*
X163472170Y-88729896D01*
X163445087Y-88664511D01*
X163445080Y-88664498D01*
X163362951Y-88541584D01*
X163362948Y-88541580D01*
X163258419Y-88437051D01*
X163258415Y-88437048D01*
X163135501Y-88354919D01*
X163135488Y-88354912D01*
X162998917Y-88298343D01*
X162998907Y-88298340D01*
X162853920Y-88269500D01*
X162853918Y-88269500D01*
X162706082Y-88269500D01*
X162706080Y-88269500D01*
X162561092Y-88298340D01*
X162561082Y-88298343D01*
X162424511Y-88354912D01*
X162424498Y-88354919D01*
X162353391Y-88402432D01*
X162343690Y-88405469D01*
X162336011Y-88412124D01*
X162310911Y-88415732D01*
X162286713Y-88423310D01*
X162276913Y-88420621D01*
X162266853Y-88422068D01*
X162243784Y-88411533D01*
X162219333Y-88404825D01*
X162212542Y-88397265D01*
X162203297Y-88393043D01*
X162189586Y-88371708D01*
X162172643Y-88352846D01*
X162170011Y-88341249D01*
X162165523Y-88334265D01*
X162160500Y-88299330D01*
X162160500Y-88153840D01*
X162173616Y-88101481D01*
X162172753Y-88101124D01*
X162231656Y-87958917D01*
X162231658Y-87958913D01*
X162242943Y-87902179D01*
X162260500Y-87813920D01*
X162260500Y-87666079D01*
X162231659Y-87521092D01*
X162231658Y-87521091D01*
X162231658Y-87521087D01*
X162202414Y-87450486D01*
X162175087Y-87384511D01*
X162175080Y-87384498D01*
X162092951Y-87261584D01*
X162092948Y-87261580D01*
X161988419Y-87157051D01*
X161988415Y-87157048D01*
X161865501Y-87074919D01*
X161865488Y-87074912D01*
X161728917Y-87018343D01*
X161728907Y-87018340D01*
X161583920Y-86989500D01*
X161583918Y-86989500D01*
X161436082Y-86989500D01*
X161436080Y-86989500D01*
X161291092Y-87018340D01*
X161291082Y-87018343D01*
X161154511Y-87074912D01*
X161154498Y-87074919D01*
X161083391Y-87122432D01*
X161073690Y-87125469D01*
X161066011Y-87132124D01*
X161040911Y-87135732D01*
X161016713Y-87143310D01*
X161006913Y-87140621D01*
X160996853Y-87142068D01*
X160973784Y-87131533D01*
X160949333Y-87124825D01*
X160942542Y-87117265D01*
X160933297Y-87113043D01*
X160919586Y-87091708D01*
X160902643Y-87072846D01*
X160900011Y-87061249D01*
X160895523Y-87054265D01*
X160890500Y-87019330D01*
X160890500Y-86953840D01*
X160903616Y-86901481D01*
X160902753Y-86901124D01*
X160955056Y-86774851D01*
X160961658Y-86758913D01*
X160990500Y-86613918D01*
X160990500Y-86466082D01*
X160990500Y-86466079D01*
X160961659Y-86321092D01*
X160961658Y-86321091D01*
X160961658Y-86321087D01*
X160932420Y-86250500D01*
X160905087Y-86184511D01*
X160905080Y-86184498D01*
X160822951Y-86061584D01*
X160822948Y-86061580D01*
X160718419Y-85957051D01*
X160718415Y-85957048D01*
X160595501Y-85874919D01*
X160595488Y-85874912D01*
X160458917Y-85818343D01*
X160458907Y-85818340D01*
X160313920Y-85789500D01*
X160313918Y-85789500D01*
X160166082Y-85789500D01*
X160166080Y-85789500D01*
X160021092Y-85818340D01*
X160021082Y-85818343D01*
X159884511Y-85874912D01*
X159884498Y-85874919D01*
X159813391Y-85922432D01*
X159803690Y-85925469D01*
X159796011Y-85932124D01*
X159770911Y-85935732D01*
X159746713Y-85943310D01*
X159736913Y-85940621D01*
X159726853Y-85942068D01*
X159703784Y-85931533D01*
X159679333Y-85924825D01*
X159672542Y-85917265D01*
X159663297Y-85913043D01*
X159649586Y-85891708D01*
X159632643Y-85872846D01*
X159630011Y-85861249D01*
X159625523Y-85854265D01*
X159620500Y-85819330D01*
X159620500Y-85673840D01*
X159633616Y-85621481D01*
X159632753Y-85621124D01*
X159691656Y-85478917D01*
X159691658Y-85478913D01*
X159704040Y-85416666D01*
X159720500Y-85333920D01*
X159720500Y-85186079D01*
X159691659Y-85041092D01*
X159691658Y-85041091D01*
X159691658Y-85041087D01*
X159688231Y-85032814D01*
X159635087Y-84904511D01*
X159635080Y-84904498D01*
X159552951Y-84781584D01*
X159552948Y-84781580D01*
X159448419Y-84677051D01*
X159448415Y-84677048D01*
X159325501Y-84594919D01*
X159325488Y-84594912D01*
X159188917Y-84538343D01*
X159188907Y-84538340D01*
X159043920Y-84509500D01*
X159043918Y-84509500D01*
X158896082Y-84509500D01*
X158896080Y-84509500D01*
X158751092Y-84538340D01*
X158751082Y-84538343D01*
X158614511Y-84594912D01*
X158614498Y-84594919D01*
X158543391Y-84642432D01*
X158533690Y-84645469D01*
X158526011Y-84652124D01*
X158500911Y-84655732D01*
X158476713Y-84663310D01*
X158466913Y-84660621D01*
X158456853Y-84662068D01*
X158433784Y-84651533D01*
X158409333Y-84644825D01*
X158402542Y-84637265D01*
X158393297Y-84633043D01*
X158379586Y-84611708D01*
X158362643Y-84592846D01*
X158360011Y-84581249D01*
X158355523Y-84574265D01*
X158350500Y-84539330D01*
X158350500Y-84443840D01*
X158363616Y-84391481D01*
X158362753Y-84391124D01*
X158421656Y-84248917D01*
X158421658Y-84248913D01*
X158440239Y-84155501D01*
X158450500Y-84103920D01*
X158450500Y-83956079D01*
X158421659Y-83811092D01*
X158421658Y-83811091D01*
X158421658Y-83811087D01*
X158413610Y-83791658D01*
X158365087Y-83674511D01*
X158365080Y-83674498D01*
X158282951Y-83551584D01*
X158282948Y-83551580D01*
X158178419Y-83447051D01*
X158178415Y-83447048D01*
X158055501Y-83364919D01*
X158055488Y-83364912D01*
X157918917Y-83308343D01*
X157918907Y-83308340D01*
X157773920Y-83279500D01*
X157773918Y-83279500D01*
X157626082Y-83279500D01*
X157626080Y-83279500D01*
X157481092Y-83308340D01*
X157481082Y-83308343D01*
X157344511Y-83364912D01*
X157344498Y-83364919D01*
X157221584Y-83447048D01*
X157221580Y-83447051D01*
X157117051Y-83551580D01*
X157117048Y-83551584D01*
X157034914Y-83674506D01*
X157033859Y-83676481D01*
X157033033Y-83677321D01*
X157031531Y-83679570D01*
X157031104Y-83679285D01*
X156984898Y-83726326D01*
X156916761Y-83741788D01*
X156851080Y-83717958D01*
X156808711Y-83662401D01*
X156800500Y-83618030D01*
X156800500Y-78104500D01*
X156820185Y-78037461D01*
X156872989Y-77991706D01*
X156924500Y-77980500D01*
X162597770Y-77980500D01*
X162664809Y-78000185D01*
X162685451Y-78016819D01*
X163453181Y-78784548D01*
X163486666Y-78845871D01*
X163489500Y-78872229D01*
X163489500Y-79834739D01*
X163480061Y-79882192D01*
X163422184Y-80021917D01*
X163422182Y-80021925D01*
X163389500Y-80186228D01*
X163389500Y-80353771D01*
X163422182Y-80518074D01*
X163422184Y-80518082D01*
X163486295Y-80672860D01*
X163579373Y-80812162D01*
X163697837Y-80930626D01*
X163744994Y-80962135D01*
X163837137Y-81023703D01*
X163991918Y-81087816D01*
X164156228Y-81120499D01*
X164156232Y-81120500D01*
X164156233Y-81120500D01*
X164323768Y-81120500D01*
X164323769Y-81120499D01*
X164488082Y-81087816D01*
X164642863Y-81023703D01*
X164782162Y-80930626D01*
X164900626Y-80812162D01*
X164993703Y-80672863D01*
X165057816Y-80518082D01*
X165090500Y-80353767D01*
X165090500Y-80186233D01*
X165057816Y-80021918D01*
X164999938Y-79882191D01*
X164990500Y-79834739D01*
X164990500Y-78436079D01*
X164961659Y-78291092D01*
X164961658Y-78291088D01*
X164961658Y-78291087D01*
X164957203Y-78280331D01*
X164905087Y-78154511D01*
X164905080Y-78154498D01*
X164822952Y-78031585D01*
X164771867Y-77980500D01*
X164718416Y-77927049D01*
X164406365Y-77614998D01*
X163438421Y-76647052D01*
X163438414Y-76647046D01*
X163364729Y-76597812D01*
X163364729Y-76597813D01*
X163315491Y-76564913D01*
X163178917Y-76508343D01*
X163178907Y-76508340D01*
X163033920Y-76479500D01*
X163033918Y-76479500D01*
X156412229Y-76479500D01*
X156345190Y-76459815D01*
X156324548Y-76443181D01*
X155678421Y-75797052D01*
X155678420Y-75797051D01*
X155641233Y-75772204D01*
X155585427Y-75734916D01*
X155555495Y-75714916D01*
X155555488Y-75714912D01*
X155418917Y-75658343D01*
X155418907Y-75658340D01*
X155273920Y-75629500D01*
X155273918Y-75629500D01*
X153337320Y-75629500D01*
X153270281Y-75609815D01*
X153238052Y-75579809D01*
X153232548Y-75572457D01*
X153232546Y-75572454D01*
X153232542Y-75572451D01*
X153117335Y-75486206D01*
X153117328Y-75486202D01*
X152982482Y-75435908D01*
X152982483Y-75435908D01*
X152922883Y-75429501D01*
X152922881Y-75429500D01*
X152922873Y-75429500D01*
X152922864Y-75429500D01*
X151327129Y-75429500D01*
X151327123Y-75429501D01*
X151267516Y-75435908D01*
X151132671Y-75486202D01*
X151132664Y-75486206D01*
X151017457Y-75572451D01*
X151017449Y-75572458D01*
X150996975Y-75599810D01*
X150941042Y-75641682D01*
X150897708Y-75649500D01*
X150421058Y-75649500D01*
X150354019Y-75629815D01*
X150315519Y-75590597D01*
X150304331Y-75572458D01*
X150232712Y-75456344D01*
X150108656Y-75332288D01*
X149959334Y-75240186D01*
X149792797Y-75185001D01*
X149792795Y-75185000D01*
X149690010Y-75174500D01*
X149089998Y-75174500D01*
X149089980Y-75174501D01*
X148987203Y-75185000D01*
X148987200Y-75185001D01*
X148820668Y-75240185D01*
X148820663Y-75240187D01*
X148671342Y-75332289D01*
X148547289Y-75456342D01*
X148455187Y-75605663D01*
X148455185Y-75605668D01*
X148428013Y-75687669D01*
X148400001Y-75772203D01*
X148400001Y-75772204D01*
X148400000Y-75772204D01*
X148389500Y-75874983D01*
X148389500Y-76925001D01*
X148389501Y-76925019D01*
X148400000Y-77027796D01*
X148400001Y-77027799D01*
X148455185Y-77194331D01*
X148455187Y-77194336D01*
X148465568Y-77211166D01*
X148547288Y-77343656D01*
X148671344Y-77467712D01*
X148820666Y-77559814D01*
X148987203Y-77614999D01*
X149089991Y-77625500D01*
X149690008Y-77625499D01*
X149690016Y-77625498D01*
X149690019Y-77625498D01*
X149746302Y-77619748D01*
X149792797Y-77614999D01*
X149959334Y-77559814D01*
X150108656Y-77467712D01*
X150232712Y-77343656D01*
X150315519Y-77209402D01*
X150367467Y-77162679D01*
X150421058Y-77150500D01*
X150750500Y-77150500D01*
X150817539Y-77170185D01*
X150863294Y-77222989D01*
X150874500Y-77274500D01*
X150874501Y-78145500D01*
X150854817Y-78212539D01*
X150802013Y-78258294D01*
X150750501Y-78269500D01*
X142015929Y-78269500D01*
X141890261Y-78294497D01*
X141890251Y-78294500D01*
X141841220Y-78314810D01*
X141771881Y-78343530D01*
X141771863Y-78343540D01*
X141665332Y-78414721D01*
X141665325Y-78414727D01*
X137236873Y-82843181D01*
X137175550Y-82876666D01*
X137149192Y-82879500D01*
X136194618Y-82879500D01*
X136127579Y-82859815D01*
X136093900Y-82825408D01*
X136092915Y-82826125D01*
X135965109Y-82650213D01*
X135814786Y-82499890D01*
X135642820Y-82374951D01*
X135642115Y-82374591D01*
X135634054Y-82370485D01*
X135583259Y-82322512D01*
X135566463Y-82254692D01*
X135588999Y-82188556D01*
X135634054Y-82149515D01*
X135642816Y-82145051D01*
X135711706Y-82095000D01*
X135814786Y-82020109D01*
X135814788Y-82020106D01*
X135814792Y-82020104D01*
X135965104Y-81869792D01*
X135965106Y-81869788D01*
X135965109Y-81869786D01*
X136090048Y-81697820D01*
X136090047Y-81697820D01*
X136090051Y-81697816D01*
X136186557Y-81508412D01*
X136252246Y-81306243D01*
X136285500Y-81096287D01*
X136285500Y-80883713D01*
X136252246Y-80673757D01*
X136186557Y-80471588D01*
X136090051Y-80282184D01*
X136090049Y-80282181D01*
X136090048Y-80282179D01*
X135965109Y-80110213D01*
X135851569Y-79996673D01*
X135818084Y-79935350D01*
X135823068Y-79865658D01*
X135864940Y-79809725D01*
X135895915Y-79792810D01*
X136027331Y-79743796D01*
X136142546Y-79657546D01*
X136228796Y-79542331D01*
X136279091Y-79407483D01*
X136285500Y-79347873D01*
X136285499Y-77552128D01*
X136279091Y-77492517D01*
X136269839Y-77467712D01*
X136228797Y-77357671D01*
X136228793Y-77357664D01*
X136142547Y-77242455D01*
X136142544Y-77242452D01*
X136027335Y-77156206D01*
X136027328Y-77156202D01*
X135892482Y-77105908D01*
X135892483Y-77105908D01*
X135832883Y-77099501D01*
X135832881Y-77099500D01*
X135832873Y-77099500D01*
X135832864Y-77099500D01*
X134037129Y-77099500D01*
X134037123Y-77099501D01*
X133977516Y-77105908D01*
X133842671Y-77156202D01*
X133842664Y-77156206D01*
X133727455Y-77242452D01*
X133727452Y-77242455D01*
X133641206Y-77357664D01*
X133641202Y-77357671D01*
X133590908Y-77492517D01*
X133584501Y-77552116D01*
X133584501Y-77552123D01*
X133584500Y-77552135D01*
X133584500Y-79347870D01*
X133584501Y-79347876D01*
X133590908Y-79407483D01*
X133641202Y-79542328D01*
X133641206Y-79542335D01*
X133727452Y-79657544D01*
X133727455Y-79657547D01*
X133842664Y-79743793D01*
X133842671Y-79743797D01*
X133974082Y-79792810D01*
X134030016Y-79834681D01*
X134054433Y-79900145D01*
X134039582Y-79968418D01*
X134018431Y-79996673D01*
X133904889Y-80110215D01*
X133779951Y-80282179D01*
X133683444Y-80471585D01*
X133617753Y-80673760D01*
X133593799Y-80825000D01*
X133584500Y-80883713D01*
X133584500Y-81096287D01*
X133617754Y-81306243D01*
X133625439Y-81329896D01*
X133683444Y-81508414D01*
X133779951Y-81697820D01*
X133904890Y-81869786D01*
X134055213Y-82020109D01*
X134227182Y-82145050D01*
X134235946Y-82149516D01*
X134286742Y-82197491D01*
X134303536Y-82265312D01*
X134280998Y-82331447D01*
X134235946Y-82370484D01*
X134227182Y-82374949D01*
X134055213Y-82499890D01*
X133904890Y-82650213D01*
X133779951Y-82822179D01*
X133683444Y-83011585D01*
X133617753Y-83213760D01*
X133584500Y-83423713D01*
X133584500Y-83636286D01*
X133613676Y-83820500D01*
X133617754Y-83846243D01*
X133679175Y-84035277D01*
X133683444Y-84048414D01*
X133779951Y-84237820D01*
X133904890Y-84409786D01*
X134055213Y-84560109D01*
X134227182Y-84685050D01*
X134235946Y-84689516D01*
X134286742Y-84737491D01*
X134303536Y-84805312D01*
X134280998Y-84871447D01*
X134235946Y-84910484D01*
X134227182Y-84914949D01*
X134055213Y-85039890D01*
X133904890Y-85190213D01*
X133779951Y-85362179D01*
X133683444Y-85551585D01*
X133617753Y-85753760D01*
X133586936Y-85948331D01*
X133584500Y-85963713D01*
X133584500Y-86176287D01*
X133617754Y-86386243D01*
X133681383Y-86582073D01*
X133683444Y-86588414D01*
X133779951Y-86777820D01*
X133904890Y-86949786D01*
X134055213Y-87100109D01*
X134227182Y-87225050D01*
X134235946Y-87229516D01*
X134286742Y-87277491D01*
X134303536Y-87345312D01*
X134280998Y-87411447D01*
X134235946Y-87450484D01*
X134227182Y-87454949D01*
X134055213Y-87579890D01*
X133904890Y-87730213D01*
X133779951Y-87902179D01*
X133683444Y-88091585D01*
X133617753Y-88293760D01*
X133595058Y-88437051D01*
X133584500Y-88503713D01*
X133584500Y-88716287D01*
X133594534Y-88779644D01*
X133610463Y-88880213D01*
X133617754Y-88926243D01*
X133680672Y-89119885D01*
X133683444Y-89128414D01*
X133779951Y-89317820D01*
X133904890Y-89489786D01*
X134055213Y-89640109D01*
X134227182Y-89765050D01*
X134235946Y-89769516D01*
X134286742Y-89817491D01*
X134303536Y-89885312D01*
X134280998Y-89951447D01*
X134235946Y-89990484D01*
X134227182Y-89994949D01*
X134055213Y-90119890D01*
X133904890Y-90270213D01*
X133779951Y-90442179D01*
X133683444Y-90631585D01*
X133617753Y-90833760D01*
X133596572Y-90967491D01*
X133584500Y-91043713D01*
X133584500Y-91256287D01*
X133591127Y-91298127D01*
X133610463Y-91420213D01*
X133617754Y-91466243D01*
X133680273Y-91658657D01*
X133683444Y-91668414D01*
X133779951Y-91857820D01*
X133904890Y-92029786D01*
X134055213Y-92180109D01*
X134227179Y-92305048D01*
X134227181Y-92305049D01*
X134227184Y-92305051D01*
X134416588Y-92401557D01*
X134618757Y-92467246D01*
X134828713Y-92500500D01*
X134828714Y-92500500D01*
X135041286Y-92500500D01*
X135041287Y-92500500D01*
X135251243Y-92467246D01*
X135453412Y-92401557D01*
X135642816Y-92305051D01*
X135796061Y-92193713D01*
X135814786Y-92180109D01*
X135814788Y-92180106D01*
X135814792Y-92180104D01*
X135965104Y-92029792D01*
X135965106Y-92029788D01*
X135965109Y-92029786D01*
X136092915Y-91853875D01*
X136094259Y-91854851D01*
X136140705Y-91812834D01*
X136194618Y-91800500D01*
X136674071Y-91800500D01*
X136769143Y-91781588D01*
X136799744Y-91775501D01*
X136918127Y-91726465D01*
X136920307Y-91725008D01*
X136922516Y-91723533D01*
X137019610Y-91658657D01*
X137024669Y-91655277D01*
X138867819Y-89812127D01*
X138929142Y-89778642D01*
X138998834Y-89783626D01*
X139054767Y-89825498D01*
X139079184Y-89890962D01*
X139079500Y-89899808D01*
X139079500Y-108949192D01*
X139059815Y-109016231D01*
X139043181Y-109036873D01*
X137946873Y-110133181D01*
X137885550Y-110166666D01*
X137859192Y-110169500D01*
X136369618Y-110169500D01*
X136302579Y-110149815D01*
X136268900Y-110115408D01*
X136267915Y-110116125D01*
X136140109Y-109940213D01*
X135989786Y-109789890D01*
X135817820Y-109664951D01*
X135817115Y-109664591D01*
X135809054Y-109660485D01*
X135758259Y-109612512D01*
X135741463Y-109544692D01*
X135763999Y-109478556D01*
X135809054Y-109439515D01*
X135817816Y-109435051D01*
X135900851Y-109374723D01*
X135989786Y-109310109D01*
X135989788Y-109310106D01*
X135989792Y-109310104D01*
X136140104Y-109159792D01*
X136140106Y-109159788D01*
X136140109Y-109159786D01*
X136265048Y-108987820D01*
X136265047Y-108987820D01*
X136265051Y-108987816D01*
X136361557Y-108798412D01*
X136427246Y-108596243D01*
X136460500Y-108386287D01*
X136460500Y-108173713D01*
X136427246Y-107963757D01*
X136361557Y-107761588D01*
X136265051Y-107572184D01*
X136265049Y-107572181D01*
X136265048Y-107572179D01*
X136140109Y-107400213D01*
X135989786Y-107249890D01*
X135817820Y-107124951D01*
X135817115Y-107124591D01*
X135809054Y-107120485D01*
X135758259Y-107072512D01*
X135741463Y-107004692D01*
X135763999Y-106938556D01*
X135809054Y-106899515D01*
X135817816Y-106895051D01*
X135890845Y-106841993D01*
X135989786Y-106770109D01*
X135989788Y-106770106D01*
X135989792Y-106770104D01*
X136140104Y-106619792D01*
X136140106Y-106619788D01*
X136140109Y-106619786D01*
X136265048Y-106447820D01*
X136265047Y-106447820D01*
X136265051Y-106447816D01*
X136361557Y-106258412D01*
X136427246Y-106056243D01*
X136460500Y-105846287D01*
X136460500Y-105633713D01*
X136427246Y-105423757D01*
X136361557Y-105221588D01*
X136265051Y-105032184D01*
X136265049Y-105032181D01*
X136265048Y-105032179D01*
X136140109Y-104860213D01*
X135989786Y-104709890D01*
X135817820Y-104584951D01*
X135817115Y-104584591D01*
X135809054Y-104580485D01*
X135758259Y-104532512D01*
X135741463Y-104464692D01*
X135763999Y-104398556D01*
X135809054Y-104359515D01*
X135817816Y-104355051D01*
X135893577Y-104300008D01*
X135989786Y-104230109D01*
X135989788Y-104230106D01*
X135989792Y-104230104D01*
X136140104Y-104079792D01*
X136140106Y-104079788D01*
X136140109Y-104079786D01*
X136265048Y-103907820D01*
X136265047Y-103907820D01*
X136265051Y-103907816D01*
X136361557Y-103718412D01*
X136427246Y-103516243D01*
X136460500Y-103306287D01*
X136460500Y-103093713D01*
X136427246Y-102883757D01*
X136361557Y-102681588D01*
X136265051Y-102492184D01*
X136265049Y-102492181D01*
X136265048Y-102492179D01*
X136140109Y-102320213D01*
X135989786Y-102169890D01*
X135817820Y-102044951D01*
X135817115Y-102044591D01*
X135809054Y-102040485D01*
X135758259Y-101992512D01*
X135741463Y-101924692D01*
X135763999Y-101858556D01*
X135809054Y-101819515D01*
X135817816Y-101815051D01*
X135912731Y-101746092D01*
X135989786Y-101690109D01*
X135989788Y-101690106D01*
X135989792Y-101690104D01*
X136140104Y-101539792D01*
X136140106Y-101539788D01*
X136140109Y-101539786D01*
X136265048Y-101367820D01*
X136265047Y-101367820D01*
X136265051Y-101367816D01*
X136361557Y-101178412D01*
X136427246Y-100976243D01*
X136460500Y-100766287D01*
X136460500Y-100553713D01*
X136427246Y-100343757D01*
X136361557Y-100141588D01*
X136265051Y-99952184D01*
X136265049Y-99952181D01*
X136265048Y-99952179D01*
X136140109Y-99780213D01*
X136026569Y-99666673D01*
X135993084Y-99605350D01*
X135998068Y-99535658D01*
X136039940Y-99479725D01*
X136070915Y-99462810D01*
X136202331Y-99413796D01*
X136317546Y-99327546D01*
X136403796Y-99212331D01*
X136454091Y-99077483D01*
X136460500Y-99017873D01*
X136460499Y-97222128D01*
X136454091Y-97162517D01*
X136403796Y-97027669D01*
X136403795Y-97027668D01*
X136403793Y-97027664D01*
X136317547Y-96912455D01*
X136317544Y-96912452D01*
X136202335Y-96826206D01*
X136202328Y-96826202D01*
X136067482Y-96775908D01*
X136067483Y-96775908D01*
X136007883Y-96769501D01*
X136007881Y-96769500D01*
X136007873Y-96769500D01*
X136007864Y-96769500D01*
X134212129Y-96769500D01*
X134212123Y-96769501D01*
X134152516Y-96775908D01*
X134017671Y-96826202D01*
X134017664Y-96826206D01*
X133902455Y-96912452D01*
X133902452Y-96912455D01*
X133816206Y-97027664D01*
X133816202Y-97027671D01*
X133765908Y-97162517D01*
X133759501Y-97222116D01*
X133759501Y-97222123D01*
X133759500Y-97222135D01*
X133759500Y-99017870D01*
X133759501Y-99017876D01*
X133765908Y-99077483D01*
X133816202Y-99212328D01*
X133816206Y-99212335D01*
X133902452Y-99327544D01*
X133902455Y-99327547D01*
X134017664Y-99413793D01*
X134017671Y-99413797D01*
X134149082Y-99462810D01*
X134205016Y-99504681D01*
X134229433Y-99570145D01*
X134214582Y-99638418D01*
X134193431Y-99666673D01*
X134079889Y-99780215D01*
X133954951Y-99952179D01*
X133858444Y-100141585D01*
X133792753Y-100343760D01*
X133759500Y-100553713D01*
X133759500Y-100766286D01*
X133786010Y-100933668D01*
X133792754Y-100976243D01*
X133850243Y-101153176D01*
X133858444Y-101178414D01*
X133954951Y-101367820D01*
X134079890Y-101539786D01*
X134230213Y-101690109D01*
X134402182Y-101815050D01*
X134410946Y-101819516D01*
X134461742Y-101867491D01*
X134478536Y-101935312D01*
X134455998Y-102001447D01*
X134410946Y-102040484D01*
X134402182Y-102044949D01*
X134230213Y-102169890D01*
X134079890Y-102320213D01*
X133954951Y-102492179D01*
X133858444Y-102681585D01*
X133792753Y-102883760D01*
X133759500Y-103093713D01*
X133759500Y-103306286D01*
X133775240Y-103405668D01*
X133792754Y-103516243D01*
X133854082Y-103704991D01*
X133858444Y-103718414D01*
X133954951Y-103907820D01*
X134079890Y-104079786D01*
X134230213Y-104230109D01*
X134402182Y-104355050D01*
X134410946Y-104359516D01*
X134461742Y-104407491D01*
X134478536Y-104475312D01*
X134455998Y-104541447D01*
X134410946Y-104580484D01*
X134402182Y-104584949D01*
X134230213Y-104709890D01*
X134079890Y-104860213D01*
X133954951Y-105032179D01*
X133858444Y-105221585D01*
X133792753Y-105423760D01*
X133778966Y-105510808D01*
X133759500Y-105633713D01*
X133759500Y-105846287D01*
X133767739Y-105898306D01*
X133792127Y-106052289D01*
X133792754Y-106056243D01*
X133851480Y-106236983D01*
X133858444Y-106258414D01*
X133954951Y-106447820D01*
X134079890Y-106619786D01*
X134230213Y-106770109D01*
X134402182Y-106895050D01*
X134410946Y-106899516D01*
X134461742Y-106947491D01*
X134478536Y-107015312D01*
X134455998Y-107081447D01*
X134410946Y-107120484D01*
X134402182Y-107124949D01*
X134230213Y-107249890D01*
X134079890Y-107400213D01*
X133954951Y-107572179D01*
X133858444Y-107761585D01*
X133792753Y-107963760D01*
X133763151Y-108150663D01*
X133759500Y-108173713D01*
X133759500Y-108386287D01*
X133764837Y-108419983D01*
X133787610Y-108563770D01*
X133792754Y-108596243D01*
X133810692Y-108651451D01*
X133858444Y-108798414D01*
X133954951Y-108987820D01*
X134079890Y-109159786D01*
X134230213Y-109310109D01*
X134402182Y-109435050D01*
X134410946Y-109439516D01*
X134461742Y-109487491D01*
X134478536Y-109555312D01*
X134455998Y-109621447D01*
X134410946Y-109660484D01*
X134402182Y-109664949D01*
X134230213Y-109789890D01*
X134079890Y-109940213D01*
X133954951Y-110112179D01*
X133858444Y-110301585D01*
X133792753Y-110503760D01*
X133759500Y-110713713D01*
X133759500Y-110926286D01*
X133786064Y-111094008D01*
X133792754Y-111136243D01*
X133854175Y-111325277D01*
X133858444Y-111338414D01*
X133954951Y-111527820D01*
X134079890Y-111699786D01*
X134230213Y-111850109D01*
X134402182Y-111975050D01*
X134410946Y-111979516D01*
X134461742Y-112027491D01*
X134478536Y-112095312D01*
X134455998Y-112161447D01*
X134410946Y-112200484D01*
X134402182Y-112204949D01*
X134230213Y-112329890D01*
X134079890Y-112480213D01*
X133954951Y-112652179D01*
X133858444Y-112841585D01*
X133792753Y-113043760D01*
X133772680Y-113170500D01*
X133759500Y-113253713D01*
X133759500Y-113466287D01*
X133792754Y-113676243D01*
X133854175Y-113865277D01*
X133858444Y-113878414D01*
X133954951Y-114067820D01*
X134079890Y-114239786D01*
X134230213Y-114390109D01*
X134402182Y-114515050D01*
X134410946Y-114519516D01*
X134461742Y-114567491D01*
X134478536Y-114635312D01*
X134455998Y-114701447D01*
X134410946Y-114740484D01*
X134402182Y-114744949D01*
X134230213Y-114869890D01*
X134079890Y-115020213D01*
X133954951Y-115192179D01*
X133858444Y-115381585D01*
X133792753Y-115583760D01*
X133772231Y-115713334D01*
X133759500Y-115793713D01*
X133759500Y-116006287D01*
X133792754Y-116216243D01*
X133854175Y-116405277D01*
X133858444Y-116418414D01*
X133954951Y-116607820D01*
X134079890Y-116779786D01*
X134230213Y-116930109D01*
X134402182Y-117055050D01*
X134410946Y-117059516D01*
X134461742Y-117107491D01*
X134478536Y-117175312D01*
X134455998Y-117241447D01*
X134410946Y-117280484D01*
X134402182Y-117284949D01*
X134230213Y-117409890D01*
X134079890Y-117560213D01*
X133954951Y-117732179D01*
X133858444Y-117921585D01*
X133792753Y-118123760D01*
X133787634Y-118156082D01*
X133759500Y-118333713D01*
X133759500Y-118546287D01*
X133761236Y-118557247D01*
X133790431Y-118741580D01*
X133792754Y-118756243D01*
X133856248Y-118951658D01*
X133858444Y-118958414D01*
X133954951Y-119147820D01*
X134079890Y-119319786D01*
X134230213Y-119470109D01*
X134402179Y-119595048D01*
X134402181Y-119595049D01*
X134402184Y-119595051D01*
X134591588Y-119691557D01*
X134793757Y-119757246D01*
X135003713Y-119790500D01*
X135003714Y-119790500D01*
X135216286Y-119790500D01*
X135216287Y-119790500D01*
X135426243Y-119757246D01*
X135628412Y-119691557D01*
X135817816Y-119595051D01*
X135880512Y-119549500D01*
X135989786Y-119470109D01*
X135989788Y-119470106D01*
X135989792Y-119470104D01*
X136140104Y-119319792D01*
X136140106Y-119319788D01*
X136140109Y-119319786D01*
X136267915Y-119143875D01*
X136269259Y-119144851D01*
X136315705Y-119102834D01*
X136369618Y-119090500D01*
X139424071Y-119090500D01*
X139508615Y-119073682D01*
X139549744Y-119065501D01*
X139668127Y-119016465D01*
X139691142Y-119001087D01*
X139774669Y-118945277D01*
X144055277Y-114664669D01*
X144126465Y-114558127D01*
X144156148Y-114486465D01*
X144175501Y-114439744D01*
X144185375Y-114390104D01*
X144200500Y-114314071D01*
X144200500Y-91940808D01*
X144220185Y-91873769D01*
X144236819Y-91853127D01*
X145289690Y-90800256D01*
X146356633Y-89733312D01*
X146417954Y-89699829D01*
X146487646Y-89704813D01*
X146543579Y-89746685D01*
X146567996Y-89812149D01*
X146553144Y-89880422D01*
X146549851Y-89886091D01*
X146497690Y-89970659D01*
X146497685Y-89970668D01*
X146489265Y-89996079D01*
X146442501Y-90137203D01*
X146442501Y-90137204D01*
X146442500Y-90137204D01*
X146432000Y-90239983D01*
X146432000Y-91240001D01*
X146432001Y-91240019D01*
X146442500Y-91342796D01*
X146442501Y-91342799D01*
X146468154Y-91420213D01*
X146497686Y-91509334D01*
X146587704Y-91655278D01*
X146589789Y-91658657D01*
X146658181Y-91727049D01*
X146691666Y-91788372D01*
X146694500Y-91814730D01*
X146694500Y-93447770D01*
X146674815Y-93514809D01*
X146658181Y-93535451D01*
X146582289Y-93611342D01*
X146490187Y-93760663D01*
X146490186Y-93760666D01*
X146435001Y-93927203D01*
X146435001Y-93927204D01*
X146435000Y-93927204D01*
X146424500Y-94029983D01*
X146424500Y-95030001D01*
X146424501Y-95030019D01*
X146435000Y-95132796D01*
X146435001Y-95132799D01*
X146474387Y-95251656D01*
X146490186Y-95299334D01*
X146577764Y-95441322D01*
X146582289Y-95448657D01*
X146623310Y-95489678D01*
X146656795Y-95551001D01*
X146659629Y-95577359D01*
X146659629Y-108314047D01*
X146659629Y-108314049D01*
X146659628Y-108314049D01*
X146688469Y-108459036D01*
X146688472Y-108459046D01*
X146745042Y-108595618D01*
X146745043Y-108595621D01*
X146745426Y-108596193D01*
X146745444Y-108596252D01*
X146745459Y-108596243D01*
X146786377Y-108657483D01*
X146827180Y-108718549D01*
X146827181Y-108718550D01*
X148267049Y-110158416D01*
X148354793Y-110246160D01*
X148371585Y-110262952D01*
X148494498Y-110345080D01*
X148494511Y-110345087D01*
X148594871Y-110386657D01*
X148631087Y-110401658D01*
X148631091Y-110401658D01*
X148631092Y-110401659D01*
X148776079Y-110430500D01*
X148776082Y-110430500D01*
X148776083Y-110430500D01*
X148923917Y-110430500D01*
X148970500Y-110430500D01*
X149037539Y-110450185D01*
X149083294Y-110502989D01*
X149094500Y-110554500D01*
X149094500Y-114055200D01*
X149076039Y-114120296D01*
X149020302Y-114210659D01*
X149020298Y-114210668D01*
X148992462Y-114294670D01*
X148965114Y-114377203D01*
X148965114Y-114377204D01*
X148965113Y-114377204D01*
X148954613Y-114479983D01*
X148954613Y-115680001D01*
X148954614Y-115680018D01*
X148965113Y-115782796D01*
X148965114Y-115782799D01*
X148987828Y-115851344D01*
X149020299Y-115949334D01*
X149076039Y-116039703D01*
X149094500Y-116104799D01*
X149094500Y-120870500D01*
X149074815Y-120937539D01*
X149022011Y-120983294D01*
X148970500Y-120994500D01*
X147911388Y-120994500D01*
X147858156Y-121000653D01*
X147796046Y-121007833D01*
X147740969Y-121020740D01*
X147740951Y-121020745D01*
X147708125Y-121032555D01*
X147696077Y-121036210D01*
X147595053Y-121061334D01*
X147565128Y-121064999D01*
X146254873Y-121064999D01*
X146224948Y-121061334D01*
X146168982Y-121047416D01*
X146168977Y-121047415D01*
X146168976Y-121047415D01*
X146054442Y-121032528D01*
X146054439Y-121032527D01*
X146054432Y-121032527D01*
X145998175Y-121031696D01*
X145998155Y-121031697D01*
X145883248Y-121043192D01*
X145748438Y-121093473D01*
X145748431Y-121093476D01*
X145689072Y-121125888D01*
X145687598Y-121126658D01*
X145687115Y-121126956D01*
X145571933Y-121213181D01*
X145571921Y-121213192D01*
X145178885Y-121606229D01*
X145178854Y-121606261D01*
X145142696Y-121646517D01*
X145126084Y-121667132D01*
X145126058Y-121667166D01*
X145094432Y-121711025D01*
X145094431Y-121711027D01*
X145034664Y-121841895D01*
X145034662Y-121841902D01*
X145014977Y-121908941D01*
X145014976Y-121908945D01*
X144998243Y-122025331D01*
X144994500Y-122051362D01*
X144994500Y-123168640D01*
X144997397Y-123222688D01*
X144997397Y-123222689D01*
X145000229Y-123249022D01*
X145000232Y-123249049D01*
X145009860Y-123308461D01*
X145007646Y-123308819D01*
X145006031Y-123368634D01*
X144966683Y-123426371D01*
X144902367Y-123453670D01*
X144888040Y-123454500D01*
X141311360Y-123454500D01*
X141257311Y-123457397D01*
X141257310Y-123457397D01*
X141230977Y-123460229D01*
X141230950Y-123460232D01*
X141177554Y-123468885D01*
X141177552Y-123468885D01*
X141042747Y-123519166D01*
X140981422Y-123552651D01*
X140866240Y-123638876D01*
X140866228Y-123638886D01*
X140438892Y-124066223D01*
X140438855Y-124066262D01*
X140402728Y-124106480D01*
X140402718Y-124106492D01*
X140386076Y-124127143D01*
X140354433Y-124171025D01*
X140294663Y-124301899D01*
X140274976Y-124368944D01*
X140254500Y-124511363D01*
X140254500Y-124731484D01*
X140257745Y-124776865D01*
X140259645Y-124803425D01*
X140260458Y-124809081D01*
X140260480Y-124809238D01*
X140263186Y-124828059D01*
X140264668Y-124838360D01*
X140264670Y-124838370D01*
X140264672Y-124838381D01*
X140266039Y-124844666D01*
X140266824Y-124848273D01*
X140266807Y-124848276D01*
X140267258Y-124851069D01*
X140268826Y-124857478D01*
X140269160Y-124859013D01*
X140269164Y-124859030D01*
X140279997Y-124908828D01*
X140281798Y-124914240D01*
X140283517Y-124918697D01*
X140284790Y-124922702D01*
X140286452Y-124929489D01*
X140298716Y-124966501D01*
X140298935Y-124967188D01*
X140298953Y-124968014D01*
X140304121Y-124992152D01*
X140304356Y-124994451D01*
X140304999Y-125007060D01*
X140304999Y-125992932D01*
X140304352Y-126005578D01*
X140304116Y-126007880D01*
X140298470Y-126034236D01*
X140286454Y-126070499D01*
X140267246Y-126148997D01*
X140260954Y-126187992D01*
X140254500Y-126268503D01*
X140254500Y-128713202D01*
X140245635Y-128753207D01*
X140247458Y-128753811D01*
X140245187Y-128760664D01*
X140245186Y-128760666D01*
X140190001Y-128927203D01*
X140190001Y-128927204D01*
X140190000Y-128927204D01*
X140179500Y-129029983D01*
X140179500Y-130230001D01*
X140179501Y-130230018D01*
X140190000Y-130332796D01*
X140190001Y-130332799D01*
X140247458Y-130506190D01*
X140245631Y-130506795D01*
X140254500Y-130546798D01*
X140254500Y-134761761D01*
X140236039Y-134826857D01*
X140215189Y-134860659D01*
X140215185Y-134860668D01*
X140187349Y-134944670D01*
X140160001Y-135027203D01*
X140160001Y-135027204D01*
X140160000Y-135027204D01*
X140149500Y-135129983D01*
X140149500Y-136330001D01*
X140149501Y-136330018D01*
X140160000Y-136432796D01*
X140160001Y-136432799D01*
X140215185Y-136599331D01*
X140215190Y-136599342D01*
X140236038Y-136633141D01*
X140254500Y-136698238D01*
X140254500Y-139068640D01*
X140257397Y-139122688D01*
X140257397Y-139122689D01*
X140260229Y-139149022D01*
X140260232Y-139149049D01*
X140268885Y-139202445D01*
X140268885Y-139202447D01*
X140272096Y-139211055D01*
X140319168Y-139337257D01*
X140352653Y-139398580D01*
X140438877Y-139513761D01*
X140438881Y-139513765D01*
X140438886Y-139513771D01*
X140680524Y-139755409D01*
X140714009Y-139816732D01*
X140709025Y-139886424D01*
X140667153Y-139942357D01*
X140655838Y-139949618D01*
X140655840Y-139949621D01*
X140652569Y-139951715D01*
X140652122Y-139952003D01*
X140652116Y-139952006D01*
X140652111Y-139952009D01*
X140536807Y-140038057D01*
X140536804Y-140038060D01*
X140107754Y-140465843D01*
X140071799Y-140505717D01*
X140055263Y-140526138D01*
X140023749Y-140569582D01*
X139963553Y-140700270D01*
X139943942Y-140766266D01*
X139943660Y-140767188D01*
X139922714Y-140909588D01*
X139911402Y-144399761D01*
X139912895Y-144440284D01*
X139914420Y-144460060D01*
X139919150Y-144500289D01*
X139943473Y-144653852D01*
X139945000Y-144673251D01*
X139945000Y-144786742D01*
X139943473Y-144806141D01*
X139921688Y-144943681D01*
X139920627Y-144945917D01*
X139918674Y-144962160D01*
X139918673Y-144962159D01*
X139918391Y-144964501D01*
X139917207Y-144971979D01*
X139916514Y-144980110D01*
X139916258Y-144982241D01*
X139916253Y-144982298D01*
X139912844Y-145010652D01*
X139909232Y-145069348D01*
X139909232Y-145069362D01*
X139906289Y-145976849D01*
X139906290Y-145976885D01*
X139909054Y-146031349D01*
X139911844Y-146057908D01*
X139920456Y-146111739D01*
X139970520Y-146246631D01*
X140003904Y-146308005D01*
X140003905Y-146308007D01*
X140089942Y-146423326D01*
X140089944Y-146423329D01*
X140515640Y-146850406D01*
X140515648Y-146850414D01*
X140548054Y-146879593D01*
X140556159Y-146886891D01*
X140576943Y-146903667D01*
X140621144Y-146935567D01*
X140636776Y-146942706D01*
X140689580Y-146988461D01*
X140709264Y-147055501D01*
X140689579Y-147122540D01*
X140636775Y-147168295D01*
X140585264Y-147179500D01*
X133154500Y-147179500D01*
X133087461Y-147159815D01*
X133041706Y-147107011D01*
X133030500Y-147055500D01*
X133030500Y-74644500D01*
X133050185Y-74577461D01*
X133102989Y-74531706D01*
X133154500Y-74520500D01*
X185125500Y-74520500D01*
X185192539Y-74540185D01*
G37*
%TD.AperFunction*%
%TA.AperFunction,Conductor*%
G36*
X164545703Y-118436095D02*
G01*
X164552181Y-118442127D01*
X165154723Y-119044669D01*
X166815324Y-120705271D01*
X166815327Y-120705274D01*
X166921160Y-120775989D01*
X166921871Y-120776464D01*
X166921877Y-120776467D01*
X167040251Y-120825499D01*
X167040256Y-120825501D01*
X167040260Y-120825501D01*
X167040261Y-120825502D01*
X167165928Y-120850500D01*
X167165931Y-120850500D01*
X175230192Y-120850500D01*
X175297231Y-120870185D01*
X175342986Y-120922989D01*
X175352930Y-120992147D01*
X175323905Y-121055703D01*
X175317873Y-121062181D01*
X174354724Y-122025329D01*
X174354723Y-122025331D01*
X174337331Y-122051361D01*
X174315783Y-122083610D01*
X174283534Y-122131873D01*
X174234499Y-122250255D01*
X174234497Y-122250261D01*
X174209500Y-122375928D01*
X174209500Y-124469192D01*
X174189815Y-124536231D01*
X174173181Y-124556873D01*
X173972377Y-124757676D01*
X173911054Y-124791161D01*
X173841362Y-124786177D01*
X173819600Y-124775534D01*
X173689340Y-124695189D01*
X173689335Y-124695187D01*
X173689334Y-124695186D01*
X173522797Y-124640001D01*
X173522795Y-124640000D01*
X173420010Y-124629500D01*
X172419998Y-124629500D01*
X172419980Y-124629501D01*
X172317203Y-124640000D01*
X172317200Y-124640001D01*
X172150668Y-124695185D01*
X172150663Y-124695187D01*
X172001342Y-124787289D01*
X171877289Y-124911342D01*
X171785187Y-125060663D01*
X171785185Y-125060668D01*
X171770763Y-125104191D01*
X171730001Y-125227203D01*
X171730001Y-125227204D01*
X171730000Y-125227204D01*
X171719500Y-125329983D01*
X171719500Y-125955001D01*
X171719501Y-125955019D01*
X171730000Y-126057796D01*
X171730001Y-126057799D01*
X171765045Y-126163553D01*
X171785186Y-126224334D01*
X171877288Y-126373656D01*
X172001344Y-126497712D01*
X172150666Y-126589814D01*
X172317203Y-126644999D01*
X172419991Y-126655500D01*
X173420008Y-126655499D01*
X173420016Y-126655498D01*
X173420019Y-126655498D01*
X173476302Y-126649748D01*
X173522797Y-126644999D01*
X173689334Y-126589814D01*
X173838656Y-126497712D01*
X173962712Y-126373656D01*
X173976388Y-126351482D01*
X174028335Y-126304758D01*
X174065623Y-126294337D01*
X174065594Y-126294189D01*
X174067546Y-126293800D01*
X174069789Y-126293174D01*
X174071554Y-126293000D01*
X174071569Y-126293000D01*
X174197244Y-126268001D01*
X174315627Y-126218965D01*
X174343262Y-126200500D01*
X174422169Y-126147777D01*
X175365277Y-125204669D01*
X175425751Y-125114160D01*
X175479361Y-125069358D01*
X175548686Y-125060649D01*
X175611713Y-125090803D01*
X175646783Y-125144734D01*
X175689433Y-125275996D01*
X175761893Y-125418205D01*
X175796657Y-125486433D01*
X175935483Y-125677510D01*
X176102490Y-125844517D01*
X176293567Y-125983343D01*
X176341795Y-126007916D01*
X176392590Y-126055888D01*
X176409500Y-126118400D01*
X176409500Y-127291407D01*
X176389815Y-127358446D01*
X176341796Y-127401891D01*
X176273569Y-127436655D01*
X176178028Y-127506070D01*
X176082490Y-127575483D01*
X176082488Y-127575485D01*
X176082487Y-127575485D01*
X175915485Y-127742487D01*
X175915485Y-127742488D01*
X175915483Y-127742490D01*
X175855862Y-127824550D01*
X175776657Y-127933566D01*
X175669433Y-128144003D01*
X175596446Y-128368631D01*
X175559500Y-128601902D01*
X175559500Y-128838097D01*
X175596446Y-129071368D01*
X175669433Y-129295996D01*
X175741893Y-129438205D01*
X175776657Y-129506433D01*
X175915483Y-129697510D01*
X176082490Y-129864517D01*
X176273567Y-130003343D01*
X176342963Y-130038702D01*
X176484003Y-130110566D01*
X176484005Y-130110566D01*
X176484008Y-130110568D01*
X176588455Y-130144505D01*
X176708631Y-130183553D01*
X176941903Y-130220500D01*
X176941908Y-130220500D01*
X177178097Y-130220500D01*
X177411368Y-130183553D01*
X177430911Y-130177203D01*
X177635992Y-130110568D01*
X177846433Y-130003343D01*
X178037510Y-129864517D01*
X178204517Y-129697510D01*
X178343343Y-129506433D01*
X178378107Y-129438205D01*
X178426082Y-129387409D01*
X178488592Y-129370500D01*
X182131408Y-129370500D01*
X182198447Y-129390185D01*
X182241893Y-129438205D01*
X182276657Y-129506433D01*
X182415483Y-129697510D01*
X182582490Y-129864517D01*
X182773567Y-130003343D01*
X182842963Y-130038702D01*
X182984003Y-130110566D01*
X182984005Y-130110566D01*
X182984008Y-130110568D01*
X183088455Y-130144505D01*
X183208631Y-130183553D01*
X183441903Y-130220500D01*
X183441908Y-130220500D01*
X183678097Y-130220500D01*
X183911368Y-130183553D01*
X183930911Y-130177203D01*
X184135992Y-130110568D01*
X184346433Y-130003343D01*
X184537510Y-129864517D01*
X184704517Y-129697510D01*
X184843343Y-129506433D01*
X184950568Y-129295992D01*
X185007569Y-129120562D01*
X185047007Y-129062886D01*
X185111365Y-129035688D01*
X185180212Y-129047603D01*
X185231687Y-129094847D01*
X185249500Y-129158880D01*
X185249500Y-132781119D01*
X185229815Y-132848158D01*
X185177011Y-132893913D01*
X185107853Y-132903857D01*
X185044297Y-132874832D01*
X185007569Y-132819438D01*
X184963237Y-132682999D01*
X184950568Y-132644008D01*
X184950566Y-132644005D01*
X184950566Y-132644003D01*
X184878107Y-132501795D01*
X184843343Y-132433567D01*
X184704517Y-132242490D01*
X184537510Y-132075483D01*
X184346433Y-131936657D01*
X184135996Y-131829433D01*
X183911368Y-131756446D01*
X183678097Y-131719500D01*
X183678092Y-131719500D01*
X183441908Y-131719500D01*
X183441903Y-131719500D01*
X183208631Y-131756446D01*
X182984003Y-131829433D01*
X182773566Y-131936657D01*
X182664550Y-132015862D01*
X182582490Y-132075483D01*
X182582488Y-132075485D01*
X182582487Y-132075485D01*
X182415485Y-132242487D01*
X182415485Y-132242488D01*
X182415483Y-132242490D01*
X182410726Y-132249038D01*
X182276657Y-132433566D01*
X182241893Y-132501795D01*
X182193918Y-132552591D01*
X182131408Y-132569500D01*
X178488592Y-132569500D01*
X178421553Y-132549815D01*
X178378107Y-132501795D01*
X178343342Y-132433566D01*
X178329495Y-132414507D01*
X178204517Y-132242490D01*
X178037510Y-132075483D01*
X177846433Y-131936657D01*
X177635996Y-131829433D01*
X177411368Y-131756446D01*
X177178097Y-131719500D01*
X177178092Y-131719500D01*
X176941908Y-131719500D01*
X176941903Y-131719500D01*
X176708631Y-131756446D01*
X176484003Y-131829433D01*
X176273566Y-131936657D01*
X176164550Y-132015862D01*
X176082490Y-132075483D01*
X176082488Y-132075485D01*
X176082487Y-132075485D01*
X175915485Y-132242487D01*
X175915485Y-132242488D01*
X175915483Y-132242490D01*
X175910726Y-132249038D01*
X175776657Y-132433566D01*
X175741893Y-132501795D01*
X175693918Y-132552591D01*
X175631408Y-132569500D01*
X172540808Y-132569500D01*
X172473769Y-132549815D01*
X172453127Y-132533181D01*
X170186819Y-130266873D01*
X170153334Y-130205550D01*
X170150500Y-130179192D01*
X170150500Y-126718732D01*
X170170185Y-126651693D01*
X170222989Y-126605938D01*
X170235495Y-126601026D01*
X170269334Y-126589814D01*
X170418656Y-126497712D01*
X170542712Y-126373656D01*
X170634814Y-126224334D01*
X170689999Y-126057797D01*
X170700500Y-125955009D01*
X170700499Y-125329992D01*
X170698554Y-125310955D01*
X170689999Y-125227203D01*
X170689998Y-125227200D01*
X170669368Y-125164944D01*
X170634814Y-125060666D01*
X170542712Y-124911344D01*
X170418656Y-124787288D01*
X170269334Y-124695186D01*
X170102797Y-124640001D01*
X170102795Y-124640000D01*
X170000010Y-124629500D01*
X168999998Y-124629500D01*
X168999980Y-124629501D01*
X168897203Y-124640000D01*
X168897200Y-124640001D01*
X168730668Y-124695185D01*
X168730663Y-124695187D01*
X168581342Y-124787289D01*
X168457289Y-124911342D01*
X168365187Y-125060663D01*
X168365185Y-125060668D01*
X168350763Y-125104191D01*
X168310001Y-125227203D01*
X168310001Y-125227204D01*
X168310000Y-125227204D01*
X168299500Y-125329983D01*
X168299500Y-125955001D01*
X168299501Y-125955019D01*
X168310000Y-126057796D01*
X168310001Y-126057799D01*
X168345045Y-126163553D01*
X168365186Y-126224334D01*
X168457288Y-126373656D01*
X168581344Y-126497712D01*
X168730666Y-126589814D01*
X168764500Y-126601025D01*
X168821947Y-126640796D01*
X168848772Y-126705311D01*
X168849500Y-126718732D01*
X168849500Y-130564069D01*
X168866326Y-130648656D01*
X168874499Y-130689744D01*
X168923535Y-130808127D01*
X168994723Y-130914669D01*
X168994726Y-130914673D01*
X171805325Y-133725272D01*
X171805332Y-133725278D01*
X171911159Y-133795989D01*
X171911160Y-133795989D01*
X171911871Y-133796464D01*
X171911877Y-133796467D01*
X172030251Y-133845499D01*
X172030256Y-133845501D01*
X172030260Y-133845501D01*
X172030261Y-133845502D01*
X172155928Y-133870500D01*
X172155931Y-133870500D01*
X175631408Y-133870500D01*
X175698447Y-133890185D01*
X175741893Y-133938205D01*
X175776657Y-134006433D01*
X175915483Y-134197510D01*
X176082490Y-134364517D01*
X176273567Y-134503343D01*
X176372991Y-134554002D01*
X176484003Y-134610566D01*
X176484005Y-134610566D01*
X176484008Y-134610568D01*
X176596168Y-134647011D01*
X176708631Y-134683553D01*
X176941903Y-134720500D01*
X176941908Y-134720500D01*
X177178097Y-134720500D01*
X177411368Y-134683553D01*
X177413070Y-134683000D01*
X177635992Y-134610568D01*
X177846433Y-134503343D01*
X178037510Y-134364517D01*
X178204517Y-134197510D01*
X178343343Y-134006433D01*
X178378107Y-133938205D01*
X178426082Y-133887409D01*
X178488592Y-133870500D01*
X182131408Y-133870500D01*
X182198447Y-133890185D01*
X182241893Y-133938205D01*
X182276657Y-134006433D01*
X182415483Y-134197510D01*
X182582490Y-134364517D01*
X182773567Y-134503343D01*
X182872991Y-134554002D01*
X182984003Y-134610566D01*
X182984005Y-134610566D01*
X182984008Y-134610568D01*
X183096168Y-134647011D01*
X183208631Y-134683553D01*
X183441903Y-134720500D01*
X183441908Y-134720500D01*
X183678097Y-134720500D01*
X183911368Y-134683553D01*
X183913070Y-134683000D01*
X184135992Y-134610568D01*
X184346433Y-134503343D01*
X184537510Y-134364517D01*
X184704517Y-134197510D01*
X184843343Y-134006433D01*
X184950568Y-133795992D01*
X185007569Y-133620562D01*
X185047007Y-133562886D01*
X185111365Y-133535688D01*
X185180212Y-133547603D01*
X185231687Y-133594847D01*
X185249500Y-133658880D01*
X185249500Y-147055500D01*
X185229815Y-147122539D01*
X185177011Y-147168294D01*
X185125500Y-147179500D01*
X150420937Y-147179500D01*
X150353898Y-147159815D01*
X150308143Y-147107011D01*
X150298199Y-147037853D01*
X150327224Y-146974297D01*
X150361512Y-146946667D01*
X150368766Y-146942706D01*
X150378580Y-146937347D01*
X150493761Y-146851123D01*
X150921123Y-146423761D01*
X150957288Y-146383500D01*
X150973922Y-146362858D01*
X151005567Y-146318974D01*
X151065338Y-146188097D01*
X151085023Y-146121058D01*
X151085024Y-146121054D01*
X151105500Y-145978638D01*
X151105500Y-140908463D01*
X151102599Y-140854382D01*
X151099761Y-140828007D01*
X151091096Y-140774572D01*
X151040797Y-140639770D01*
X151032602Y-140624766D01*
X151008374Y-140580408D01*
X151007604Y-140578936D01*
X151007303Y-140578450D01*
X151007301Y-140578445D01*
X150921060Y-140463275D01*
X150568976Y-140111292D01*
X150535484Y-140049976D01*
X150540458Y-139980283D01*
X150568965Y-139935919D01*
X150749475Y-139755409D01*
X150991123Y-139513761D01*
X151027288Y-139473500D01*
X151043922Y-139452858D01*
X151075567Y-139408974D01*
X151135338Y-139278097D01*
X151155023Y-139211058D01*
X151155024Y-139211054D01*
X151175500Y-139068638D01*
X151175500Y-132316077D01*
X151195185Y-132249038D01*
X151247989Y-132203283D01*
X151317147Y-132193339D01*
X151376413Y-132218812D01*
X151381340Y-132222708D01*
X151381344Y-132222712D01*
X151530666Y-132314814D01*
X151697203Y-132369999D01*
X151799991Y-132380500D01*
X153900008Y-132380499D01*
X154002797Y-132369999D01*
X154169334Y-132314814D01*
X154318656Y-132222712D01*
X154442712Y-132098656D01*
X154534814Y-131949334D01*
X154579164Y-131815494D01*
X154618936Y-131758051D01*
X154683451Y-131731228D01*
X154696869Y-131730500D01*
X158257770Y-131730500D01*
X158324809Y-131750185D01*
X158345451Y-131766819D01*
X162631586Y-136052954D01*
X162661058Y-136072645D01*
X162705270Y-136102186D01*
X162754505Y-136135084D01*
X162754506Y-136135084D01*
X162754507Y-136135085D01*
X162754509Y-136135086D01*
X162891082Y-136191656D01*
X162891087Y-136191658D01*
X162891091Y-136191658D01*
X162891092Y-136191659D01*
X163036079Y-136220500D01*
X163036082Y-136220500D01*
X167263920Y-136220500D01*
X167361462Y-136201096D01*
X167408913Y-136191658D01*
X167545495Y-136135084D01*
X167594729Y-136102186D01*
X167594734Y-136102183D01*
X167619071Y-136085921D01*
X167668416Y-136052952D01*
X168572952Y-135148416D01*
X168622186Y-135074729D01*
X168655084Y-135025495D01*
X168711658Y-134888913D01*
X168740500Y-134743918D01*
X168740500Y-132696082D01*
X168740500Y-132696079D01*
X168711659Y-132551092D01*
X168711658Y-132551091D01*
X168711658Y-132551087D01*
X168655084Y-132414505D01*
X168588473Y-132314814D01*
X168572952Y-132291584D01*
X167626818Y-131345450D01*
X167593333Y-131284127D01*
X167590499Y-131257769D01*
X167590499Y-130434629D01*
X167590498Y-130434623D01*
X167584091Y-130375016D01*
X167533797Y-130240171D01*
X167533793Y-130240164D01*
X167447547Y-130124955D01*
X167447544Y-130124952D01*
X167332335Y-130038706D01*
X167332328Y-130038702D01*
X167197482Y-129988408D01*
X167197483Y-129988408D01*
X167137883Y-129982001D01*
X167137881Y-129982000D01*
X167137873Y-129982000D01*
X167137864Y-129982000D01*
X165342129Y-129982000D01*
X165342123Y-129982001D01*
X165282516Y-129988408D01*
X165147671Y-130038702D01*
X165147664Y-130038706D01*
X165032455Y-130124952D01*
X165032452Y-130124955D01*
X164946206Y-130240164D01*
X164946203Y-130240170D01*
X164908055Y-130342449D01*
X164866183Y-130398382D01*
X164800719Y-130422799D01*
X164732446Y-130407947D01*
X164704192Y-130386796D01*
X164619786Y-130302390D01*
X164447815Y-130177448D01*
X164447814Y-130177447D01*
X164408205Y-130157265D01*
X164357409Y-130109291D01*
X164340500Y-130046781D01*
X164340500Y-118529808D01*
X164360185Y-118462769D01*
X164412989Y-118417014D01*
X164482147Y-118407070D01*
X164545703Y-118436095D01*
G37*
%TD.AperFunction*%
%TA.AperFunction,Conductor*%
G36*
X165139244Y-132623505D02*
G01*
X165139359Y-132623197D01*
X165282517Y-132676591D01*
X165282516Y-132676591D01*
X165289444Y-132677335D01*
X165342127Y-132683000D01*
X166790269Y-132682999D01*
X166857308Y-132702684D01*
X166877950Y-132719318D01*
X167203181Y-133044549D01*
X167236666Y-133105872D01*
X167239500Y-133132230D01*
X167239500Y-134307770D01*
X167219815Y-134374809D01*
X167203181Y-134395451D01*
X166915451Y-134683181D01*
X166854128Y-134716666D01*
X166827770Y-134719500D01*
X164508981Y-134719500D01*
X164441942Y-134699815D01*
X164396187Y-134647011D01*
X164386243Y-134577853D01*
X164415268Y-134514297D01*
X164444191Y-134489773D01*
X164447812Y-134487552D01*
X164447816Y-134487551D01*
X164574582Y-134395451D01*
X164619786Y-134362609D01*
X164619788Y-134362606D01*
X164619792Y-134362604D01*
X164770104Y-134212292D01*
X164770106Y-134212288D01*
X164770109Y-134212286D01*
X164895048Y-134040320D01*
X164895047Y-134040320D01*
X164895051Y-134040316D01*
X164991557Y-133850912D01*
X165057246Y-133648743D01*
X165090500Y-133438787D01*
X165090500Y-133226213D01*
X165057246Y-133016257D01*
X164991557Y-132814088D01*
X164980877Y-132793127D01*
X164967981Y-132724458D01*
X164994257Y-132659717D01*
X165051364Y-132619460D01*
X165121169Y-132616468D01*
X165139244Y-132623505D01*
G37*
%TD.AperFunction*%
%TA.AperFunction,Conductor*%
G36*
X167028834Y-96025048D02*
G01*
X167084767Y-96066920D01*
X167109184Y-96132384D01*
X167109500Y-96141230D01*
X167109500Y-98086846D01*
X167089815Y-98153885D01*
X167037011Y-98199640D01*
X166967853Y-98209584D01*
X166938048Y-98201407D01*
X166834082Y-98158343D01*
X166834072Y-98158340D01*
X166689085Y-98129500D01*
X166689083Y-98129500D01*
X166641978Y-98129500D01*
X166574939Y-98109815D01*
X166554301Y-98093185D01*
X166460174Y-97999058D01*
X166460173Y-97999057D01*
X166460172Y-97999056D01*
X166337259Y-97916928D01*
X166337246Y-97916921D01*
X166200675Y-97860352D01*
X166200665Y-97860349D01*
X166055678Y-97831509D01*
X166055676Y-97831509D01*
X165907840Y-97831509D01*
X165907838Y-97831509D01*
X165762850Y-97860349D01*
X165762840Y-97860352D01*
X165626269Y-97916921D01*
X165626256Y-97916928D01*
X165503342Y-97999057D01*
X165503338Y-97999060D01*
X165398809Y-98103589D01*
X165398806Y-98103593D01*
X165316677Y-98226507D01*
X165316670Y-98226520D01*
X165260101Y-98363091D01*
X165260098Y-98363101D01*
X165231258Y-98508088D01*
X165231258Y-98508091D01*
X165231258Y-98655927D01*
X165231258Y-98655929D01*
X165231257Y-98655929D01*
X165239129Y-98695498D01*
X165232902Y-98765090D01*
X165205193Y-98807371D01*
X162921286Y-101091279D01*
X162809481Y-101203083D01*
X162809479Y-101203086D01*
X162768811Y-101273526D01*
X162768806Y-101273535D01*
X162730423Y-101340016D01*
X162689499Y-101492744D01*
X162689499Y-101492746D01*
X162689499Y-101660847D01*
X162689500Y-101660860D01*
X162689500Y-127739902D01*
X162669815Y-127806941D01*
X162653181Y-127827583D01*
X161543875Y-128936888D01*
X161537932Y-128940132D01*
X161534076Y-128945697D01*
X161507656Y-128956664D01*
X161482552Y-128970373D01*
X161475799Y-128969890D01*
X161469546Y-128972486D01*
X161441391Y-128967429D01*
X161412860Y-128965389D01*
X161407440Y-128961331D01*
X161400777Y-128960135D01*
X161379823Y-128940657D01*
X161356927Y-128923517D01*
X161354561Y-128917175D01*
X161349602Y-128912565D01*
X161342505Y-128884852D01*
X161332510Y-128858053D01*
X161333538Y-128849834D01*
X161332270Y-128844879D01*
X161336733Y-128824319D01*
X161338509Y-128810141D01*
X161340018Y-128805592D01*
X161340084Y-128805495D01*
X161396658Y-128668913D01*
X161413503Y-128584222D01*
X161415930Y-128576914D01*
X161431614Y-128554285D01*
X161444381Y-128529879D01*
X161445876Y-128528357D01*
X161558506Y-128415728D01*
X161558511Y-128415724D01*
X161568714Y-128405520D01*
X161568716Y-128405520D01*
X161680520Y-128293716D01*
X161753987Y-128166467D01*
X161753988Y-128166466D01*
X161756255Y-128162537D01*
X161759577Y-128156785D01*
X161800500Y-128004057D01*
X161800500Y-127845943D01*
X161800500Y-127170808D01*
X161820185Y-127103769D01*
X161836820Y-127083126D01*
X161868076Y-127051870D01*
X161868081Y-127051865D01*
X161951744Y-126910398D01*
X161997598Y-126752569D01*
X162000500Y-126715694D01*
X162000500Y-125559306D01*
X161997598Y-125522431D01*
X161951744Y-125364602D01*
X161868081Y-125223135D01*
X161868079Y-125223133D01*
X161868076Y-125223129D01*
X161836819Y-125191872D01*
X161822115Y-125164944D01*
X161805523Y-125139126D01*
X161804631Y-125132925D01*
X161803334Y-125130549D01*
X161800500Y-125104191D01*
X161800500Y-124895808D01*
X161820185Y-124828769D01*
X161836820Y-124808126D01*
X161868076Y-124776870D01*
X161868081Y-124776865D01*
X161951744Y-124635398D01*
X161997598Y-124477569D01*
X162000500Y-124440694D01*
X162000500Y-123284306D01*
X161997598Y-123247431D01*
X161990409Y-123222688D01*
X161951745Y-123089606D01*
X161951744Y-123089603D01*
X161951744Y-123089602D01*
X161868081Y-122948135D01*
X161868079Y-122948133D01*
X161868076Y-122948129D01*
X161751870Y-122831923D01*
X161751862Y-122831917D01*
X161638995Y-122765168D01*
X161610398Y-122748256D01*
X161610397Y-122748255D01*
X161610396Y-122748255D01*
X161610393Y-122748254D01*
X161452573Y-122702402D01*
X161452567Y-122702401D01*
X161415701Y-122699500D01*
X161415694Y-122699500D01*
X160984306Y-122699500D01*
X160984298Y-122699500D01*
X160947432Y-122702401D01*
X160947426Y-122702402D01*
X160789606Y-122748254D01*
X160789603Y-122748255D01*
X160648137Y-122831917D01*
X160648129Y-122831923D01*
X160531923Y-122948129D01*
X160531917Y-122948137D01*
X160448255Y-123089603D01*
X160448254Y-123089606D01*
X160402402Y-123247426D01*
X160402401Y-123247432D01*
X160399500Y-123284298D01*
X160399500Y-124440701D01*
X160402401Y-124477567D01*
X160402402Y-124477573D01*
X160448254Y-124635393D01*
X160448255Y-124635396D01*
X160448256Y-124635398D01*
X160476858Y-124683761D01*
X160535890Y-124783580D01*
X160534071Y-124784655D01*
X160555619Y-124839532D01*
X160541941Y-124908050D01*
X160493391Y-124958296D01*
X160432105Y-124974500D01*
X160067895Y-124974500D01*
X160000856Y-124954815D01*
X159955101Y-124902011D01*
X159945157Y-124832853D01*
X159965671Y-124784503D01*
X159964110Y-124783580D01*
X159994919Y-124731484D01*
X160051744Y-124635398D01*
X160097598Y-124477569D01*
X160100500Y-124440694D01*
X160100500Y-123284306D01*
X160097598Y-123247431D01*
X160090409Y-123222688D01*
X160051745Y-123089606D01*
X160051744Y-123089603D01*
X160051744Y-123089602D01*
X159979130Y-122966819D01*
X159961948Y-122899096D01*
X159984108Y-122832833D01*
X160016972Y-122800596D01*
X160028416Y-122792951D01*
X160132951Y-122688416D01*
X160215084Y-122565495D01*
X160271658Y-122428913D01*
X160300500Y-122283918D01*
X160300500Y-122136082D01*
X160300500Y-122136079D01*
X160271659Y-121991092D01*
X160271658Y-121991091D01*
X160271658Y-121991087D01*
X160245846Y-121928773D01*
X160238378Y-121859304D01*
X160269653Y-121796825D01*
X160272672Y-121793695D01*
X160392712Y-121673656D01*
X160484814Y-121524334D01*
X160539999Y-121357797D01*
X160550500Y-121255009D01*
X160550499Y-120204992D01*
X160539999Y-120102203D01*
X160484814Y-119935666D01*
X160392712Y-119786344D01*
X160268656Y-119662288D01*
X160127951Y-119575501D01*
X160119336Y-119570187D01*
X160119331Y-119570185D01*
X160117862Y-119569698D01*
X159952797Y-119515001D01*
X159952795Y-119515000D01*
X159850010Y-119504500D01*
X159249998Y-119504500D01*
X159249980Y-119504501D01*
X159147203Y-119515000D01*
X159147200Y-119515001D01*
X158980668Y-119570185D01*
X158980663Y-119570187D01*
X158831342Y-119662289D01*
X158707289Y-119786342D01*
X158615187Y-119935663D01*
X158615185Y-119935668D01*
X158579121Y-120044504D01*
X158539348Y-120101949D01*
X158474833Y-120128772D01*
X158461415Y-120129500D01*
X157818813Y-120129500D01*
X157751774Y-120109815D01*
X157706019Y-120057011D01*
X157696075Y-119987853D01*
X157725100Y-119924297D01*
X157771361Y-119890939D01*
X157785488Y-119885087D01*
X157785488Y-119885086D01*
X157785495Y-119885084D01*
X157908416Y-119802951D01*
X158012951Y-119698416D01*
X158095084Y-119575495D01*
X158097284Y-119570185D01*
X158120895Y-119513181D01*
X158151658Y-119438913D01*
X158161096Y-119391462D01*
X158180500Y-119293920D01*
X158180500Y-119146079D01*
X158151659Y-119001092D01*
X158151658Y-119001091D01*
X158151658Y-119001087D01*
X158143131Y-118980500D01*
X158095087Y-118864511D01*
X158095080Y-118864498D01*
X158012951Y-118741584D01*
X158012948Y-118741580D01*
X157908419Y-118637051D01*
X157908415Y-118637048D01*
X157785501Y-118554919D01*
X157785488Y-118554912D01*
X157648917Y-118498343D01*
X157648907Y-118498340D01*
X157503920Y-118469500D01*
X157503918Y-118469500D01*
X157356082Y-118469500D01*
X157356080Y-118469500D01*
X157211092Y-118498340D01*
X157211086Y-118498342D01*
X157135121Y-118529808D01*
X157095338Y-118546287D01*
X157068878Y-118557247D01*
X157068520Y-118556385D01*
X157060598Y-118558369D01*
X157051095Y-118564477D01*
X157016160Y-118569500D01*
X156949500Y-118569500D01*
X156882461Y-118549815D01*
X156836706Y-118497011D01*
X156825500Y-118445500D01*
X156825500Y-105194010D01*
X156825500Y-105194000D01*
X156813947Y-105086544D01*
X156802741Y-105035033D01*
X156776865Y-104957288D01*
X156766164Y-104925135D01*
X156768262Y-104924436D01*
X156758884Y-104866540D01*
X156786773Y-104802478D01*
X156844870Y-104763663D01*
X156881916Y-104758000D01*
X159756420Y-104758000D01*
X159853962Y-104738596D01*
X159901413Y-104729158D01*
X160037995Y-104672584D01*
X160102972Y-104629168D01*
X160102972Y-104629167D01*
X160102974Y-104629167D01*
X160131944Y-104609810D01*
X160160916Y-104590452D01*
X162152951Y-102598416D01*
X162172109Y-102569744D01*
X162235084Y-102475495D01*
X162291658Y-102338913D01*
X162320500Y-102193918D01*
X162320500Y-101259024D01*
X162329122Y-101229660D01*
X162335589Y-101199741D01*
X162338874Y-101196446D01*
X162340185Y-101191985D01*
X162371616Y-101158705D01*
X162413411Y-101128340D01*
X162482365Y-101078242D01*
X162638242Y-100922365D01*
X162767815Y-100744022D01*
X162867895Y-100547606D01*
X162936015Y-100337951D01*
X162970500Y-100120222D01*
X162970500Y-99899778D01*
X162936015Y-99682049D01*
X162891699Y-99545656D01*
X162867896Y-99472396D01*
X162867895Y-99472393D01*
X162814867Y-99368322D01*
X162767815Y-99275978D01*
X162715417Y-99203858D01*
X162638247Y-99097641D01*
X162638243Y-99097636D01*
X162588071Y-99047464D01*
X162554586Y-98986141D01*
X162559570Y-98916449D01*
X162601442Y-98860516D01*
X162632420Y-98843601D01*
X162712326Y-98813798D01*
X162712326Y-98813797D01*
X162712331Y-98813796D01*
X162827546Y-98727546D01*
X162913796Y-98612331D01*
X162964091Y-98477483D01*
X162970500Y-98417873D01*
X162970500Y-98294500D01*
X162990185Y-98227461D01*
X163042989Y-98181706D01*
X163094500Y-98170500D01*
X164543920Y-98170500D01*
X164641462Y-98151096D01*
X164688913Y-98141658D01*
X164825495Y-98085084D01*
X164906926Y-98030674D01*
X164948416Y-98002952D01*
X166897819Y-96053549D01*
X166959142Y-96020064D01*
X167028834Y-96025048D01*
G37*
%TD.AperFunction*%
%TA.AperFunction,Conductor*%
G36*
X168273917Y-99597790D02*
G01*
X168305668Y-99598357D01*
X168309855Y-99600360D01*
X168311948Y-99600510D01*
X168337506Y-99613590D01*
X168444498Y-99685080D01*
X168444511Y-99685087D01*
X168581082Y-99741656D01*
X168581087Y-99741658D01*
X168581091Y-99741658D01*
X168581092Y-99741659D01*
X168726079Y-99770500D01*
X168726082Y-99770500D01*
X168873920Y-99770500D01*
X168971462Y-99751096D01*
X169018913Y-99741658D01*
X169155495Y-99685084D01*
X169155496Y-99685083D01*
X169161122Y-99682753D01*
X169161479Y-99683614D01*
X169213840Y-99670500D01*
X173809192Y-99670500D01*
X173876231Y-99690185D01*
X173896873Y-99706819D01*
X176111757Y-101921703D01*
X176145242Y-101983026D01*
X176140258Y-102052718D01*
X176105828Y-102101931D01*
X176105935Y-102102038D01*
X176105334Y-102102638D01*
X176104613Y-102103670D01*
X176102487Y-102105485D01*
X175935485Y-102272487D01*
X175935485Y-102272488D01*
X175935483Y-102272490D01*
X175900605Y-102320495D01*
X175796657Y-102463566D01*
X175761893Y-102531795D01*
X175713918Y-102582591D01*
X175651408Y-102599500D01*
X174535929Y-102599500D01*
X174410261Y-102624497D01*
X174410255Y-102624499D01*
X174291870Y-102673535D01*
X174185331Y-102744722D01*
X174185324Y-102744728D01*
X172154724Y-104775328D01*
X172102580Y-104853369D01*
X172083535Y-104881871D01*
X172034499Y-105000255D01*
X172034497Y-105000261D01*
X172009500Y-105125928D01*
X172009500Y-105831267D01*
X171989815Y-105898306D01*
X171937011Y-105944061D01*
X171924506Y-105948972D01*
X171890671Y-105960184D01*
X171890663Y-105960187D01*
X171741342Y-106052289D01*
X171617287Y-106176344D01*
X171614664Y-106180598D01*
X171562715Y-106227322D01*
X171509126Y-106239500D01*
X170138958Y-106239500D01*
X170071919Y-106219815D01*
X170033420Y-106180598D01*
X170027712Y-106171344D01*
X169903657Y-106047289D01*
X169903656Y-106047288D01*
X169762442Y-105960187D01*
X169754336Y-105955187D01*
X169754331Y-105955185D01*
X169720761Y-105944061D01*
X169587797Y-105900001D01*
X169587795Y-105900000D01*
X169485010Y-105889500D01*
X168434998Y-105889500D01*
X168434980Y-105889501D01*
X168332203Y-105900000D01*
X168332200Y-105900001D01*
X168165668Y-105955185D01*
X168165663Y-105955187D01*
X168016342Y-106047289D01*
X167892289Y-106171342D01*
X167800187Y-106320663D01*
X167800186Y-106320666D01*
X167745001Y-106487203D01*
X167745001Y-106487204D01*
X167745000Y-106487204D01*
X167734500Y-106589983D01*
X167734500Y-107190001D01*
X167734501Y-107190019D01*
X167745000Y-107292796D01*
X167745001Y-107292799D01*
X167780595Y-107400213D01*
X167800186Y-107459334D01*
X167892288Y-107608656D01*
X168016344Y-107732712D01*
X168165666Y-107824814D01*
X168332203Y-107879999D01*
X168434991Y-107890500D01*
X169485008Y-107890499D01*
X169485016Y-107890498D01*
X169485019Y-107890498D01*
X169541302Y-107884748D01*
X169587797Y-107879999D01*
X169754334Y-107824814D01*
X169903656Y-107732712D01*
X170027712Y-107608656D01*
X170033420Y-107599402D01*
X170085368Y-107552678D01*
X170138958Y-107540500D01*
X171487538Y-107540500D01*
X171554577Y-107560185D01*
X171580956Y-107582958D01*
X171587695Y-107590679D01*
X171617288Y-107638656D01*
X171713927Y-107735295D01*
X171716688Y-107738458D01*
X171729628Y-107766524D01*
X171744436Y-107793642D01*
X171744126Y-107797968D01*
X171745943Y-107801908D01*
X171741656Y-107832506D01*
X171739452Y-107863334D01*
X171736749Y-107867539D01*
X171736250Y-107871102D01*
X171729169Y-107879334D01*
X171710951Y-107907681D01*
X171617289Y-108001342D01*
X171525187Y-108150663D01*
X171525186Y-108150666D01*
X171470001Y-108317203D01*
X171470001Y-108317204D01*
X171470000Y-108317204D01*
X171459500Y-108419983D01*
X171459500Y-109045001D01*
X171459501Y-109045019D01*
X171470000Y-109147796D01*
X171470001Y-109147799D01*
X171523784Y-109310104D01*
X171525186Y-109314334D01*
X171617288Y-109463656D01*
X171741344Y-109587712D01*
X171890666Y-109679814D01*
X171924500Y-109691025D01*
X171981947Y-109730796D01*
X172008772Y-109795311D01*
X172009500Y-109808732D01*
X172009500Y-110246160D01*
X171996385Y-110298520D01*
X171997247Y-110298878D01*
X171938342Y-110441086D01*
X171938340Y-110441092D01*
X171909500Y-110586079D01*
X171909500Y-110586082D01*
X171909500Y-110733918D01*
X171909500Y-110733920D01*
X171909499Y-110733920D01*
X171938340Y-110878907D01*
X171938343Y-110878917D01*
X171994912Y-111015488D01*
X171994919Y-111015501D01*
X172077048Y-111138415D01*
X172077051Y-111138419D01*
X172181580Y-111242948D01*
X172181584Y-111242951D01*
X172304498Y-111325080D01*
X172304511Y-111325087D01*
X172441082Y-111381656D01*
X172441087Y-111381658D01*
X172441091Y-111381658D01*
X172441092Y-111381659D01*
X172586079Y-111410500D01*
X172586082Y-111410500D01*
X172733920Y-111410500D01*
X172831462Y-111391096D01*
X172878913Y-111381658D01*
X173015495Y-111325084D01*
X173138416Y-111242951D01*
X173242951Y-111138416D01*
X173325084Y-111015495D01*
X173381658Y-110878913D01*
X173400911Y-110782126D01*
X173410500Y-110733920D01*
X173410500Y-110586079D01*
X173381659Y-110441092D01*
X173381658Y-110441091D01*
X173381658Y-110441087D01*
X173325084Y-110304505D01*
X173325083Y-110304504D01*
X173322753Y-110298878D01*
X173323614Y-110298520D01*
X173310500Y-110246160D01*
X173310500Y-109808732D01*
X173330185Y-109741693D01*
X173382989Y-109695938D01*
X173395495Y-109691026D01*
X173429334Y-109679814D01*
X173578656Y-109587712D01*
X173702712Y-109463656D01*
X173794814Y-109314334D01*
X173849999Y-109147797D01*
X173860500Y-109045009D01*
X173860499Y-108419992D01*
X173849999Y-108317203D01*
X173794814Y-108150666D01*
X173702712Y-108001344D01*
X173609049Y-107907681D01*
X173575564Y-107846358D01*
X173580548Y-107776666D01*
X173609049Y-107732319D01*
X173702712Y-107638656D01*
X173794814Y-107489334D01*
X173849999Y-107322797D01*
X173860500Y-107220009D01*
X173860499Y-106594992D01*
X173859987Y-106589983D01*
X173849999Y-106492203D01*
X173849998Y-106492200D01*
X173835292Y-106447820D01*
X173794814Y-106325666D01*
X173702712Y-106176344D01*
X173578656Y-106052288D01*
X173429334Y-105960186D01*
X173429328Y-105960184D01*
X173395494Y-105948972D01*
X173338050Y-105909199D01*
X173311228Y-105844683D01*
X173310500Y-105831267D01*
X173310500Y-105510808D01*
X173330185Y-105443769D01*
X173346819Y-105423127D01*
X174833127Y-103936819D01*
X174894450Y-103903334D01*
X174920808Y-103900500D01*
X175651408Y-103900500D01*
X175718447Y-103920185D01*
X175761893Y-103968205D01*
X175796657Y-104036433D01*
X175935483Y-104227510D01*
X176102490Y-104394517D01*
X176293567Y-104533343D01*
X176386090Y-104580486D01*
X176504003Y-104640566D01*
X176504005Y-104640566D01*
X176504008Y-104640568D01*
X176602543Y-104672584D01*
X176728631Y-104713553D01*
X176961903Y-104750500D01*
X176961908Y-104750500D01*
X177198097Y-104750500D01*
X177431368Y-104713553D01*
X177442623Y-104709896D01*
X177655992Y-104640568D01*
X177866433Y-104533343D01*
X178057510Y-104394517D01*
X178224517Y-104227510D01*
X178363343Y-104036433D01*
X178398107Y-103968205D01*
X178446082Y-103917409D01*
X178508592Y-103900500D01*
X179038892Y-103900500D01*
X179105931Y-103920185D01*
X179151686Y-103972989D01*
X179161630Y-104042147D01*
X179132605Y-104105703D01*
X179125637Y-104112487D01*
X179125891Y-104112741D01*
X179017051Y-104221580D01*
X179017048Y-104221584D01*
X178934919Y-104344498D01*
X178934912Y-104344511D01*
X178878343Y-104481082D01*
X178878340Y-104481092D01*
X178849500Y-104626079D01*
X178849500Y-104626082D01*
X178849500Y-104773918D01*
X178849500Y-104773920D01*
X178849499Y-104773920D01*
X178878340Y-104918907D01*
X178878343Y-104918917D01*
X178937247Y-105061124D01*
X178936383Y-105061481D01*
X178949500Y-105113840D01*
X178949500Y-108359192D01*
X178929815Y-108426231D01*
X178913181Y-108446873D01*
X177226873Y-110133181D01*
X177165550Y-110166666D01*
X177139192Y-110169500D01*
X176971903Y-110169500D01*
X176738631Y-110206446D01*
X176514003Y-110279433D01*
X176303566Y-110386657D01*
X176228644Y-110441092D01*
X176112490Y-110525483D01*
X176112488Y-110525485D01*
X176112487Y-110525485D01*
X175945485Y-110692487D01*
X175945485Y-110692488D01*
X175945483Y-110692490D01*
X175889756Y-110769192D01*
X175806657Y-110883566D01*
X175771893Y-110951795D01*
X175723918Y-111002591D01*
X175661408Y-111019500D01*
X175075929Y-111019500D01*
X174950261Y-111044497D01*
X174950255Y-111044499D01*
X174831870Y-111093535D01*
X174725331Y-111164722D01*
X174725324Y-111164728D01*
X172394724Y-113495328D01*
X172358365Y-113549743D01*
X172358366Y-113549744D01*
X172323534Y-113601874D01*
X172275914Y-113716839D01*
X172232073Y-113771242D01*
X172200359Y-113787091D01*
X172130671Y-113810184D01*
X172130663Y-113810187D01*
X171981342Y-113902289D01*
X171857289Y-114026342D01*
X171857288Y-114026344D01*
X171831706Y-114067820D01*
X171817657Y-114090597D01*
X171765709Y-114137321D01*
X171712118Y-114149500D01*
X170408958Y-114149500D01*
X170341919Y-114129815D01*
X170303420Y-114090598D01*
X170297712Y-114081344D01*
X170173657Y-113957289D01*
X170173656Y-113957288D01*
X170024482Y-113865277D01*
X170024336Y-113865187D01*
X170024331Y-113865185D01*
X170019110Y-113863455D01*
X169857797Y-113810001D01*
X169857795Y-113810000D01*
X169755010Y-113799500D01*
X168704998Y-113799500D01*
X168704980Y-113799501D01*
X168602203Y-113810000D01*
X168602200Y-113810001D01*
X168435668Y-113865185D01*
X168435663Y-113865187D01*
X168286342Y-113957289D01*
X168162289Y-114081342D01*
X168070187Y-114230663D01*
X168070186Y-114230666D01*
X168015001Y-114397203D01*
X168015001Y-114397204D01*
X168015000Y-114397204D01*
X168004500Y-114499983D01*
X168004500Y-115100001D01*
X168004501Y-115100019D01*
X168015000Y-115202796D01*
X168015001Y-115202799D01*
X168060244Y-115339331D01*
X168070186Y-115369334D01*
X168162288Y-115518656D01*
X168286344Y-115642712D01*
X168435666Y-115734814D01*
X168602203Y-115789999D01*
X168704991Y-115800500D01*
X169755008Y-115800499D01*
X169755016Y-115800498D01*
X169755019Y-115800498D01*
X169821439Y-115793713D01*
X169857797Y-115789999D01*
X170024334Y-115734814D01*
X170173656Y-115642712D01*
X170297712Y-115518656D01*
X170303420Y-115509402D01*
X170355368Y-115462678D01*
X170408958Y-115450500D01*
X171767770Y-115450500D01*
X171797210Y-115459144D01*
X171827197Y-115465668D01*
X171832212Y-115469422D01*
X171834809Y-115470185D01*
X171855451Y-115486819D01*
X171950951Y-115582319D01*
X171984436Y-115643642D01*
X171979452Y-115713334D01*
X171950951Y-115757681D01*
X171857289Y-115851342D01*
X171765187Y-116000663D01*
X171765185Y-116000668D01*
X171737349Y-116084670D01*
X171710001Y-116167203D01*
X171710001Y-116167204D01*
X171710000Y-116167204D01*
X171699500Y-116269983D01*
X171699500Y-116895001D01*
X171699501Y-116895019D01*
X171710000Y-116997796D01*
X171710001Y-116997799D01*
X171743389Y-117098556D01*
X171765186Y-117164334D01*
X171857288Y-117313656D01*
X171981344Y-117437712D01*
X172130666Y-117529814D01*
X172164500Y-117541025D01*
X172184534Y-117554894D01*
X172206703Y-117565019D01*
X172212750Y-117574429D01*
X172221947Y-117580796D01*
X172231303Y-117603298D01*
X172244477Y-117623797D01*
X172246935Y-117640893D01*
X172248772Y-117645311D01*
X172249500Y-117658732D01*
X172249500Y-117816160D01*
X172236385Y-117868520D01*
X172237247Y-117868878D01*
X172178342Y-118011086D01*
X172178340Y-118011092D01*
X172149500Y-118156079D01*
X172149500Y-118156082D01*
X172149500Y-118303918D01*
X172149500Y-118303920D01*
X172149499Y-118303920D01*
X172178340Y-118448907D01*
X172178343Y-118448917D01*
X172234912Y-118585488D01*
X172234919Y-118585501D01*
X172317048Y-118708415D01*
X172317051Y-118708419D01*
X172421580Y-118812948D01*
X172421584Y-118812951D01*
X172544498Y-118895080D01*
X172544511Y-118895087D01*
X172665670Y-118945272D01*
X172681087Y-118951658D01*
X172681091Y-118951658D01*
X172681092Y-118951659D01*
X172826079Y-118980500D01*
X172826082Y-118980500D01*
X172973920Y-118980500D01*
X173084959Y-118958412D01*
X173118913Y-118951658D01*
X173255495Y-118895084D01*
X173378416Y-118812951D01*
X173482951Y-118708416D01*
X173565084Y-118585495D01*
X173621658Y-118448913D01*
X173631096Y-118401462D01*
X173650500Y-118303920D01*
X173650500Y-118156079D01*
X173621659Y-118011092D01*
X173621658Y-118011091D01*
X173621658Y-118011087D01*
X173565084Y-117874505D01*
X173565083Y-117874504D01*
X173562753Y-117868878D01*
X173563614Y-117868520D01*
X173561630Y-117860598D01*
X173555523Y-117851095D01*
X173550500Y-117816160D01*
X173550500Y-117658732D01*
X173570185Y-117591693D01*
X173622989Y-117545938D01*
X173635495Y-117541026D01*
X173669334Y-117529814D01*
X173818656Y-117437712D01*
X173942712Y-117313656D01*
X174034814Y-117164334D01*
X174089999Y-116997797D01*
X174100500Y-116895009D01*
X174100499Y-116269992D01*
X174095008Y-116216243D01*
X174089999Y-116167203D01*
X174089998Y-116167200D01*
X174047749Y-116039702D01*
X174034814Y-116000666D01*
X173942712Y-115851344D01*
X173849049Y-115757681D01*
X173815564Y-115696358D01*
X173820548Y-115626666D01*
X173849049Y-115582319D01*
X173942712Y-115488656D01*
X174034814Y-115339334D01*
X174089999Y-115172797D01*
X174100500Y-115070009D01*
X174100499Y-114444992D01*
X174099962Y-114439739D01*
X174089999Y-114342203D01*
X174089998Y-114342200D01*
X174056061Y-114239786D01*
X174034814Y-114175666D01*
X173942712Y-114026344D01*
X173910838Y-113994470D01*
X173877353Y-113933147D01*
X173882337Y-113863455D01*
X173910838Y-113819108D01*
X175373127Y-112356819D01*
X175400054Y-112342115D01*
X175425873Y-112325523D01*
X175432073Y-112324631D01*
X175434450Y-112323334D01*
X175460808Y-112320500D01*
X175661408Y-112320500D01*
X175728447Y-112340185D01*
X175771893Y-112388205D01*
X175806657Y-112456433D01*
X175945483Y-112647510D01*
X176112490Y-112814517D01*
X176303567Y-112953343D01*
X176402991Y-113004002D01*
X176514003Y-113060566D01*
X176514005Y-113060566D01*
X176514008Y-113060568D01*
X176634412Y-113099689D01*
X176738631Y-113133553D01*
X176971903Y-113170500D01*
X176971908Y-113170500D01*
X177208097Y-113170500D01*
X177441368Y-113133553D01*
X177665992Y-113060568D01*
X177876433Y-112953343D01*
X178067510Y-112814517D01*
X178234517Y-112647510D01*
X178373343Y-112456433D01*
X178408107Y-112388205D01*
X178456082Y-112337409D01*
X178518592Y-112320500D01*
X182161408Y-112320500D01*
X182228447Y-112340185D01*
X182271893Y-112388205D01*
X182306657Y-112456433D01*
X182445483Y-112647510D01*
X182612490Y-112814517D01*
X182803567Y-112953343D01*
X182902991Y-113004002D01*
X183014003Y-113060566D01*
X183014005Y-113060566D01*
X183014008Y-113060568D01*
X183134412Y-113099689D01*
X183238631Y-113133553D01*
X183471903Y-113170500D01*
X183471908Y-113170500D01*
X183708097Y-113170500D01*
X183941368Y-113133553D01*
X184165992Y-113060568D01*
X184376433Y-112953343D01*
X184567510Y-112814517D01*
X184734517Y-112647510D01*
X184873343Y-112456433D01*
X184980568Y-112245992D01*
X185007569Y-112162890D01*
X185047007Y-112105215D01*
X185111365Y-112078017D01*
X185180212Y-112089932D01*
X185231687Y-112137176D01*
X185249500Y-112201209D01*
X185249500Y-119699566D01*
X185229815Y-119766605D01*
X185177011Y-119812360D01*
X185107853Y-119822304D01*
X185044297Y-119793279D01*
X185007569Y-119737885D01*
X184970566Y-119624003D01*
X184898107Y-119481795D01*
X184863343Y-119413567D01*
X184724517Y-119222490D01*
X184557510Y-119055483D01*
X184366433Y-118916657D01*
X184155996Y-118809433D01*
X183931368Y-118736446D01*
X183698097Y-118699500D01*
X183698092Y-118699500D01*
X183461908Y-118699500D01*
X183461903Y-118699500D01*
X183228631Y-118736446D01*
X183004003Y-118809433D01*
X182793566Y-118916657D01*
X182705695Y-118980500D01*
X182602490Y-119055483D01*
X182602488Y-119055485D01*
X182602487Y-119055485D01*
X182435485Y-119222487D01*
X182435485Y-119222488D01*
X182435483Y-119222490D01*
X182383587Y-119293918D01*
X182296657Y-119413566D01*
X182261893Y-119481795D01*
X182213918Y-119532591D01*
X182151408Y-119549500D01*
X178508592Y-119549500D01*
X178441553Y-119529815D01*
X178398107Y-119481795D01*
X178363342Y-119413566D01*
X178224517Y-119222490D01*
X178057510Y-119055483D01*
X177866433Y-118916657D01*
X177655996Y-118809433D01*
X177431368Y-118736446D01*
X177198097Y-118699500D01*
X177198092Y-118699500D01*
X176961908Y-118699500D01*
X176961903Y-118699500D01*
X176728631Y-118736446D01*
X176504003Y-118809433D01*
X176293566Y-118916657D01*
X176205695Y-118980500D01*
X176102490Y-119055483D01*
X176102488Y-119055485D01*
X176102487Y-119055485D01*
X175935485Y-119222487D01*
X175935485Y-119222488D01*
X175935483Y-119222490D01*
X175883587Y-119293918D01*
X175796657Y-119413566D01*
X175761893Y-119481795D01*
X175713918Y-119532591D01*
X175651408Y-119549500D01*
X167550808Y-119549500D01*
X167483769Y-119529815D01*
X167463127Y-119513181D01*
X165486819Y-117536873D01*
X165453334Y-117475550D01*
X165450500Y-117449192D01*
X165450500Y-102410808D01*
X165470185Y-102343769D01*
X165486819Y-102323127D01*
X167425277Y-100384669D01*
X168180934Y-99629011D01*
X168208790Y-99613800D01*
X168235810Y-99597110D01*
X168239243Y-99597171D01*
X168242257Y-99595526D01*
X168273917Y-99597790D01*
G37*
%TD.AperFunction*%
%TA.AperFunction,Conductor*%
G36*
X185180212Y-103639156D02*
G01*
X185231687Y-103686400D01*
X185249500Y-103750433D01*
X185249500Y-111138790D01*
X185229815Y-111205829D01*
X185177011Y-111251584D01*
X185107853Y-111261528D01*
X185044297Y-111232503D01*
X185007569Y-111177109D01*
X185003544Y-111164722D01*
X184980568Y-111094008D01*
X184980566Y-111094005D01*
X184980566Y-111094003D01*
X184873342Y-110883566D01*
X184734517Y-110692490D01*
X184567510Y-110525483D01*
X184376433Y-110386657D01*
X184165996Y-110279433D01*
X183941368Y-110206446D01*
X183708097Y-110169500D01*
X183708092Y-110169500D01*
X183471908Y-110169500D01*
X183471903Y-110169500D01*
X183238631Y-110206446D01*
X183014003Y-110279433D01*
X182803566Y-110386657D01*
X182728644Y-110441092D01*
X182612490Y-110525483D01*
X182612488Y-110525485D01*
X182612487Y-110525485D01*
X182445485Y-110692487D01*
X182445485Y-110692488D01*
X182445483Y-110692490D01*
X182389756Y-110769192D01*
X182306657Y-110883566D01*
X182271893Y-110951795D01*
X182223918Y-111002591D01*
X182161408Y-111019500D01*
X178518591Y-111019500D01*
X178503988Y-111015212D01*
X178488783Y-111015864D01*
X178471144Y-111005568D01*
X178451552Y-110999815D01*
X178440655Y-110987770D01*
X178428441Y-110980641D01*
X178408106Y-110951794D01*
X178395015Y-110926101D01*
X178382119Y-110857432D01*
X178408396Y-110792691D01*
X178417819Y-110782126D01*
X178645446Y-110554500D01*
X178905277Y-110294669D01*
X180105276Y-109094670D01*
X180176465Y-108988127D01*
X180225501Y-108869744D01*
X180239690Y-108798412D01*
X180250500Y-108744069D01*
X180250500Y-105113840D01*
X180263616Y-105061481D01*
X180262753Y-105061124D01*
X180300300Y-104970474D01*
X180321658Y-104918913D01*
X180336816Y-104842712D01*
X180350500Y-104773920D01*
X180350500Y-104626079D01*
X180321659Y-104481092D01*
X180321658Y-104481091D01*
X180321658Y-104481087D01*
X180297514Y-104422797D01*
X180265087Y-104344511D01*
X180265080Y-104344498D01*
X180182951Y-104221584D01*
X180182948Y-104221580D01*
X180074109Y-104112741D01*
X180075977Y-104110872D01*
X180043099Y-104062577D01*
X180041247Y-103992732D01*
X180077449Y-103932973D01*
X180140213Y-103902273D01*
X180161108Y-103900500D01*
X182151408Y-103900500D01*
X182218447Y-103920185D01*
X182261893Y-103968205D01*
X182296657Y-104036433D01*
X182435483Y-104227510D01*
X182602490Y-104394517D01*
X182793567Y-104533343D01*
X182886090Y-104580486D01*
X183004003Y-104640566D01*
X183004005Y-104640566D01*
X183004008Y-104640568D01*
X183102543Y-104672584D01*
X183228631Y-104713553D01*
X183461903Y-104750500D01*
X183461908Y-104750500D01*
X183698097Y-104750500D01*
X183931368Y-104713553D01*
X183942623Y-104709896D01*
X184155992Y-104640568D01*
X184366433Y-104533343D01*
X184557510Y-104394517D01*
X184724517Y-104227510D01*
X184863343Y-104036433D01*
X184970568Y-103825992D01*
X185007569Y-103712113D01*
X185047007Y-103654439D01*
X185111365Y-103627241D01*
X185180212Y-103639156D01*
G37*
%TD.AperFunction*%
%TA.AperFunction,Conductor*%
G36*
X152066282Y-95300185D02*
G01*
X152112037Y-95352989D01*
X152121981Y-95422147D01*
X152102345Y-95473391D01*
X152006295Y-95617139D01*
X151942184Y-95771917D01*
X151942182Y-95771925D01*
X151909500Y-95936228D01*
X151909500Y-96103771D01*
X151942182Y-96268074D01*
X151942184Y-96268082D01*
X152000061Y-96407808D01*
X152009500Y-96455261D01*
X152009500Y-99437770D01*
X151989815Y-99504809D01*
X151973181Y-99525451D01*
X151256762Y-100241869D01*
X151195439Y-100275354D01*
X151125747Y-100270370D01*
X151069814Y-100228498D01*
X151045397Y-100163034D01*
X151046607Y-100134798D01*
X151050500Y-100110222D01*
X151050500Y-99889778D01*
X151016015Y-99672049D01*
X150963342Y-99509935D01*
X150947896Y-99462396D01*
X150947895Y-99462393D01*
X150889783Y-99348344D01*
X150847815Y-99265978D01*
X150808841Y-99212335D01*
X150718247Y-99087641D01*
X150718243Y-99087636D01*
X150562363Y-98931756D01*
X150562358Y-98931752D01*
X150384025Y-98802187D01*
X150384024Y-98802186D01*
X150384022Y-98802185D01*
X150311220Y-98765090D01*
X150187606Y-98702104D01*
X150187603Y-98702103D01*
X149977952Y-98633985D01*
X149869086Y-98616742D01*
X149760222Y-98599500D01*
X149539778Y-98599500D01*
X149521879Y-98602335D01*
X149322047Y-98633985D01*
X149112396Y-98702103D01*
X149112393Y-98702104D01*
X148915974Y-98802187D01*
X148737641Y-98931752D01*
X148737636Y-98931756D01*
X148581756Y-99087636D01*
X148581752Y-99087641D01*
X148452185Y-99265976D01*
X148395113Y-99377985D01*
X148347139Y-99428780D01*
X148279317Y-99445575D01*
X148213183Y-99423037D01*
X148169732Y-99368322D01*
X148160629Y-99321689D01*
X148160629Y-95632101D01*
X148169273Y-95602660D01*
X148175797Y-95572674D01*
X148179551Y-95567658D01*
X148180314Y-95565062D01*
X148196948Y-95544420D01*
X148262319Y-95479049D01*
X148323642Y-95445564D01*
X148393334Y-95450548D01*
X148437681Y-95479049D01*
X148531344Y-95572712D01*
X148680666Y-95664814D01*
X148847203Y-95719999D01*
X148949991Y-95730500D01*
X149575008Y-95730499D01*
X149575016Y-95730498D01*
X149575019Y-95730498D01*
X149631302Y-95724748D01*
X149677797Y-95719999D01*
X149844334Y-95664814D01*
X149993656Y-95572712D01*
X150117712Y-95448656D01*
X150185099Y-95339402D01*
X150237047Y-95292679D01*
X150290638Y-95280500D01*
X151999243Y-95280500D01*
X152066282Y-95300185D01*
G37*
%TD.AperFunction*%
%TD*%
M02*
