M48
; DRILL file {KiCad 9.0.2} date 2026-09-07T22:26:09+0700
; FORMAT={-:-/ absolute / metric / decimal}
; #@! TF.CreationDate,2026-09-07T22:26:09+07:00
; #@! TF.GenerationSoftware,Kicad,Pcbnew,9.0.2
; #@! TF.FileFunction,Plated,1,2,PTH
FMAT,2
METRIC
; #@! TA.AperFunction,Plated,PTH,ComponentDrill
T1C0.200
; #@! TA.AperFunction,Plated,PTH,ViaDrill
T2C0.300
; #@! TA.AperFunction,Plated,PTH,ViaDrill
T3C0.500
; #@! TA.AperFunction,Plated,PTH,ComponentDrill
T4C0.800
; #@! TA.AperFunction,Plated,PTH,ComponentDrill
T5C0.900
; #@! TA.AperFunction,Plated,PTH,ComponentDrill
T6C0.920
; #@! TA.AperFunction,Plated,PTH,ComponentDrill
T7C1.000
; #@! TA.AperFunction,Plated,PTH,ComponentDrill
T8C1.100
; #@! TA.AperFunction,Plated,PTH,ComponentDrill
T9C2.330
%
G90
G05
T1
X158.015Y-79.71
X158.015Y-81.21
X158.765Y-78.96
X158.765Y-80.46
X158.765Y-81.96
X159.515Y-79.71
X159.515Y-81.21
X160.265Y-78.96
X160.265Y-80.46
X160.265Y-81.96
X161.015Y-79.71
X161.015Y-81.21
T2
X154.23Y-83.07
X154.877Y-89.82
X155.05Y-90.705
X157.43Y-119.22
X157.7Y-84.03
X158.97Y-85.26
X159.55Y-122.21
X159.825Y-128.45
X160.19Y-127.59
X160.24Y-86.54
X160.675Y-128.45
X161.51Y-87.74
X162.78Y-89.02
X165.982Y-98.582
X166.615Y-98.88
X166.85Y-76.38
X166.85Y-90.07
X166.87Y-77.65
X167.76Y-94.65
X168.8Y-99.02
X172.66Y-110.66
X172.9Y-118.23
X178.555Y-101.965
X179.6Y-104.7
X180.82Y-101.85
T3
X134.01Y-121.16
X134.01Y-125.11
X134.16Y-93.71
X134.37Y-132.1
X134.37Y-137.53
X136.46Y-134.8
X136.88Y-128.76
X137.0Y-75.52
X137.53Y-95.73
X139.1Y-123.41
X139.13Y-139.73
X140.61Y-119.54
X143.7Y-116.62
X143.89Y-122.41
X145.68Y-109.44
X145.73Y-113.84
X146.82Y-118.01
X152.05Y-135.64
X152.05Y-143.1
X152.76Y-96.02
X155.38Y-144.82
X155.46Y-138.97
X155.76Y-132.94
X156.04Y-91.07
X157.76Y-114.11
X158.15Y-107.46
X161.72Y-104.37
X161.88Y-116.73
X161.97Y-112.28
X164.24Y-80.27
X165.34Y-124.95
X165.53Y-121.35
X166.22Y-109.85
X166.36Y-113.48
X166.64Y-104.84
X167.91Y-101.05
X168.54Y-128.26
X169.48Y-102.71
X170.91Y-110.79
X171.04Y-122.97
X171.06Y-105.21
X171.15Y-113.25
X171.3Y-100.62
X171.82Y-75.67
X174.38Y-101.68
X174.61Y-140.54
X174.65Y-110.07
X174.83Y-135.61
X174.86Y-106.05
X175.22Y-145.55
X176.3Y-75.5
X178.59Y-86.92
X178.81Y-143.85
X179.04Y-138.01
X180.57Y-99.34
X182.63Y-141.57
X183.63Y-137.62
X183.74Y-87.39
X183.86Y-100.78
X183.88Y-145.66
T4
X139.45Y-135.73
X139.48Y-129.63
X141.45Y-135.73
X141.48Y-129.63
X148.255Y-115.08
X150.255Y-115.08
T5
X149.65Y-97.46
X149.65Y-100.0
X155.61Y-97.46
X155.61Y-100.0
X161.57Y-97.47
X161.57Y-100.01
T6
X163.74Y-131.332
X163.74Y-133.332
X166.24Y-131.332
X166.24Y-133.332
T7
X135.02Y-78.44
X135.02Y-80.98
X135.02Y-83.52
X135.02Y-86.06
X135.02Y-88.6
X135.02Y-91.14
X135.02Y-98.11
X135.02Y-100.65
X135.02Y-103.19
X135.02Y-105.73
X135.02Y-108.27
X135.02Y-110.81
X135.02Y-113.35
X135.02Y-115.89
X135.02Y-118.43
X136.56Y-144.73
X139.1Y-144.73
X141.64Y-144.73
X144.18Y-144.73
X183.035Y-89.76
X183.035Y-92.3
X183.035Y-94.84
X183.035Y-97.38
X183.075Y-77.28
X183.075Y-79.82
X183.075Y-82.36
X183.075Y-84.9
T8
X177.06Y-128.72
X177.06Y-133.22
X177.08Y-103.25
X177.08Y-107.75
X177.08Y-120.2
X177.08Y-124.7
X177.09Y-111.67
X177.09Y-116.17
X183.56Y-128.72
X183.56Y-133.22
X183.58Y-103.25
X183.58Y-107.75
X183.58Y-120.2
X183.58Y-124.7
X183.59Y-111.67
X183.59Y-116.17
T9
X158.97Y-136.042
X171.01Y-136.042
M30
