%TF.GenerationSoftware,KiCad,Pcbnew,9.0.2*%
%TF.CreationDate,2026-09-07T22:26:10+07:00*%
%TF.ProjectId,PWMaster,50574d61-7374-4657-922e-6b696361645f,rev?*%
%TF.SameCoordinates,Original*%
%TF.FileFunction,Soldermask,Bot*%
%TF.FilePolarity,Negative*%
%FSLAX46Y46*%
G04 Gerber Fmt 4.6, Leading zero omitted, Abs format (unit mm)*
G04 Created by KiCad (PCBNEW 9.0.2) date 2026-09-07 22:26:10*
%MOMM*%
%LPD*%
G01*
G04 APERTURE LIST*
G04 Aperture macros list*
%AMRoundRect*
0 Rectangle with rounded corners*
0 $1 Rounding radius*
0 $2 $3 $4 $5 $6 $7 $8 $9 X,Y pos of 4 corners*
0 Add a 4 corners polygon primitive as box body*
4,1,4,$2,$3,$4,$5,$6,$7,$8,$9,$2,$3,0*
0 Add four circle primitives for the rounded corners*
1,1,$1+$1,$2,$3*
1,1,$1+$1,$4,$5*
1,1,$1+$1,$6,$7*
1,1,$1+$1,$8,$9*
0 Add four rect primitives between the rounded corners*
20,1,$1+$1,$2,$3,$4,$5,0*
20,1,$1+$1,$4,$5,$6,$7,0*
20,1,$1+$1,$6,$7,$8,$9,0*
20,1,$1+$1,$8,$9,$2,$3,0*%
G04 Aperture macros list end*
%ADD10R,1.700000X1.700000*%
%ADD11C,1.700000*%
%ADD12C,3.500000*%
%ADD13C,0.600000*%
%ADD14C,2.000000*%
%ADD15RoundRect,0.250000X0.550000X0.550000X-0.550000X0.550000X-0.550000X-0.550000X0.550000X-0.550000X0*%
%ADD16C,1.600000*%
%ADD17R,1.800000X1.800000*%
%ADD18C,1.800000*%
G04 APERTURE END LIST*
D10*
%TO.C,J1*%
X166240000Y-131332500D03*
D11*
X163740000Y-131332500D03*
X163740000Y-133332500D03*
X166240000Y-133332500D03*
D12*
X171010000Y-136042500D03*
X158970000Y-136042500D03*
%TD*%
D13*
%TO.C,U1*%
X158015000Y-79710000D03*
X158015000Y-81210000D03*
X158765000Y-78960000D03*
X158765000Y-80460000D03*
X158765000Y-81960000D03*
X159515000Y-79710000D03*
X159515000Y-81210000D03*
X160265000Y-78960000D03*
X160265000Y-80460000D03*
X160265000Y-81960000D03*
X161015000Y-79710000D03*
X161015000Y-81210000D03*
%TD*%
D14*
%TO.C,SW4*%
X177060000Y-128720000D03*
X183560000Y-128720000D03*
X177060000Y-133220000D03*
X183560000Y-133220000D03*
%TD*%
D15*
%TO.C,C3*%
X141450000Y-135730000D03*
D16*
X139450000Y-135730000D03*
%TD*%
D17*
%TO.C,D3*%
X155610000Y-97460000D03*
D18*
X155610000Y-100000000D03*
%TD*%
D15*
%TO.C,C2*%
X141480000Y-129630000D03*
D16*
X139480000Y-129630000D03*
%TD*%
D17*
%TO.C,D4*%
X161570000Y-97470000D03*
D18*
X161570000Y-100010000D03*
%TD*%
D14*
%TO.C,SW2*%
X183590000Y-116170000D03*
X177090000Y-116170000D03*
X183590000Y-111670000D03*
X177090000Y-111670000D03*
%TD*%
D15*
%TO.C,C4*%
X150255113Y-115080000D03*
D16*
X148255113Y-115080000D03*
%TD*%
D17*
%TO.C,D2*%
X149650000Y-97460000D03*
D18*
X149650000Y-100000000D03*
%TD*%
D14*
%TO.C,SW1*%
X183580000Y-107750000D03*
X177080000Y-107750000D03*
X183580000Y-103250000D03*
X177080000Y-103250000D03*
%TD*%
%TO.C,SW3*%
X183580000Y-124700000D03*
X177080000Y-124700000D03*
X183580000Y-120200000D03*
X177080000Y-120200000D03*
%TD*%
D10*
%TO.C,J2*%
X144180000Y-144730000D03*
D11*
X141640000Y-144730000D03*
X139100000Y-144730000D03*
X136560000Y-144730000D03*
%TD*%
D10*
%TO.C,J4*%
X183075000Y-77280000D03*
D11*
X183075000Y-79820000D03*
X183075000Y-82360000D03*
X183075000Y-84900000D03*
%TD*%
D10*
%TO.C,J5*%
X135020000Y-78440000D03*
D11*
X135020000Y-80980000D03*
X135020000Y-83520000D03*
X135020000Y-86060000D03*
X135020000Y-88600000D03*
X135020000Y-91140000D03*
%TD*%
D10*
%TO.C,J3*%
X183035000Y-97380000D03*
D11*
X183035000Y-94840000D03*
X183035000Y-92300000D03*
X183035000Y-89760000D03*
%TD*%
D10*
%TO.C,J6*%
X135020000Y-98110000D03*
D11*
X135020000Y-100650000D03*
X135020000Y-103190000D03*
X135020000Y-105730000D03*
X135020000Y-108270000D03*
X135020000Y-110810000D03*
X135020000Y-113350000D03*
X135020000Y-115890000D03*
X135020000Y-118430000D03*
%TD*%
M02*
