%TF.GenerationSoftware,KiCad,Pcbnew,9.0.2*%
%TF.CreationDate,2026-09-07T22:26:10+07:00*%
%TF.ProjectId,PWMaster,50574d61-7374-4657-922e-6b696361645f,rev?*%
%TF.SameCoordinates,Original*%
%TF.FileFunction,Legend,Top*%
%TF.FilePolarity,Positive*%
%FSLAX46Y46*%
G04 Gerber Fmt 4.6, Leading zero omitted, Abs format (unit mm)*
G04 Created by KiCad (PCBNEW 9.0.2) date 2026-09-07 22:26:10*
%MOMM*%
%LPD*%
G01*
G04 APERTURE LIST*
%ADD10C,0.125000*%
%ADD11C,0.150000*%
%ADD12C,0.120000*%
G04 APERTURE END LIST*
D10*
X142706521Y-141441119D02*
X142230331Y-141441119D01*
X142230331Y-141441119D02*
X142182712Y-141917309D01*
X142182712Y-141917309D02*
X142230331Y-141869690D01*
X142230331Y-141869690D02*
X142325569Y-141822071D01*
X142325569Y-141822071D02*
X142563664Y-141822071D01*
X142563664Y-141822071D02*
X142658902Y-141869690D01*
X142658902Y-141869690D02*
X142706521Y-141917309D01*
X142706521Y-141917309D02*
X142754140Y-142012547D01*
X142754140Y-142012547D02*
X142754140Y-142250642D01*
X142754140Y-142250642D02*
X142706521Y-142345880D01*
X142706521Y-142345880D02*
X142658902Y-142393500D01*
X142658902Y-142393500D02*
X142563664Y-142441119D01*
X142563664Y-142441119D02*
X142325569Y-142441119D01*
X142325569Y-142441119D02*
X142230331Y-142393500D01*
X142230331Y-142393500D02*
X142182712Y-142345880D01*
X143039855Y-141441119D02*
X143373188Y-142441119D01*
X143373188Y-142441119D02*
X143706521Y-141441119D01*
X136924140Y-141488738D02*
X136828902Y-141441119D01*
X136828902Y-141441119D02*
X136686045Y-141441119D01*
X136686045Y-141441119D02*
X136543188Y-141488738D01*
X136543188Y-141488738D02*
X136447950Y-141583976D01*
X136447950Y-141583976D02*
X136400331Y-141679214D01*
X136400331Y-141679214D02*
X136352712Y-141869690D01*
X136352712Y-141869690D02*
X136352712Y-142012547D01*
X136352712Y-142012547D02*
X136400331Y-142203023D01*
X136400331Y-142203023D02*
X136447950Y-142298261D01*
X136447950Y-142298261D02*
X136543188Y-142393500D01*
X136543188Y-142393500D02*
X136686045Y-142441119D01*
X136686045Y-142441119D02*
X136781283Y-142441119D01*
X136781283Y-142441119D02*
X136924140Y-142393500D01*
X136924140Y-142393500D02*
X136971759Y-142345880D01*
X136971759Y-142345880D02*
X136971759Y-142012547D01*
X136971759Y-142012547D02*
X136781283Y-142012547D01*
X137400331Y-142441119D02*
X137400331Y-141441119D01*
X137400331Y-141441119D02*
X137971759Y-142441119D01*
X137971759Y-142441119D02*
X137971759Y-141441119D01*
X138447950Y-142441119D02*
X138447950Y-141441119D01*
X138447950Y-141441119D02*
X138686045Y-141441119D01*
X138686045Y-141441119D02*
X138828902Y-141488738D01*
X138828902Y-141488738D02*
X138924140Y-141583976D01*
X138924140Y-141583976D02*
X138971759Y-141679214D01*
X138971759Y-141679214D02*
X139019378Y-141869690D01*
X139019378Y-141869690D02*
X139019378Y-142012547D01*
X139019378Y-142012547D02*
X138971759Y-142203023D01*
X138971759Y-142203023D02*
X138924140Y-142298261D01*
X138924140Y-142298261D02*
X138828902Y-142393500D01*
X138828902Y-142393500D02*
X138686045Y-142441119D01*
X138686045Y-142441119D02*
X138447950Y-142441119D01*
X177108902Y-95317785D02*
X177108902Y-94317785D01*
X177108902Y-94317785D02*
X177442235Y-95032070D01*
X177442235Y-95032070D02*
X177775568Y-94317785D01*
X177775568Y-94317785D02*
X177775568Y-95317785D01*
X178108902Y-94317785D02*
X178680330Y-94317785D01*
X178394616Y-95317785D02*
X178394616Y-94317785D01*
X179013664Y-95317785D02*
X179013664Y-94317785D01*
X179013664Y-94317785D02*
X179251759Y-94317785D01*
X179251759Y-94317785D02*
X179394616Y-94365404D01*
X179394616Y-94365404D02*
X179489854Y-94460642D01*
X179489854Y-94460642D02*
X179537473Y-94555880D01*
X179537473Y-94555880D02*
X179585092Y-94746356D01*
X179585092Y-94746356D02*
X179585092Y-94889213D01*
X179585092Y-94889213D02*
X179537473Y-95079689D01*
X179537473Y-95079689D02*
X179489854Y-95174927D01*
X179489854Y-95174927D02*
X179394616Y-95270166D01*
X179394616Y-95270166D02*
X179251759Y-95317785D01*
X179251759Y-95317785D02*
X179013664Y-95317785D01*
X180204140Y-94317785D02*
X180394616Y-94317785D01*
X180394616Y-94317785D02*
X180489854Y-94365404D01*
X180489854Y-94365404D02*
X180585092Y-94460642D01*
X180585092Y-94460642D02*
X180632711Y-94651118D01*
X180632711Y-94651118D02*
X180632711Y-94984451D01*
X180632711Y-94984451D02*
X180585092Y-95174927D01*
X180585092Y-95174927D02*
X180489854Y-95270166D01*
X180489854Y-95270166D02*
X180394616Y-95317785D01*
X180394616Y-95317785D02*
X180204140Y-95317785D01*
X180204140Y-95317785D02*
X180108902Y-95270166D01*
X180108902Y-95270166D02*
X180013664Y-95174927D01*
X180013664Y-95174927D02*
X179966045Y-94984451D01*
X179966045Y-94984451D02*
X179966045Y-94651118D01*
X179966045Y-94651118D02*
X180013664Y-94460642D01*
X180013664Y-94460642D02*
X180108902Y-94365404D01*
X180108902Y-94365404D02*
X180204140Y-94317785D01*
X177680331Y-92761119D02*
X177680331Y-91761119D01*
X177680331Y-91761119D02*
X178013664Y-92475404D01*
X178013664Y-92475404D02*
X178346997Y-91761119D01*
X178346997Y-91761119D02*
X178346997Y-92761119D01*
X178680331Y-91761119D02*
X179251759Y-91761119D01*
X178966045Y-92761119D02*
X178966045Y-91761119D01*
X179585093Y-92761119D02*
X179585093Y-91761119D01*
X179585093Y-91761119D02*
X179823188Y-91761119D01*
X179823188Y-91761119D02*
X179966045Y-91808738D01*
X179966045Y-91808738D02*
X180061283Y-91903976D01*
X180061283Y-91903976D02*
X180108902Y-91999214D01*
X180108902Y-91999214D02*
X180156521Y-92189690D01*
X180156521Y-92189690D02*
X180156521Y-92332547D01*
X180156521Y-92332547D02*
X180108902Y-92523023D01*
X180108902Y-92523023D02*
X180061283Y-92618261D01*
X180061283Y-92618261D02*
X179966045Y-92713500D01*
X179966045Y-92713500D02*
X179823188Y-92761119D01*
X179823188Y-92761119D02*
X179585093Y-92761119D01*
X180585093Y-92761119D02*
X180585093Y-91761119D01*
X177061283Y-90204452D02*
X177061283Y-89204452D01*
X177061283Y-89204452D02*
X177394616Y-89918737D01*
X177394616Y-89918737D02*
X177727949Y-89204452D01*
X177727949Y-89204452D02*
X177727949Y-90204452D01*
X178061283Y-89204452D02*
X178632711Y-89204452D01*
X178346997Y-90204452D02*
X178346997Y-89204452D01*
X178966045Y-90204452D02*
X178966045Y-89204452D01*
X178966045Y-89204452D02*
X179299378Y-89918737D01*
X179299378Y-89918737D02*
X179632711Y-89204452D01*
X179632711Y-89204452D02*
X179632711Y-90204452D01*
X180061283Y-90156833D02*
X180204140Y-90204452D01*
X180204140Y-90204452D02*
X180442235Y-90204452D01*
X180442235Y-90204452D02*
X180537473Y-90156833D01*
X180537473Y-90156833D02*
X180585092Y-90109213D01*
X180585092Y-90109213D02*
X180632711Y-90013975D01*
X180632711Y-90013975D02*
X180632711Y-89918737D01*
X180632711Y-89918737D02*
X180585092Y-89823499D01*
X180585092Y-89823499D02*
X180537473Y-89775880D01*
X180537473Y-89775880D02*
X180442235Y-89728261D01*
X180442235Y-89728261D02*
X180251759Y-89680642D01*
X180251759Y-89680642D02*
X180156521Y-89633023D01*
X180156521Y-89633023D02*
X180108902Y-89585404D01*
X180108902Y-89585404D02*
X180061283Y-89490166D01*
X180061283Y-89490166D02*
X180061283Y-89394928D01*
X180061283Y-89394928D02*
X180108902Y-89299690D01*
X180108902Y-89299690D02*
X180156521Y-89252071D01*
X180156521Y-89252071D02*
X180251759Y-89204452D01*
X180251759Y-89204452D02*
X180489854Y-89204452D01*
X180489854Y-89204452D02*
X180632711Y-89252071D01*
X177156521Y-97874452D02*
X177156521Y-96874452D01*
X177156521Y-96874452D02*
X177489854Y-97588737D01*
X177489854Y-97588737D02*
X177823187Y-96874452D01*
X177823187Y-96874452D02*
X177823187Y-97874452D01*
X178156521Y-96874452D02*
X178727949Y-96874452D01*
X178442235Y-97874452D02*
X178442235Y-96874452D01*
X179632711Y-97779213D02*
X179585092Y-97826833D01*
X179585092Y-97826833D02*
X179442235Y-97874452D01*
X179442235Y-97874452D02*
X179346997Y-97874452D01*
X179346997Y-97874452D02*
X179204140Y-97826833D01*
X179204140Y-97826833D02*
X179108902Y-97731594D01*
X179108902Y-97731594D02*
X179061283Y-97636356D01*
X179061283Y-97636356D02*
X179013664Y-97445880D01*
X179013664Y-97445880D02*
X179013664Y-97303023D01*
X179013664Y-97303023D02*
X179061283Y-97112547D01*
X179061283Y-97112547D02*
X179108902Y-97017309D01*
X179108902Y-97017309D02*
X179204140Y-96922071D01*
X179204140Y-96922071D02*
X179346997Y-96874452D01*
X179346997Y-96874452D02*
X179442235Y-96874452D01*
X179442235Y-96874452D02*
X179585092Y-96922071D01*
X179585092Y-96922071D02*
X179632711Y-96969690D01*
X180061283Y-97874452D02*
X180061283Y-96874452D01*
X180632711Y-97874452D02*
X180204140Y-97303023D01*
X180632711Y-96874452D02*
X180061283Y-97445880D01*
X178455093Y-76671119D02*
X179074140Y-76671119D01*
X179074140Y-76671119D02*
X178740807Y-77052071D01*
X178740807Y-77052071D02*
X178883664Y-77052071D01*
X178883664Y-77052071D02*
X178978902Y-77099690D01*
X178978902Y-77099690D02*
X179026521Y-77147309D01*
X179026521Y-77147309D02*
X179074140Y-77242547D01*
X179074140Y-77242547D02*
X179074140Y-77480642D01*
X179074140Y-77480642D02*
X179026521Y-77575880D01*
X179026521Y-77575880D02*
X178978902Y-77623500D01*
X178978902Y-77623500D02*
X178883664Y-77671119D01*
X178883664Y-77671119D02*
X178597950Y-77671119D01*
X178597950Y-77671119D02*
X178502712Y-77623500D01*
X178502712Y-77623500D02*
X178455093Y-77575880D01*
X179359855Y-76671119D02*
X179693188Y-77671119D01*
X179693188Y-77671119D02*
X180026521Y-76671119D01*
X180264617Y-76671119D02*
X180883664Y-76671119D01*
X180883664Y-76671119D02*
X180550331Y-77052071D01*
X180550331Y-77052071D02*
X180693188Y-77052071D01*
X180693188Y-77052071D02*
X180788426Y-77099690D01*
X180788426Y-77099690D02*
X180836045Y-77147309D01*
X180836045Y-77147309D02*
X180883664Y-77242547D01*
X180883664Y-77242547D02*
X180883664Y-77480642D01*
X180883664Y-77480642D02*
X180836045Y-77575880D01*
X180836045Y-77575880D02*
X180788426Y-77623500D01*
X180788426Y-77623500D02*
X180693188Y-77671119D01*
X180693188Y-77671119D02*
X180407474Y-77671119D01*
X180407474Y-77671119D02*
X180312236Y-77623500D01*
X180312236Y-77623500D02*
X180264617Y-77575880D01*
X177502712Y-82097786D02*
X178074140Y-82097786D01*
X177788426Y-83097786D02*
X177788426Y-82097786D01*
X178312236Y-82097786D02*
X178978902Y-83097786D01*
X178978902Y-82097786D02*
X178312236Y-83097786D01*
X179359855Y-83097786D02*
X179359855Y-82097786D01*
X179359855Y-82097786D02*
X179597950Y-82097786D01*
X179597950Y-82097786D02*
X179740807Y-82145405D01*
X179740807Y-82145405D02*
X179836045Y-82240643D01*
X179836045Y-82240643D02*
X179883664Y-82335881D01*
X179883664Y-82335881D02*
X179931283Y-82526357D01*
X179931283Y-82526357D02*
X179931283Y-82669214D01*
X179931283Y-82669214D02*
X179883664Y-82859690D01*
X179883664Y-82859690D02*
X179836045Y-82954928D01*
X179836045Y-82954928D02*
X179740807Y-83050167D01*
X179740807Y-83050167D02*
X179597950Y-83097786D01*
X179597950Y-83097786D02*
X179359855Y-83097786D01*
X180550331Y-82097786D02*
X180645569Y-82097786D01*
X180645569Y-82097786D02*
X180740807Y-82145405D01*
X180740807Y-82145405D02*
X180788426Y-82193024D01*
X180788426Y-82193024D02*
X180836045Y-82288262D01*
X180836045Y-82288262D02*
X180883664Y-82478738D01*
X180883664Y-82478738D02*
X180883664Y-82716833D01*
X180883664Y-82716833D02*
X180836045Y-82907309D01*
X180836045Y-82907309D02*
X180788426Y-83002547D01*
X180788426Y-83002547D02*
X180740807Y-83050167D01*
X180740807Y-83050167D02*
X180645569Y-83097786D01*
X180645569Y-83097786D02*
X180550331Y-83097786D01*
X180550331Y-83097786D02*
X180455093Y-83050167D01*
X180455093Y-83050167D02*
X180407474Y-83002547D01*
X180407474Y-83002547D02*
X180359855Y-82907309D01*
X180359855Y-82907309D02*
X180312236Y-82716833D01*
X180312236Y-82716833D02*
X180312236Y-82478738D01*
X180312236Y-82478738D02*
X180359855Y-82288262D01*
X180359855Y-82288262D02*
X180407474Y-82193024D01*
X180407474Y-82193024D02*
X180455093Y-82145405D01*
X180455093Y-82145405D02*
X180550331Y-82097786D01*
X178788426Y-79432071D02*
X178693188Y-79384452D01*
X178693188Y-79384452D02*
X178550331Y-79384452D01*
X178550331Y-79384452D02*
X178407474Y-79432071D01*
X178407474Y-79432071D02*
X178312236Y-79527309D01*
X178312236Y-79527309D02*
X178264617Y-79622547D01*
X178264617Y-79622547D02*
X178216998Y-79813023D01*
X178216998Y-79813023D02*
X178216998Y-79955880D01*
X178216998Y-79955880D02*
X178264617Y-80146356D01*
X178264617Y-80146356D02*
X178312236Y-80241594D01*
X178312236Y-80241594D02*
X178407474Y-80336833D01*
X178407474Y-80336833D02*
X178550331Y-80384452D01*
X178550331Y-80384452D02*
X178645569Y-80384452D01*
X178645569Y-80384452D02*
X178788426Y-80336833D01*
X178788426Y-80336833D02*
X178836045Y-80289213D01*
X178836045Y-80289213D02*
X178836045Y-79955880D01*
X178836045Y-79955880D02*
X178645569Y-79955880D01*
X179264617Y-80384452D02*
X179264617Y-79384452D01*
X179264617Y-79384452D02*
X179836045Y-80384452D01*
X179836045Y-80384452D02*
X179836045Y-79384452D01*
X180312236Y-80384452D02*
X180312236Y-79384452D01*
X180312236Y-79384452D02*
X180550331Y-79384452D01*
X180550331Y-79384452D02*
X180693188Y-79432071D01*
X180693188Y-79432071D02*
X180788426Y-79527309D01*
X180788426Y-79527309D02*
X180836045Y-79622547D01*
X180836045Y-79622547D02*
X180883664Y-79813023D01*
X180883664Y-79813023D02*
X180883664Y-79955880D01*
X180883664Y-79955880D02*
X180836045Y-80146356D01*
X180836045Y-80146356D02*
X180788426Y-80241594D01*
X180788426Y-80241594D02*
X180693188Y-80336833D01*
X180693188Y-80336833D02*
X180550331Y-80384452D01*
X180550331Y-80384452D02*
X180312236Y-80384452D01*
X177978902Y-85811119D02*
X177645569Y-85334928D01*
X177407474Y-85811119D02*
X177407474Y-84811119D01*
X177407474Y-84811119D02*
X177788426Y-84811119D01*
X177788426Y-84811119D02*
X177883664Y-84858738D01*
X177883664Y-84858738D02*
X177931283Y-84906357D01*
X177931283Y-84906357D02*
X177978902Y-85001595D01*
X177978902Y-85001595D02*
X177978902Y-85144452D01*
X177978902Y-85144452D02*
X177931283Y-85239690D01*
X177931283Y-85239690D02*
X177883664Y-85287309D01*
X177883664Y-85287309D02*
X177788426Y-85334928D01*
X177788426Y-85334928D02*
X177407474Y-85334928D01*
X178312236Y-84811119D02*
X178978902Y-85811119D01*
X178978902Y-84811119D02*
X178312236Y-85811119D01*
X179359855Y-85811119D02*
X179359855Y-84811119D01*
X179359855Y-84811119D02*
X179597950Y-84811119D01*
X179597950Y-84811119D02*
X179740807Y-84858738D01*
X179740807Y-84858738D02*
X179836045Y-84953976D01*
X179836045Y-84953976D02*
X179883664Y-85049214D01*
X179883664Y-85049214D02*
X179931283Y-85239690D01*
X179931283Y-85239690D02*
X179931283Y-85382547D01*
X179931283Y-85382547D02*
X179883664Y-85573023D01*
X179883664Y-85573023D02*
X179836045Y-85668261D01*
X179836045Y-85668261D02*
X179740807Y-85763500D01*
X179740807Y-85763500D02*
X179597950Y-85811119D01*
X179597950Y-85811119D02*
X179359855Y-85811119D01*
X180550331Y-84811119D02*
X180645569Y-84811119D01*
X180645569Y-84811119D02*
X180740807Y-84858738D01*
X180740807Y-84858738D02*
X180788426Y-84906357D01*
X180788426Y-84906357D02*
X180836045Y-85001595D01*
X180836045Y-85001595D02*
X180883664Y-85192071D01*
X180883664Y-85192071D02*
X180883664Y-85430166D01*
X180883664Y-85430166D02*
X180836045Y-85620642D01*
X180836045Y-85620642D02*
X180788426Y-85715880D01*
X180788426Y-85715880D02*
X180740807Y-85763500D01*
X180740807Y-85763500D02*
X180645569Y-85811119D01*
X180645569Y-85811119D02*
X180550331Y-85811119D01*
X180550331Y-85811119D02*
X180455093Y-85763500D01*
X180455093Y-85763500D02*
X180407474Y-85715880D01*
X180407474Y-85715880D02*
X180359855Y-85620642D01*
X180359855Y-85620642D02*
X180312236Y-85430166D01*
X180312236Y-85430166D02*
X180312236Y-85192071D01*
X180312236Y-85192071D02*
X180359855Y-85001595D01*
X180359855Y-85001595D02*
X180407474Y-84906357D01*
X180407474Y-84906357D02*
X180455093Y-84858738D01*
X180455093Y-84858738D02*
X180550331Y-84811119D01*
X137410331Y-108869071D02*
X137410331Y-107869071D01*
X137410331Y-107869071D02*
X137791283Y-107869071D01*
X137791283Y-107869071D02*
X137886521Y-107916690D01*
X137886521Y-107916690D02*
X137934140Y-107964309D01*
X137934140Y-107964309D02*
X137981759Y-108059547D01*
X137981759Y-108059547D02*
X137981759Y-108202404D01*
X137981759Y-108202404D02*
X137934140Y-108297642D01*
X137934140Y-108297642D02*
X137886521Y-108345261D01*
X137886521Y-108345261D02*
X137791283Y-108392880D01*
X137791283Y-108392880D02*
X137410331Y-108392880D01*
X138934140Y-108869071D02*
X138362712Y-108869071D01*
X138648426Y-108869071D02*
X138648426Y-107869071D01*
X138648426Y-107869071D02*
X138553188Y-108011928D01*
X138553188Y-108011928D02*
X138457950Y-108107166D01*
X138457950Y-108107166D02*
X138362712Y-108154785D01*
X139791283Y-108202404D02*
X139791283Y-108869071D01*
X139553188Y-107821452D02*
X139315093Y-108535737D01*
X139315093Y-108535737D02*
X139934140Y-108535737D01*
X137410331Y-111403558D02*
X137410331Y-110403558D01*
X137410331Y-110403558D02*
X137791283Y-110403558D01*
X137791283Y-110403558D02*
X137886521Y-110451177D01*
X137886521Y-110451177D02*
X137934140Y-110498796D01*
X137934140Y-110498796D02*
X137981759Y-110594034D01*
X137981759Y-110594034D02*
X137981759Y-110736891D01*
X137981759Y-110736891D02*
X137934140Y-110832129D01*
X137934140Y-110832129D02*
X137886521Y-110879748D01*
X137886521Y-110879748D02*
X137791283Y-110927367D01*
X137791283Y-110927367D02*
X137410331Y-110927367D01*
X138934140Y-111403558D02*
X138362712Y-111403558D01*
X138648426Y-111403558D02*
X138648426Y-110403558D01*
X138648426Y-110403558D02*
X138553188Y-110546415D01*
X138553188Y-110546415D02*
X138457950Y-110641653D01*
X138457950Y-110641653D02*
X138362712Y-110689272D01*
X139838902Y-110403558D02*
X139362712Y-110403558D01*
X139362712Y-110403558D02*
X139315093Y-110879748D01*
X139315093Y-110879748D02*
X139362712Y-110832129D01*
X139362712Y-110832129D02*
X139457950Y-110784510D01*
X139457950Y-110784510D02*
X139696045Y-110784510D01*
X139696045Y-110784510D02*
X139791283Y-110832129D01*
X139791283Y-110832129D02*
X139838902Y-110879748D01*
X139838902Y-110879748D02*
X139886521Y-110974986D01*
X139886521Y-110974986D02*
X139886521Y-111213081D01*
X139886521Y-111213081D02*
X139838902Y-111308319D01*
X139838902Y-111308319D02*
X139791283Y-111355939D01*
X139791283Y-111355939D02*
X139696045Y-111403558D01*
X139696045Y-111403558D02*
X139457950Y-111403558D01*
X139457950Y-111403558D02*
X139362712Y-111355939D01*
X139362712Y-111355939D02*
X139315093Y-111308319D01*
X137410331Y-103800095D02*
X137410331Y-102800095D01*
X137410331Y-102800095D02*
X137791283Y-102800095D01*
X137791283Y-102800095D02*
X137886521Y-102847714D01*
X137886521Y-102847714D02*
X137934140Y-102895333D01*
X137934140Y-102895333D02*
X137981759Y-102990571D01*
X137981759Y-102990571D02*
X137981759Y-103133428D01*
X137981759Y-103133428D02*
X137934140Y-103228666D01*
X137934140Y-103228666D02*
X137886521Y-103276285D01*
X137886521Y-103276285D02*
X137791283Y-103323904D01*
X137791283Y-103323904D02*
X137410331Y-103323904D01*
X138934140Y-103800095D02*
X138362712Y-103800095D01*
X138648426Y-103800095D02*
X138648426Y-102800095D01*
X138648426Y-102800095D02*
X138553188Y-102942952D01*
X138553188Y-102942952D02*
X138457950Y-103038190D01*
X138457950Y-103038190D02*
X138362712Y-103085809D01*
X139315093Y-102895333D02*
X139362712Y-102847714D01*
X139362712Y-102847714D02*
X139457950Y-102800095D01*
X139457950Y-102800095D02*
X139696045Y-102800095D01*
X139696045Y-102800095D02*
X139791283Y-102847714D01*
X139791283Y-102847714D02*
X139838902Y-102895333D01*
X139838902Y-102895333D02*
X139886521Y-102990571D01*
X139886521Y-102990571D02*
X139886521Y-103085809D01*
X139886521Y-103085809D02*
X139838902Y-103228666D01*
X139838902Y-103228666D02*
X139267474Y-103800095D01*
X139267474Y-103800095D02*
X139886521Y-103800095D01*
X137410331Y-98731119D02*
X137410331Y-97731119D01*
X137410331Y-97731119D02*
X137791283Y-97731119D01*
X137791283Y-97731119D02*
X137886521Y-97778738D01*
X137886521Y-97778738D02*
X137934140Y-97826357D01*
X137934140Y-97826357D02*
X137981759Y-97921595D01*
X137981759Y-97921595D02*
X137981759Y-98064452D01*
X137981759Y-98064452D02*
X137934140Y-98159690D01*
X137934140Y-98159690D02*
X137886521Y-98207309D01*
X137886521Y-98207309D02*
X137791283Y-98254928D01*
X137791283Y-98254928D02*
X137410331Y-98254928D01*
X138934140Y-98731119D02*
X138362712Y-98731119D01*
X138648426Y-98731119D02*
X138648426Y-97731119D01*
X138648426Y-97731119D02*
X138553188Y-97873976D01*
X138553188Y-97873976D02*
X138457950Y-97969214D01*
X138457950Y-97969214D02*
X138362712Y-98016833D01*
X139553188Y-97731119D02*
X139648426Y-97731119D01*
X139648426Y-97731119D02*
X139743664Y-97778738D01*
X139743664Y-97778738D02*
X139791283Y-97826357D01*
X139791283Y-97826357D02*
X139838902Y-97921595D01*
X139838902Y-97921595D02*
X139886521Y-98112071D01*
X139886521Y-98112071D02*
X139886521Y-98350166D01*
X139886521Y-98350166D02*
X139838902Y-98540642D01*
X139838902Y-98540642D02*
X139791283Y-98635880D01*
X139791283Y-98635880D02*
X139743664Y-98683500D01*
X139743664Y-98683500D02*
X139648426Y-98731119D01*
X139648426Y-98731119D02*
X139553188Y-98731119D01*
X139553188Y-98731119D02*
X139457950Y-98683500D01*
X139457950Y-98683500D02*
X139410331Y-98635880D01*
X139410331Y-98635880D02*
X139362712Y-98540642D01*
X139362712Y-98540642D02*
X139315093Y-98350166D01*
X139315093Y-98350166D02*
X139315093Y-98112071D01*
X139315093Y-98112071D02*
X139362712Y-97921595D01*
X139362712Y-97921595D02*
X139410331Y-97826357D01*
X139410331Y-97826357D02*
X139457950Y-97778738D01*
X139457950Y-97778738D02*
X139553188Y-97731119D01*
X137410331Y-101265607D02*
X137410331Y-100265607D01*
X137410331Y-100265607D02*
X137791283Y-100265607D01*
X137791283Y-100265607D02*
X137886521Y-100313226D01*
X137886521Y-100313226D02*
X137934140Y-100360845D01*
X137934140Y-100360845D02*
X137981759Y-100456083D01*
X137981759Y-100456083D02*
X137981759Y-100598940D01*
X137981759Y-100598940D02*
X137934140Y-100694178D01*
X137934140Y-100694178D02*
X137886521Y-100741797D01*
X137886521Y-100741797D02*
X137791283Y-100789416D01*
X137791283Y-100789416D02*
X137410331Y-100789416D01*
X138934140Y-101265607D02*
X138362712Y-101265607D01*
X138648426Y-101265607D02*
X138648426Y-100265607D01*
X138648426Y-100265607D02*
X138553188Y-100408464D01*
X138553188Y-100408464D02*
X138457950Y-100503702D01*
X138457950Y-100503702D02*
X138362712Y-100551321D01*
X139886521Y-101265607D02*
X139315093Y-101265607D01*
X139600807Y-101265607D02*
X139600807Y-100265607D01*
X139600807Y-100265607D02*
X139505569Y-100408464D01*
X139505569Y-100408464D02*
X139410331Y-100503702D01*
X139410331Y-100503702D02*
X139315093Y-100551321D01*
X137410331Y-113938046D02*
X137410331Y-112938046D01*
X137410331Y-112938046D02*
X137791283Y-112938046D01*
X137791283Y-112938046D02*
X137886521Y-112985665D01*
X137886521Y-112985665D02*
X137934140Y-113033284D01*
X137934140Y-113033284D02*
X137981759Y-113128522D01*
X137981759Y-113128522D02*
X137981759Y-113271379D01*
X137981759Y-113271379D02*
X137934140Y-113366617D01*
X137934140Y-113366617D02*
X137886521Y-113414236D01*
X137886521Y-113414236D02*
X137791283Y-113461855D01*
X137791283Y-113461855D02*
X137410331Y-113461855D01*
X138934140Y-113938046D02*
X138362712Y-113938046D01*
X138648426Y-113938046D02*
X138648426Y-112938046D01*
X138648426Y-112938046D02*
X138553188Y-113080903D01*
X138553188Y-113080903D02*
X138457950Y-113176141D01*
X138457950Y-113176141D02*
X138362712Y-113223760D01*
X139791283Y-112938046D02*
X139600807Y-112938046D01*
X139600807Y-112938046D02*
X139505569Y-112985665D01*
X139505569Y-112985665D02*
X139457950Y-113033284D01*
X139457950Y-113033284D02*
X139362712Y-113176141D01*
X139362712Y-113176141D02*
X139315093Y-113366617D01*
X139315093Y-113366617D02*
X139315093Y-113747569D01*
X139315093Y-113747569D02*
X139362712Y-113842807D01*
X139362712Y-113842807D02*
X139410331Y-113890427D01*
X139410331Y-113890427D02*
X139505569Y-113938046D01*
X139505569Y-113938046D02*
X139696045Y-113938046D01*
X139696045Y-113938046D02*
X139791283Y-113890427D01*
X139791283Y-113890427D02*
X139838902Y-113842807D01*
X139838902Y-113842807D02*
X139886521Y-113747569D01*
X139886521Y-113747569D02*
X139886521Y-113509474D01*
X139886521Y-113509474D02*
X139838902Y-113414236D01*
X139838902Y-113414236D02*
X139791283Y-113366617D01*
X139791283Y-113366617D02*
X139696045Y-113318998D01*
X139696045Y-113318998D02*
X139505569Y-113318998D01*
X139505569Y-113318998D02*
X139410331Y-113366617D01*
X139410331Y-113366617D02*
X139362712Y-113414236D01*
X139362712Y-113414236D02*
X139315093Y-113509474D01*
X137410331Y-119007022D02*
X137410331Y-118007022D01*
X137410331Y-118007022D02*
X137791283Y-118007022D01*
X137791283Y-118007022D02*
X137886521Y-118054641D01*
X137886521Y-118054641D02*
X137934140Y-118102260D01*
X137934140Y-118102260D02*
X137981759Y-118197498D01*
X137981759Y-118197498D02*
X137981759Y-118340355D01*
X137981759Y-118340355D02*
X137934140Y-118435593D01*
X137934140Y-118435593D02*
X137886521Y-118483212D01*
X137886521Y-118483212D02*
X137791283Y-118530831D01*
X137791283Y-118530831D02*
X137410331Y-118530831D01*
X138934140Y-119007022D02*
X138362712Y-119007022D01*
X138648426Y-119007022D02*
X138648426Y-118007022D01*
X138648426Y-118007022D02*
X138553188Y-118149879D01*
X138553188Y-118149879D02*
X138457950Y-118245117D01*
X138457950Y-118245117D02*
X138362712Y-118292736D01*
X139505569Y-118435593D02*
X139410331Y-118387974D01*
X139410331Y-118387974D02*
X139362712Y-118340355D01*
X139362712Y-118340355D02*
X139315093Y-118245117D01*
X139315093Y-118245117D02*
X139315093Y-118197498D01*
X139315093Y-118197498D02*
X139362712Y-118102260D01*
X139362712Y-118102260D02*
X139410331Y-118054641D01*
X139410331Y-118054641D02*
X139505569Y-118007022D01*
X139505569Y-118007022D02*
X139696045Y-118007022D01*
X139696045Y-118007022D02*
X139791283Y-118054641D01*
X139791283Y-118054641D02*
X139838902Y-118102260D01*
X139838902Y-118102260D02*
X139886521Y-118197498D01*
X139886521Y-118197498D02*
X139886521Y-118245117D01*
X139886521Y-118245117D02*
X139838902Y-118340355D01*
X139838902Y-118340355D02*
X139791283Y-118387974D01*
X139791283Y-118387974D02*
X139696045Y-118435593D01*
X139696045Y-118435593D02*
X139505569Y-118435593D01*
X139505569Y-118435593D02*
X139410331Y-118483212D01*
X139410331Y-118483212D02*
X139362712Y-118530831D01*
X139362712Y-118530831D02*
X139315093Y-118626069D01*
X139315093Y-118626069D02*
X139315093Y-118816545D01*
X139315093Y-118816545D02*
X139362712Y-118911783D01*
X139362712Y-118911783D02*
X139410331Y-118959403D01*
X139410331Y-118959403D02*
X139505569Y-119007022D01*
X139505569Y-119007022D02*
X139696045Y-119007022D01*
X139696045Y-119007022D02*
X139791283Y-118959403D01*
X139791283Y-118959403D02*
X139838902Y-118911783D01*
X139838902Y-118911783D02*
X139886521Y-118816545D01*
X139886521Y-118816545D02*
X139886521Y-118626069D01*
X139886521Y-118626069D02*
X139838902Y-118530831D01*
X139838902Y-118530831D02*
X139791283Y-118483212D01*
X139791283Y-118483212D02*
X139696045Y-118435593D01*
X137410331Y-116472534D02*
X137410331Y-115472534D01*
X137410331Y-115472534D02*
X137791283Y-115472534D01*
X137791283Y-115472534D02*
X137886521Y-115520153D01*
X137886521Y-115520153D02*
X137934140Y-115567772D01*
X137934140Y-115567772D02*
X137981759Y-115663010D01*
X137981759Y-115663010D02*
X137981759Y-115805867D01*
X137981759Y-115805867D02*
X137934140Y-115901105D01*
X137934140Y-115901105D02*
X137886521Y-115948724D01*
X137886521Y-115948724D02*
X137791283Y-115996343D01*
X137791283Y-115996343D02*
X137410331Y-115996343D01*
X138934140Y-116472534D02*
X138362712Y-116472534D01*
X138648426Y-116472534D02*
X138648426Y-115472534D01*
X138648426Y-115472534D02*
X138553188Y-115615391D01*
X138553188Y-115615391D02*
X138457950Y-115710629D01*
X138457950Y-115710629D02*
X138362712Y-115758248D01*
X139267474Y-115472534D02*
X139934140Y-115472534D01*
X139934140Y-115472534D02*
X139505569Y-116472534D01*
X137410331Y-106334583D02*
X137410331Y-105334583D01*
X137410331Y-105334583D02*
X137791283Y-105334583D01*
X137791283Y-105334583D02*
X137886521Y-105382202D01*
X137886521Y-105382202D02*
X137934140Y-105429821D01*
X137934140Y-105429821D02*
X137981759Y-105525059D01*
X137981759Y-105525059D02*
X137981759Y-105667916D01*
X137981759Y-105667916D02*
X137934140Y-105763154D01*
X137934140Y-105763154D02*
X137886521Y-105810773D01*
X137886521Y-105810773D02*
X137791283Y-105858392D01*
X137791283Y-105858392D02*
X137410331Y-105858392D01*
X138934140Y-106334583D02*
X138362712Y-106334583D01*
X138648426Y-106334583D02*
X138648426Y-105334583D01*
X138648426Y-105334583D02*
X138553188Y-105477440D01*
X138553188Y-105477440D02*
X138457950Y-105572678D01*
X138457950Y-105572678D02*
X138362712Y-105620297D01*
X139267474Y-105334583D02*
X139886521Y-105334583D01*
X139886521Y-105334583D02*
X139553188Y-105715535D01*
X139553188Y-105715535D02*
X139696045Y-105715535D01*
X139696045Y-105715535D02*
X139791283Y-105763154D01*
X139791283Y-105763154D02*
X139838902Y-105810773D01*
X139838902Y-105810773D02*
X139886521Y-105906011D01*
X139886521Y-105906011D02*
X139886521Y-106144106D01*
X139886521Y-106144106D02*
X139838902Y-106239344D01*
X139838902Y-106239344D02*
X139791283Y-106286964D01*
X139791283Y-106286964D02*
X139696045Y-106334583D01*
X139696045Y-106334583D02*
X139410331Y-106334583D01*
X139410331Y-106334583D02*
X139315093Y-106286964D01*
X139315093Y-106286964D02*
X139267474Y-106239344D01*
X137322949Y-91841119D02*
X137322949Y-90841119D01*
X137322949Y-90841119D02*
X137703901Y-90841119D01*
X137703901Y-90841119D02*
X137799139Y-90888738D01*
X137799139Y-90888738D02*
X137846758Y-90936357D01*
X137846758Y-90936357D02*
X137894377Y-91031595D01*
X137894377Y-91031595D02*
X137894377Y-91174452D01*
X137894377Y-91174452D02*
X137846758Y-91269690D01*
X137846758Y-91269690D02*
X137799139Y-91317309D01*
X137799139Y-91317309D02*
X137703901Y-91364928D01*
X137703901Y-91364928D02*
X137322949Y-91364928D01*
X138227711Y-90841119D02*
X138894377Y-90841119D01*
X138894377Y-90841119D02*
X138465806Y-91841119D01*
X137322949Y-81521119D02*
X137322949Y-80521119D01*
X137322949Y-80521119D02*
X137703901Y-80521119D01*
X137703901Y-80521119D02*
X137799139Y-80568738D01*
X137799139Y-80568738D02*
X137846758Y-80616357D01*
X137846758Y-80616357D02*
X137894377Y-80711595D01*
X137894377Y-80711595D02*
X137894377Y-80854452D01*
X137894377Y-80854452D02*
X137846758Y-80949690D01*
X137846758Y-80949690D02*
X137799139Y-80997309D01*
X137799139Y-80997309D02*
X137703901Y-81044928D01*
X137703901Y-81044928D02*
X137322949Y-81044928D01*
X138275330Y-80616357D02*
X138322949Y-80568738D01*
X138322949Y-80568738D02*
X138418187Y-80521119D01*
X138418187Y-80521119D02*
X138656282Y-80521119D01*
X138656282Y-80521119D02*
X138751520Y-80568738D01*
X138751520Y-80568738D02*
X138799139Y-80616357D01*
X138799139Y-80616357D02*
X138846758Y-80711595D01*
X138846758Y-80711595D02*
X138846758Y-80806833D01*
X138846758Y-80806833D02*
X138799139Y-80949690D01*
X138799139Y-80949690D02*
X138227711Y-81521119D01*
X138227711Y-81521119D02*
X138846758Y-81521119D01*
X137322949Y-86681119D02*
X137322949Y-85681119D01*
X137322949Y-85681119D02*
X137703901Y-85681119D01*
X137703901Y-85681119D02*
X137799139Y-85728738D01*
X137799139Y-85728738D02*
X137846758Y-85776357D01*
X137846758Y-85776357D02*
X137894377Y-85871595D01*
X137894377Y-85871595D02*
X137894377Y-86014452D01*
X137894377Y-86014452D02*
X137846758Y-86109690D01*
X137846758Y-86109690D02*
X137799139Y-86157309D01*
X137799139Y-86157309D02*
X137703901Y-86204928D01*
X137703901Y-86204928D02*
X137322949Y-86204928D01*
X138799139Y-85681119D02*
X138322949Y-85681119D01*
X138322949Y-85681119D02*
X138275330Y-86157309D01*
X138275330Y-86157309D02*
X138322949Y-86109690D01*
X138322949Y-86109690D02*
X138418187Y-86062071D01*
X138418187Y-86062071D02*
X138656282Y-86062071D01*
X138656282Y-86062071D02*
X138751520Y-86109690D01*
X138751520Y-86109690D02*
X138799139Y-86157309D01*
X138799139Y-86157309D02*
X138846758Y-86252547D01*
X138846758Y-86252547D02*
X138846758Y-86490642D01*
X138846758Y-86490642D02*
X138799139Y-86585880D01*
X138799139Y-86585880D02*
X138751520Y-86633500D01*
X138751520Y-86633500D02*
X138656282Y-86681119D01*
X138656282Y-86681119D02*
X138418187Y-86681119D01*
X138418187Y-86681119D02*
X138322949Y-86633500D01*
X138322949Y-86633500D02*
X138275330Y-86585880D01*
X137322949Y-78941119D02*
X137322949Y-77941119D01*
X137322949Y-77941119D02*
X137703901Y-77941119D01*
X137703901Y-77941119D02*
X137799139Y-77988738D01*
X137799139Y-77988738D02*
X137846758Y-78036357D01*
X137846758Y-78036357D02*
X137894377Y-78131595D01*
X137894377Y-78131595D02*
X137894377Y-78274452D01*
X137894377Y-78274452D02*
X137846758Y-78369690D01*
X137846758Y-78369690D02*
X137799139Y-78417309D01*
X137799139Y-78417309D02*
X137703901Y-78464928D01*
X137703901Y-78464928D02*
X137322949Y-78464928D01*
X138846758Y-78941119D02*
X138275330Y-78941119D01*
X138561044Y-78941119D02*
X138561044Y-77941119D01*
X138561044Y-77941119D02*
X138465806Y-78083976D01*
X138465806Y-78083976D02*
X138370568Y-78179214D01*
X138370568Y-78179214D02*
X138275330Y-78226833D01*
X137322949Y-89261119D02*
X137322949Y-88261119D01*
X137322949Y-88261119D02*
X137703901Y-88261119D01*
X137703901Y-88261119D02*
X137799139Y-88308738D01*
X137799139Y-88308738D02*
X137846758Y-88356357D01*
X137846758Y-88356357D02*
X137894377Y-88451595D01*
X137894377Y-88451595D02*
X137894377Y-88594452D01*
X137894377Y-88594452D02*
X137846758Y-88689690D01*
X137846758Y-88689690D02*
X137799139Y-88737309D01*
X137799139Y-88737309D02*
X137703901Y-88784928D01*
X137703901Y-88784928D02*
X137322949Y-88784928D01*
X138751520Y-88261119D02*
X138561044Y-88261119D01*
X138561044Y-88261119D02*
X138465806Y-88308738D01*
X138465806Y-88308738D02*
X138418187Y-88356357D01*
X138418187Y-88356357D02*
X138322949Y-88499214D01*
X138322949Y-88499214D02*
X138275330Y-88689690D01*
X138275330Y-88689690D02*
X138275330Y-89070642D01*
X138275330Y-89070642D02*
X138322949Y-89165880D01*
X138322949Y-89165880D02*
X138370568Y-89213500D01*
X138370568Y-89213500D02*
X138465806Y-89261119D01*
X138465806Y-89261119D02*
X138656282Y-89261119D01*
X138656282Y-89261119D02*
X138751520Y-89213500D01*
X138751520Y-89213500D02*
X138799139Y-89165880D01*
X138799139Y-89165880D02*
X138846758Y-89070642D01*
X138846758Y-89070642D02*
X138846758Y-88832547D01*
X138846758Y-88832547D02*
X138799139Y-88737309D01*
X138799139Y-88737309D02*
X138751520Y-88689690D01*
X138751520Y-88689690D02*
X138656282Y-88642071D01*
X138656282Y-88642071D02*
X138465806Y-88642071D01*
X138465806Y-88642071D02*
X138370568Y-88689690D01*
X138370568Y-88689690D02*
X138322949Y-88737309D01*
X138322949Y-88737309D02*
X138275330Y-88832547D01*
X137322949Y-84101119D02*
X137322949Y-83101119D01*
X137322949Y-83101119D02*
X137703901Y-83101119D01*
X137703901Y-83101119D02*
X137799139Y-83148738D01*
X137799139Y-83148738D02*
X137846758Y-83196357D01*
X137846758Y-83196357D02*
X137894377Y-83291595D01*
X137894377Y-83291595D02*
X137894377Y-83434452D01*
X137894377Y-83434452D02*
X137846758Y-83529690D01*
X137846758Y-83529690D02*
X137799139Y-83577309D01*
X137799139Y-83577309D02*
X137703901Y-83624928D01*
X137703901Y-83624928D02*
X137322949Y-83624928D01*
X138227711Y-83101119D02*
X138846758Y-83101119D01*
X138846758Y-83101119D02*
X138513425Y-83482071D01*
X138513425Y-83482071D02*
X138656282Y-83482071D01*
X138656282Y-83482071D02*
X138751520Y-83529690D01*
X138751520Y-83529690D02*
X138799139Y-83577309D01*
X138799139Y-83577309D02*
X138846758Y-83672547D01*
X138846758Y-83672547D02*
X138846758Y-83910642D01*
X138846758Y-83910642D02*
X138799139Y-84005880D01*
X138799139Y-84005880D02*
X138751520Y-84053500D01*
X138751520Y-84053500D02*
X138656282Y-84101119D01*
X138656282Y-84101119D02*
X138370568Y-84101119D01*
X138370568Y-84101119D02*
X138275330Y-84053500D01*
X138275330Y-84053500D02*
X138227711Y-84005880D01*
D11*
X173464819Y-138425833D02*
X174179104Y-138425833D01*
X174179104Y-138425833D02*
X174321961Y-138473452D01*
X174321961Y-138473452D02*
X174417200Y-138568690D01*
X174417200Y-138568690D02*
X174464819Y-138711547D01*
X174464819Y-138711547D02*
X174464819Y-138806785D01*
X174464819Y-137425833D02*
X174464819Y-137997261D01*
X174464819Y-137711547D02*
X173464819Y-137711547D01*
X173464819Y-137711547D02*
X173607676Y-137806785D01*
X173607676Y-137806785D02*
X173702914Y-137902023D01*
X173702914Y-137902023D02*
X173750533Y-137997261D01*
X152814819Y-108076666D02*
X152338628Y-108409999D01*
X152814819Y-108648094D02*
X151814819Y-108648094D01*
X151814819Y-108648094D02*
X151814819Y-108267142D01*
X151814819Y-108267142D02*
X151862438Y-108171904D01*
X151862438Y-108171904D02*
X151910057Y-108124285D01*
X151910057Y-108124285D02*
X152005295Y-108076666D01*
X152005295Y-108076666D02*
X152148152Y-108076666D01*
X152148152Y-108076666D02*
X152243390Y-108124285D01*
X152243390Y-108124285D02*
X152291009Y-108171904D01*
X152291009Y-108171904D02*
X152338628Y-108267142D01*
X152338628Y-108267142D02*
X152338628Y-108648094D01*
X151814819Y-107743332D02*
X151814819Y-107076666D01*
X151814819Y-107076666D02*
X152814819Y-107505237D01*
X155673333Y-115259580D02*
X155625714Y-115307200D01*
X155625714Y-115307200D02*
X155482857Y-115354819D01*
X155482857Y-115354819D02*
X155387619Y-115354819D01*
X155387619Y-115354819D02*
X155244762Y-115307200D01*
X155244762Y-115307200D02*
X155149524Y-115211961D01*
X155149524Y-115211961D02*
X155101905Y-115116723D01*
X155101905Y-115116723D02*
X155054286Y-114926247D01*
X155054286Y-114926247D02*
X155054286Y-114783390D01*
X155054286Y-114783390D02*
X155101905Y-114592914D01*
X155101905Y-114592914D02*
X155149524Y-114497676D01*
X155149524Y-114497676D02*
X155244762Y-114402438D01*
X155244762Y-114402438D02*
X155387619Y-114354819D01*
X155387619Y-114354819D02*
X155482857Y-114354819D01*
X155482857Y-114354819D02*
X155625714Y-114402438D01*
X155625714Y-114402438D02*
X155673333Y-114450057D01*
X156578095Y-114354819D02*
X156101905Y-114354819D01*
X156101905Y-114354819D02*
X156054286Y-114831009D01*
X156054286Y-114831009D02*
X156101905Y-114783390D01*
X156101905Y-114783390D02*
X156197143Y-114735771D01*
X156197143Y-114735771D02*
X156435238Y-114735771D01*
X156435238Y-114735771D02*
X156530476Y-114783390D01*
X156530476Y-114783390D02*
X156578095Y-114831009D01*
X156578095Y-114831009D02*
X156625714Y-114926247D01*
X156625714Y-114926247D02*
X156625714Y-115164342D01*
X156625714Y-115164342D02*
X156578095Y-115259580D01*
X156578095Y-115259580D02*
X156530476Y-115307200D01*
X156530476Y-115307200D02*
X156435238Y-115354819D01*
X156435238Y-115354819D02*
X156197143Y-115354819D01*
X156197143Y-115354819D02*
X156101905Y-115307200D01*
X156101905Y-115307200D02*
X156054286Y-115259580D01*
X174807200Y-130173332D02*
X174854819Y-130030475D01*
X174854819Y-130030475D02*
X174854819Y-129792380D01*
X174854819Y-129792380D02*
X174807200Y-129697142D01*
X174807200Y-129697142D02*
X174759580Y-129649523D01*
X174759580Y-129649523D02*
X174664342Y-129601904D01*
X174664342Y-129601904D02*
X174569104Y-129601904D01*
X174569104Y-129601904D02*
X174473866Y-129649523D01*
X174473866Y-129649523D02*
X174426247Y-129697142D01*
X174426247Y-129697142D02*
X174378628Y-129792380D01*
X174378628Y-129792380D02*
X174331009Y-129982856D01*
X174331009Y-129982856D02*
X174283390Y-130078094D01*
X174283390Y-130078094D02*
X174235771Y-130125713D01*
X174235771Y-130125713D02*
X174140533Y-130173332D01*
X174140533Y-130173332D02*
X174045295Y-130173332D01*
X174045295Y-130173332D02*
X173950057Y-130125713D01*
X173950057Y-130125713D02*
X173902438Y-130078094D01*
X173902438Y-130078094D02*
X173854819Y-129982856D01*
X173854819Y-129982856D02*
X173854819Y-129744761D01*
X173854819Y-129744761D02*
X173902438Y-129601904D01*
X173854819Y-129268570D02*
X174854819Y-129030475D01*
X174854819Y-129030475D02*
X174140533Y-128839999D01*
X174140533Y-128839999D02*
X174854819Y-128649523D01*
X174854819Y-128649523D02*
X173854819Y-128411428D01*
X174188152Y-127601904D02*
X174854819Y-127601904D01*
X173807200Y-127839999D02*
X174521485Y-128078094D01*
X174521485Y-128078094D02*
X174521485Y-127459047D01*
X137253333Y-133199580D02*
X137205714Y-133247200D01*
X137205714Y-133247200D02*
X137062857Y-133294819D01*
X137062857Y-133294819D02*
X136967619Y-133294819D01*
X136967619Y-133294819D02*
X136824762Y-133247200D01*
X136824762Y-133247200D02*
X136729524Y-133151961D01*
X136729524Y-133151961D02*
X136681905Y-133056723D01*
X136681905Y-133056723D02*
X136634286Y-132866247D01*
X136634286Y-132866247D02*
X136634286Y-132723390D01*
X136634286Y-132723390D02*
X136681905Y-132532914D01*
X136681905Y-132532914D02*
X136729524Y-132437676D01*
X136729524Y-132437676D02*
X136824762Y-132342438D01*
X136824762Y-132342438D02*
X136967619Y-132294819D01*
X136967619Y-132294819D02*
X137062857Y-132294819D01*
X137062857Y-132294819D02*
X137205714Y-132342438D01*
X137205714Y-132342438D02*
X137253333Y-132390057D01*
X137586667Y-132294819D02*
X138205714Y-132294819D01*
X138205714Y-132294819D02*
X137872381Y-132675771D01*
X137872381Y-132675771D02*
X138015238Y-132675771D01*
X138015238Y-132675771D02*
X138110476Y-132723390D01*
X138110476Y-132723390D02*
X138158095Y-132771009D01*
X138158095Y-132771009D02*
X138205714Y-132866247D01*
X138205714Y-132866247D02*
X138205714Y-133104342D01*
X138205714Y-133104342D02*
X138158095Y-133199580D01*
X138158095Y-133199580D02*
X138110476Y-133247200D01*
X138110476Y-133247200D02*
X138015238Y-133294819D01*
X138015238Y-133294819D02*
X137729524Y-133294819D01*
X137729524Y-133294819D02*
X137634286Y-133247200D01*
X137634286Y-133247200D02*
X137586667Y-133199580D01*
X168304819Y-124896666D02*
X167828628Y-125229999D01*
X168304819Y-125468094D02*
X167304819Y-125468094D01*
X167304819Y-125468094D02*
X167304819Y-125087142D01*
X167304819Y-125087142D02*
X167352438Y-124991904D01*
X167352438Y-124991904D02*
X167400057Y-124944285D01*
X167400057Y-124944285D02*
X167495295Y-124896666D01*
X167495295Y-124896666D02*
X167638152Y-124896666D01*
X167638152Y-124896666D02*
X167733390Y-124944285D01*
X167733390Y-124944285D02*
X167781009Y-124991904D01*
X167781009Y-124991904D02*
X167828628Y-125087142D01*
X167828628Y-125087142D02*
X167828628Y-125468094D01*
X168304819Y-124420475D02*
X168304819Y-124229999D01*
X168304819Y-124229999D02*
X168257200Y-124134761D01*
X168257200Y-124134761D02*
X168209580Y-124087142D01*
X168209580Y-124087142D02*
X168066723Y-123991904D01*
X168066723Y-123991904D02*
X167876247Y-123944285D01*
X167876247Y-123944285D02*
X167495295Y-123944285D01*
X167495295Y-123944285D02*
X167400057Y-123991904D01*
X167400057Y-123991904D02*
X167352438Y-124039523D01*
X167352438Y-124039523D02*
X167304819Y-124134761D01*
X167304819Y-124134761D02*
X167304819Y-124325237D01*
X167304819Y-124325237D02*
X167352438Y-124420475D01*
X167352438Y-124420475D02*
X167400057Y-124468094D01*
X167400057Y-124468094D02*
X167495295Y-124515713D01*
X167495295Y-124515713D02*
X167733390Y-124515713D01*
X167733390Y-124515713D02*
X167828628Y-124468094D01*
X167828628Y-124468094D02*
X167876247Y-124420475D01*
X167876247Y-124420475D02*
X167923866Y-124325237D01*
X167923866Y-124325237D02*
X167923866Y-124134761D01*
X167923866Y-124134761D02*
X167876247Y-124039523D01*
X167876247Y-124039523D02*
X167828628Y-123991904D01*
X167828628Y-123991904D02*
X167733390Y-123944285D01*
X159024819Y-99468094D02*
X158024819Y-99468094D01*
X158024819Y-99468094D02*
X158024819Y-99229999D01*
X158024819Y-99229999D02*
X158072438Y-99087142D01*
X158072438Y-99087142D02*
X158167676Y-98991904D01*
X158167676Y-98991904D02*
X158262914Y-98944285D01*
X158262914Y-98944285D02*
X158453390Y-98896666D01*
X158453390Y-98896666D02*
X158596247Y-98896666D01*
X158596247Y-98896666D02*
X158786723Y-98944285D01*
X158786723Y-98944285D02*
X158881961Y-98991904D01*
X158881961Y-98991904D02*
X158977200Y-99087142D01*
X158977200Y-99087142D02*
X159024819Y-99229999D01*
X159024819Y-99229999D02*
X159024819Y-99468094D01*
X158024819Y-98563332D02*
X158024819Y-97944285D01*
X158024819Y-97944285D02*
X158405771Y-98277618D01*
X158405771Y-98277618D02*
X158405771Y-98134761D01*
X158405771Y-98134761D02*
X158453390Y-98039523D01*
X158453390Y-98039523D02*
X158501009Y-97991904D01*
X158501009Y-97991904D02*
X158596247Y-97944285D01*
X158596247Y-97944285D02*
X158834342Y-97944285D01*
X158834342Y-97944285D02*
X158929580Y-97991904D01*
X158929580Y-97991904D02*
X158977200Y-98039523D01*
X158977200Y-98039523D02*
X159024819Y-98134761D01*
X159024819Y-98134761D02*
X159024819Y-98420475D01*
X159024819Y-98420475D02*
X158977200Y-98515713D01*
X158977200Y-98515713D02*
X158929580Y-98563332D01*
X150054819Y-107956666D02*
X149578628Y-108289999D01*
X150054819Y-108528094D02*
X149054819Y-108528094D01*
X149054819Y-108528094D02*
X149054819Y-108147142D01*
X149054819Y-108147142D02*
X149102438Y-108051904D01*
X149102438Y-108051904D02*
X149150057Y-108004285D01*
X149150057Y-108004285D02*
X149245295Y-107956666D01*
X149245295Y-107956666D02*
X149388152Y-107956666D01*
X149388152Y-107956666D02*
X149483390Y-108004285D01*
X149483390Y-108004285D02*
X149531009Y-108051904D01*
X149531009Y-108051904D02*
X149578628Y-108147142D01*
X149578628Y-108147142D02*
X149578628Y-108528094D01*
X149054819Y-107099523D02*
X149054819Y-107289999D01*
X149054819Y-107289999D02*
X149102438Y-107385237D01*
X149102438Y-107385237D02*
X149150057Y-107432856D01*
X149150057Y-107432856D02*
X149292914Y-107528094D01*
X149292914Y-107528094D02*
X149483390Y-107575713D01*
X149483390Y-107575713D02*
X149864342Y-107575713D01*
X149864342Y-107575713D02*
X149959580Y-107528094D01*
X149959580Y-107528094D02*
X150007200Y-107480475D01*
X150007200Y-107480475D02*
X150054819Y-107385237D01*
X150054819Y-107385237D02*
X150054819Y-107194761D01*
X150054819Y-107194761D02*
X150007200Y-107099523D01*
X150007200Y-107099523D02*
X149959580Y-107051904D01*
X149959580Y-107051904D02*
X149864342Y-107004285D01*
X149864342Y-107004285D02*
X149626247Y-107004285D01*
X149626247Y-107004285D02*
X149531009Y-107051904D01*
X149531009Y-107051904D02*
X149483390Y-107099523D01*
X149483390Y-107099523D02*
X149435771Y-107194761D01*
X149435771Y-107194761D02*
X149435771Y-107385237D01*
X149435771Y-107385237D02*
X149483390Y-107480475D01*
X149483390Y-107480475D02*
X149531009Y-107528094D01*
X149531009Y-107528094D02*
X149626247Y-107575713D01*
X171724819Y-124896666D02*
X171248628Y-125229999D01*
X171724819Y-125468094D02*
X170724819Y-125468094D01*
X170724819Y-125468094D02*
X170724819Y-125087142D01*
X170724819Y-125087142D02*
X170772438Y-124991904D01*
X170772438Y-124991904D02*
X170820057Y-124944285D01*
X170820057Y-124944285D02*
X170915295Y-124896666D01*
X170915295Y-124896666D02*
X171058152Y-124896666D01*
X171058152Y-124896666D02*
X171153390Y-124944285D01*
X171153390Y-124944285D02*
X171201009Y-124991904D01*
X171201009Y-124991904D02*
X171248628Y-125087142D01*
X171248628Y-125087142D02*
X171248628Y-125468094D01*
X171724819Y-123944285D02*
X171724819Y-124515713D01*
X171724819Y-124229999D02*
X170724819Y-124229999D01*
X170724819Y-124229999D02*
X170867676Y-124325237D01*
X170867676Y-124325237D02*
X170962914Y-124420475D01*
X170962914Y-124420475D02*
X171010533Y-124515713D01*
X152114819Y-138328094D02*
X151114819Y-138328094D01*
X151114819Y-138328094D02*
X151114819Y-138089999D01*
X151114819Y-138089999D02*
X151162438Y-137947142D01*
X151162438Y-137947142D02*
X151257676Y-137851904D01*
X151257676Y-137851904D02*
X151352914Y-137804285D01*
X151352914Y-137804285D02*
X151543390Y-137756666D01*
X151543390Y-137756666D02*
X151686247Y-137756666D01*
X151686247Y-137756666D02*
X151876723Y-137804285D01*
X151876723Y-137804285D02*
X151971961Y-137851904D01*
X151971961Y-137851904D02*
X152067200Y-137947142D01*
X152067200Y-137947142D02*
X152114819Y-138089999D01*
X152114819Y-138089999D02*
X152114819Y-138328094D01*
X152114819Y-136804285D02*
X152114819Y-137375713D01*
X152114819Y-137089999D02*
X151114819Y-137089999D01*
X151114819Y-137089999D02*
X151257676Y-137185237D01*
X151257676Y-137185237D02*
X151352914Y-137280475D01*
X151352914Y-137280475D02*
X151400533Y-137375713D01*
X137283333Y-127099580D02*
X137235714Y-127147200D01*
X137235714Y-127147200D02*
X137092857Y-127194819D01*
X137092857Y-127194819D02*
X136997619Y-127194819D01*
X136997619Y-127194819D02*
X136854762Y-127147200D01*
X136854762Y-127147200D02*
X136759524Y-127051961D01*
X136759524Y-127051961D02*
X136711905Y-126956723D01*
X136711905Y-126956723D02*
X136664286Y-126766247D01*
X136664286Y-126766247D02*
X136664286Y-126623390D01*
X136664286Y-126623390D02*
X136711905Y-126432914D01*
X136711905Y-126432914D02*
X136759524Y-126337676D01*
X136759524Y-126337676D02*
X136854762Y-126242438D01*
X136854762Y-126242438D02*
X136997619Y-126194819D01*
X136997619Y-126194819D02*
X137092857Y-126194819D01*
X137092857Y-126194819D02*
X137235714Y-126242438D01*
X137235714Y-126242438D02*
X137283333Y-126290057D01*
X137664286Y-126290057D02*
X137711905Y-126242438D01*
X137711905Y-126242438D02*
X137807143Y-126194819D01*
X137807143Y-126194819D02*
X138045238Y-126194819D01*
X138045238Y-126194819D02*
X138140476Y-126242438D01*
X138140476Y-126242438D02*
X138188095Y-126290057D01*
X138188095Y-126290057D02*
X138235714Y-126385295D01*
X138235714Y-126385295D02*
X138235714Y-126480533D01*
X138235714Y-126480533D02*
X138188095Y-126623390D01*
X138188095Y-126623390D02*
X137616667Y-127194819D01*
X137616667Y-127194819D02*
X138235714Y-127194819D01*
X164984819Y-99478094D02*
X163984819Y-99478094D01*
X163984819Y-99478094D02*
X163984819Y-99239999D01*
X163984819Y-99239999D02*
X164032438Y-99097142D01*
X164032438Y-99097142D02*
X164127676Y-99001904D01*
X164127676Y-99001904D02*
X164222914Y-98954285D01*
X164222914Y-98954285D02*
X164413390Y-98906666D01*
X164413390Y-98906666D02*
X164556247Y-98906666D01*
X164556247Y-98906666D02*
X164746723Y-98954285D01*
X164746723Y-98954285D02*
X164841961Y-99001904D01*
X164841961Y-99001904D02*
X164937200Y-99097142D01*
X164937200Y-99097142D02*
X164984819Y-99239999D01*
X164984819Y-99239999D02*
X164984819Y-99478094D01*
X164318152Y-98049523D02*
X164984819Y-98049523D01*
X163937200Y-98287618D02*
X164651485Y-98525713D01*
X164651485Y-98525713D02*
X164651485Y-97906666D01*
X167639580Y-108006666D02*
X167687200Y-108054285D01*
X167687200Y-108054285D02*
X167734819Y-108197142D01*
X167734819Y-108197142D02*
X167734819Y-108292380D01*
X167734819Y-108292380D02*
X167687200Y-108435237D01*
X167687200Y-108435237D02*
X167591961Y-108530475D01*
X167591961Y-108530475D02*
X167496723Y-108578094D01*
X167496723Y-108578094D02*
X167306247Y-108625713D01*
X167306247Y-108625713D02*
X167163390Y-108625713D01*
X167163390Y-108625713D02*
X166972914Y-108578094D01*
X166972914Y-108578094D02*
X166877676Y-108530475D01*
X166877676Y-108530475D02*
X166782438Y-108435237D01*
X166782438Y-108435237D02*
X166734819Y-108292380D01*
X166734819Y-108292380D02*
X166734819Y-108197142D01*
X166734819Y-108197142D02*
X166782438Y-108054285D01*
X166782438Y-108054285D02*
X166830057Y-108006666D01*
X166734819Y-107673332D02*
X166734819Y-107006666D01*
X166734819Y-107006666D02*
X167734819Y-107435237D01*
X140943333Y-123999580D02*
X140895714Y-124047200D01*
X140895714Y-124047200D02*
X140752857Y-124094819D01*
X140752857Y-124094819D02*
X140657619Y-124094819D01*
X140657619Y-124094819D02*
X140514762Y-124047200D01*
X140514762Y-124047200D02*
X140419524Y-123951961D01*
X140419524Y-123951961D02*
X140371905Y-123856723D01*
X140371905Y-123856723D02*
X140324286Y-123666247D01*
X140324286Y-123666247D02*
X140324286Y-123523390D01*
X140324286Y-123523390D02*
X140371905Y-123332914D01*
X140371905Y-123332914D02*
X140419524Y-123237676D01*
X140419524Y-123237676D02*
X140514762Y-123142438D01*
X140514762Y-123142438D02*
X140657619Y-123094819D01*
X140657619Y-123094819D02*
X140752857Y-123094819D01*
X140752857Y-123094819D02*
X140895714Y-123142438D01*
X140895714Y-123142438D02*
X140943333Y-123190057D01*
X141895714Y-124094819D02*
X141324286Y-124094819D01*
X141610000Y-124094819D02*
X141610000Y-123094819D01*
X141610000Y-123094819D02*
X141514762Y-123237676D01*
X141514762Y-123237676D02*
X141419524Y-123332914D01*
X141419524Y-123332914D02*
X141324286Y-123380533D01*
X148190833Y-89544819D02*
X147857500Y-89068628D01*
X147619405Y-89544819D02*
X147619405Y-88544819D01*
X147619405Y-88544819D02*
X148000357Y-88544819D01*
X148000357Y-88544819D02*
X148095595Y-88592438D01*
X148095595Y-88592438D02*
X148143214Y-88640057D01*
X148143214Y-88640057D02*
X148190833Y-88735295D01*
X148190833Y-88735295D02*
X148190833Y-88878152D01*
X148190833Y-88878152D02*
X148143214Y-88973390D01*
X148143214Y-88973390D02*
X148095595Y-89021009D01*
X148095595Y-89021009D02*
X148000357Y-89068628D01*
X148000357Y-89068628D02*
X147619405Y-89068628D01*
X148571786Y-88640057D02*
X148619405Y-88592438D01*
X148619405Y-88592438D02*
X148714643Y-88544819D01*
X148714643Y-88544819D02*
X148952738Y-88544819D01*
X148952738Y-88544819D02*
X149047976Y-88592438D01*
X149047976Y-88592438D02*
X149095595Y-88640057D01*
X149095595Y-88640057D02*
X149143214Y-88735295D01*
X149143214Y-88735295D02*
X149143214Y-88830533D01*
X149143214Y-88830533D02*
X149095595Y-88973390D01*
X149095595Y-88973390D02*
X148524167Y-89544819D01*
X148524167Y-89544819D02*
X149143214Y-89544819D01*
X171704819Y-115836666D02*
X171228628Y-116169999D01*
X171704819Y-116408094D02*
X170704819Y-116408094D01*
X170704819Y-116408094D02*
X170704819Y-116027142D01*
X170704819Y-116027142D02*
X170752438Y-115931904D01*
X170752438Y-115931904D02*
X170800057Y-115884285D01*
X170800057Y-115884285D02*
X170895295Y-115836666D01*
X170895295Y-115836666D02*
X171038152Y-115836666D01*
X171038152Y-115836666D02*
X171133390Y-115884285D01*
X171133390Y-115884285D02*
X171181009Y-115931904D01*
X171181009Y-115931904D02*
X171228628Y-116027142D01*
X171228628Y-116027142D02*
X171228628Y-116408094D01*
X170704819Y-114931904D02*
X170704819Y-115408094D01*
X170704819Y-115408094D02*
X171181009Y-115455713D01*
X171181009Y-115455713D02*
X171133390Y-115408094D01*
X171133390Y-115408094D02*
X171085771Y-115312856D01*
X171085771Y-115312856D02*
X171085771Y-115074761D01*
X171085771Y-115074761D02*
X171133390Y-114979523D01*
X171133390Y-114979523D02*
X171181009Y-114931904D01*
X171181009Y-114931904D02*
X171276247Y-114884285D01*
X171276247Y-114884285D02*
X171514342Y-114884285D01*
X171514342Y-114884285D02*
X171609580Y-114931904D01*
X171609580Y-114931904D02*
X171657200Y-114979523D01*
X171657200Y-114979523D02*
X171704819Y-115074761D01*
X171704819Y-115074761D02*
X171704819Y-115312856D01*
X171704819Y-115312856D02*
X171657200Y-115408094D01*
X171657200Y-115408094D02*
X171609580Y-115455713D01*
X167909580Y-115916666D02*
X167957200Y-115964285D01*
X167957200Y-115964285D02*
X168004819Y-116107142D01*
X168004819Y-116107142D02*
X168004819Y-116202380D01*
X168004819Y-116202380D02*
X167957200Y-116345237D01*
X167957200Y-116345237D02*
X167861961Y-116440475D01*
X167861961Y-116440475D02*
X167766723Y-116488094D01*
X167766723Y-116488094D02*
X167576247Y-116535713D01*
X167576247Y-116535713D02*
X167433390Y-116535713D01*
X167433390Y-116535713D02*
X167242914Y-116488094D01*
X167242914Y-116488094D02*
X167147676Y-116440475D01*
X167147676Y-116440475D02*
X167052438Y-116345237D01*
X167052438Y-116345237D02*
X167004819Y-116202380D01*
X167004819Y-116202380D02*
X167004819Y-116107142D01*
X167004819Y-116107142D02*
X167052438Y-115964285D01*
X167052438Y-115964285D02*
X167100057Y-115916666D01*
X167433390Y-115345237D02*
X167385771Y-115440475D01*
X167385771Y-115440475D02*
X167338152Y-115488094D01*
X167338152Y-115488094D02*
X167242914Y-115535713D01*
X167242914Y-115535713D02*
X167195295Y-115535713D01*
X167195295Y-115535713D02*
X167100057Y-115488094D01*
X167100057Y-115488094D02*
X167052438Y-115440475D01*
X167052438Y-115440475D02*
X167004819Y-115345237D01*
X167004819Y-115345237D02*
X167004819Y-115154761D01*
X167004819Y-115154761D02*
X167052438Y-115059523D01*
X167052438Y-115059523D02*
X167100057Y-115011904D01*
X167100057Y-115011904D02*
X167195295Y-114964285D01*
X167195295Y-114964285D02*
X167242914Y-114964285D01*
X167242914Y-114964285D02*
X167338152Y-115011904D01*
X167338152Y-115011904D02*
X167385771Y-115059523D01*
X167385771Y-115059523D02*
X167433390Y-115154761D01*
X167433390Y-115154761D02*
X167433390Y-115345237D01*
X167433390Y-115345237D02*
X167481009Y-115440475D01*
X167481009Y-115440475D02*
X167528628Y-115488094D01*
X167528628Y-115488094D02*
X167623866Y-115535713D01*
X167623866Y-115535713D02*
X167814342Y-115535713D01*
X167814342Y-115535713D02*
X167909580Y-115488094D01*
X167909580Y-115488094D02*
X167957200Y-115440475D01*
X167957200Y-115440475D02*
X168004819Y-115345237D01*
X168004819Y-115345237D02*
X168004819Y-115154761D01*
X168004819Y-115154761D02*
X167957200Y-115059523D01*
X167957200Y-115059523D02*
X167909580Y-115011904D01*
X167909580Y-115011904D02*
X167814342Y-114964285D01*
X167814342Y-114964285D02*
X167623866Y-114964285D01*
X167623866Y-114964285D02*
X167528628Y-115011904D01*
X167528628Y-115011904D02*
X167481009Y-115059523D01*
X167481009Y-115059523D02*
X167433390Y-115154761D01*
X145983333Y-112289580D02*
X145935714Y-112337200D01*
X145935714Y-112337200D02*
X145792857Y-112384819D01*
X145792857Y-112384819D02*
X145697619Y-112384819D01*
X145697619Y-112384819D02*
X145554762Y-112337200D01*
X145554762Y-112337200D02*
X145459524Y-112241961D01*
X145459524Y-112241961D02*
X145411905Y-112146723D01*
X145411905Y-112146723D02*
X145364286Y-111956247D01*
X145364286Y-111956247D02*
X145364286Y-111813390D01*
X145364286Y-111813390D02*
X145411905Y-111622914D01*
X145411905Y-111622914D02*
X145459524Y-111527676D01*
X145459524Y-111527676D02*
X145554762Y-111432438D01*
X145554762Y-111432438D02*
X145697619Y-111384819D01*
X145697619Y-111384819D02*
X145792857Y-111384819D01*
X145792857Y-111384819D02*
X145935714Y-111432438D01*
X145935714Y-111432438D02*
X145983333Y-111480057D01*
X146840476Y-111718152D02*
X146840476Y-112384819D01*
X146602381Y-111337200D02*
X146364286Y-112051485D01*
X146364286Y-112051485D02*
X146983333Y-112051485D01*
X153064819Y-99468094D02*
X152064819Y-99468094D01*
X152064819Y-99468094D02*
X152064819Y-99229999D01*
X152064819Y-99229999D02*
X152112438Y-99087142D01*
X152112438Y-99087142D02*
X152207676Y-98991904D01*
X152207676Y-98991904D02*
X152302914Y-98944285D01*
X152302914Y-98944285D02*
X152493390Y-98896666D01*
X152493390Y-98896666D02*
X152636247Y-98896666D01*
X152636247Y-98896666D02*
X152826723Y-98944285D01*
X152826723Y-98944285D02*
X152921961Y-98991904D01*
X152921961Y-98991904D02*
X153017200Y-99087142D01*
X153017200Y-99087142D02*
X153064819Y-99229999D01*
X153064819Y-99229999D02*
X153064819Y-99468094D01*
X152160057Y-98515713D02*
X152112438Y-98468094D01*
X152112438Y-98468094D02*
X152064819Y-98372856D01*
X152064819Y-98372856D02*
X152064819Y-98134761D01*
X152064819Y-98134761D02*
X152112438Y-98039523D01*
X152112438Y-98039523D02*
X152160057Y-97991904D01*
X152160057Y-97991904D02*
X152255295Y-97944285D01*
X152255295Y-97944285D02*
X152350533Y-97944285D01*
X152350533Y-97944285D02*
X152493390Y-97991904D01*
X152493390Y-97991904D02*
X153064819Y-98563332D01*
X153064819Y-98563332D02*
X153064819Y-97944285D01*
X171464819Y-107986666D02*
X170988628Y-108319999D01*
X171464819Y-108558094D02*
X170464819Y-108558094D01*
X170464819Y-108558094D02*
X170464819Y-108177142D01*
X170464819Y-108177142D02*
X170512438Y-108081904D01*
X170512438Y-108081904D02*
X170560057Y-108034285D01*
X170560057Y-108034285D02*
X170655295Y-107986666D01*
X170655295Y-107986666D02*
X170798152Y-107986666D01*
X170798152Y-107986666D02*
X170893390Y-108034285D01*
X170893390Y-108034285D02*
X170941009Y-108081904D01*
X170941009Y-108081904D02*
X170988628Y-108177142D01*
X170988628Y-108177142D02*
X170988628Y-108558094D01*
X170798152Y-107129523D02*
X171464819Y-107129523D01*
X170417200Y-107367618D02*
X171131485Y-107605713D01*
X171131485Y-107605713D02*
X171131485Y-106986666D01*
X163243333Y-121049580D02*
X163195714Y-121097200D01*
X163195714Y-121097200D02*
X163052857Y-121144819D01*
X163052857Y-121144819D02*
X162957619Y-121144819D01*
X162957619Y-121144819D02*
X162814762Y-121097200D01*
X162814762Y-121097200D02*
X162719524Y-121001961D01*
X162719524Y-121001961D02*
X162671905Y-120906723D01*
X162671905Y-120906723D02*
X162624286Y-120716247D01*
X162624286Y-120716247D02*
X162624286Y-120573390D01*
X162624286Y-120573390D02*
X162671905Y-120382914D01*
X162671905Y-120382914D02*
X162719524Y-120287676D01*
X162719524Y-120287676D02*
X162814762Y-120192438D01*
X162814762Y-120192438D02*
X162957619Y-120144819D01*
X162957619Y-120144819D02*
X163052857Y-120144819D01*
X163052857Y-120144819D02*
X163195714Y-120192438D01*
X163195714Y-120192438D02*
X163243333Y-120240057D01*
X164100476Y-120144819D02*
X163910000Y-120144819D01*
X163910000Y-120144819D02*
X163814762Y-120192438D01*
X163814762Y-120192438D02*
X163767143Y-120240057D01*
X163767143Y-120240057D02*
X163671905Y-120382914D01*
X163671905Y-120382914D02*
X163624286Y-120573390D01*
X163624286Y-120573390D02*
X163624286Y-120954342D01*
X163624286Y-120954342D02*
X163671905Y-121049580D01*
X163671905Y-121049580D02*
X163719524Y-121097200D01*
X163719524Y-121097200D02*
X163814762Y-121144819D01*
X163814762Y-121144819D02*
X164005238Y-121144819D01*
X164005238Y-121144819D02*
X164100476Y-121097200D01*
X164100476Y-121097200D02*
X164148095Y-121049580D01*
X164148095Y-121049580D02*
X164195714Y-120954342D01*
X164195714Y-120954342D02*
X164195714Y-120716247D01*
X164195714Y-120716247D02*
X164148095Y-120621009D01*
X164148095Y-120621009D02*
X164100476Y-120573390D01*
X164100476Y-120573390D02*
X164005238Y-120525771D01*
X164005238Y-120525771D02*
X163814762Y-120525771D01*
X163814762Y-120525771D02*
X163719524Y-120573390D01*
X163719524Y-120573390D02*
X163671905Y-120621009D01*
X163671905Y-120621009D02*
X163624286Y-120716247D01*
X157074819Y-124751904D02*
X157884342Y-124751904D01*
X157884342Y-124751904D02*
X157979580Y-124704285D01*
X157979580Y-124704285D02*
X158027200Y-124656666D01*
X158027200Y-124656666D02*
X158074819Y-124561428D01*
X158074819Y-124561428D02*
X158074819Y-124370952D01*
X158074819Y-124370952D02*
X158027200Y-124275714D01*
X158027200Y-124275714D02*
X157979580Y-124228095D01*
X157979580Y-124228095D02*
X157884342Y-124180476D01*
X157884342Y-124180476D02*
X157074819Y-124180476D01*
X157074819Y-123799523D02*
X157074819Y-123180476D01*
X157074819Y-123180476D02*
X157455771Y-123513809D01*
X157455771Y-123513809D02*
X157455771Y-123370952D01*
X157455771Y-123370952D02*
X157503390Y-123275714D01*
X157503390Y-123275714D02*
X157551009Y-123228095D01*
X157551009Y-123228095D02*
X157646247Y-123180476D01*
X157646247Y-123180476D02*
X157884342Y-123180476D01*
X157884342Y-123180476D02*
X157979580Y-123228095D01*
X157979580Y-123228095D02*
X158027200Y-123275714D01*
X158027200Y-123275714D02*
X158074819Y-123370952D01*
X158074819Y-123370952D02*
X158074819Y-123656666D01*
X158074819Y-123656666D02*
X158027200Y-123751904D01*
X158027200Y-123751904D02*
X157979580Y-123799523D01*
X152611905Y-128834819D02*
X152611905Y-127834819D01*
X152611905Y-127834819D02*
X152850000Y-127834819D01*
X152850000Y-127834819D02*
X152992857Y-127882438D01*
X152992857Y-127882438D02*
X153088095Y-127977676D01*
X153088095Y-127977676D02*
X153135714Y-128072914D01*
X153135714Y-128072914D02*
X153183333Y-128263390D01*
X153183333Y-128263390D02*
X153183333Y-128406247D01*
X153183333Y-128406247D02*
X153135714Y-128596723D01*
X153135714Y-128596723D02*
X153088095Y-128691961D01*
X153088095Y-128691961D02*
X152992857Y-128787200D01*
X152992857Y-128787200D02*
X152850000Y-128834819D01*
X152850000Y-128834819D02*
X152611905Y-128834819D01*
X154088095Y-127834819D02*
X153611905Y-127834819D01*
X153611905Y-127834819D02*
X153564286Y-128311009D01*
X153564286Y-128311009D02*
X153611905Y-128263390D01*
X153611905Y-128263390D02*
X153707143Y-128215771D01*
X153707143Y-128215771D02*
X153945238Y-128215771D01*
X153945238Y-128215771D02*
X154040476Y-128263390D01*
X154040476Y-128263390D02*
X154088095Y-128311009D01*
X154088095Y-128311009D02*
X154135714Y-128406247D01*
X154135714Y-128406247D02*
X154135714Y-128644342D01*
X154135714Y-128644342D02*
X154088095Y-128739580D01*
X154088095Y-128739580D02*
X154040476Y-128787200D01*
X154040476Y-128787200D02*
X153945238Y-128834819D01*
X153945238Y-128834819D02*
X153707143Y-128834819D01*
X153707143Y-128834819D02*
X153611905Y-128787200D01*
X153611905Y-128787200D02*
X153564286Y-128739580D01*
X155424819Y-108086666D02*
X154948628Y-108419999D01*
X155424819Y-108658094D02*
X154424819Y-108658094D01*
X154424819Y-108658094D02*
X154424819Y-108277142D01*
X154424819Y-108277142D02*
X154472438Y-108181904D01*
X154472438Y-108181904D02*
X154520057Y-108134285D01*
X154520057Y-108134285D02*
X154615295Y-108086666D01*
X154615295Y-108086666D02*
X154758152Y-108086666D01*
X154758152Y-108086666D02*
X154853390Y-108134285D01*
X154853390Y-108134285D02*
X154901009Y-108181904D01*
X154901009Y-108181904D02*
X154948628Y-108277142D01*
X154948628Y-108277142D02*
X154948628Y-108658094D01*
X154853390Y-107515237D02*
X154805771Y-107610475D01*
X154805771Y-107610475D02*
X154758152Y-107658094D01*
X154758152Y-107658094D02*
X154662914Y-107705713D01*
X154662914Y-107705713D02*
X154615295Y-107705713D01*
X154615295Y-107705713D02*
X154520057Y-107658094D01*
X154520057Y-107658094D02*
X154472438Y-107610475D01*
X154472438Y-107610475D02*
X154424819Y-107515237D01*
X154424819Y-107515237D02*
X154424819Y-107324761D01*
X154424819Y-107324761D02*
X154472438Y-107229523D01*
X154472438Y-107229523D02*
X154520057Y-107181904D01*
X154520057Y-107181904D02*
X154615295Y-107134285D01*
X154615295Y-107134285D02*
X154662914Y-107134285D01*
X154662914Y-107134285D02*
X154758152Y-107181904D01*
X154758152Y-107181904D02*
X154805771Y-107229523D01*
X154805771Y-107229523D02*
X154853390Y-107324761D01*
X154853390Y-107324761D02*
X154853390Y-107515237D01*
X154853390Y-107515237D02*
X154901009Y-107610475D01*
X154901009Y-107610475D02*
X154948628Y-107658094D01*
X154948628Y-107658094D02*
X155043866Y-107705713D01*
X155043866Y-107705713D02*
X155234342Y-107705713D01*
X155234342Y-107705713D02*
X155329580Y-107658094D01*
X155329580Y-107658094D02*
X155377200Y-107610475D01*
X155377200Y-107610475D02*
X155424819Y-107515237D01*
X155424819Y-107515237D02*
X155424819Y-107324761D01*
X155424819Y-107324761D02*
X155377200Y-107229523D01*
X155377200Y-107229523D02*
X155329580Y-107181904D01*
X155329580Y-107181904D02*
X155234342Y-107134285D01*
X155234342Y-107134285D02*
X155043866Y-107134285D01*
X155043866Y-107134285D02*
X154948628Y-107181904D01*
X154948628Y-107181904D02*
X154901009Y-107229523D01*
X154901009Y-107229523D02*
X154853390Y-107324761D01*
X175037200Y-121653332D02*
X175084819Y-121510475D01*
X175084819Y-121510475D02*
X175084819Y-121272380D01*
X175084819Y-121272380D02*
X175037200Y-121177142D01*
X175037200Y-121177142D02*
X174989580Y-121129523D01*
X174989580Y-121129523D02*
X174894342Y-121081904D01*
X174894342Y-121081904D02*
X174799104Y-121081904D01*
X174799104Y-121081904D02*
X174703866Y-121129523D01*
X174703866Y-121129523D02*
X174656247Y-121177142D01*
X174656247Y-121177142D02*
X174608628Y-121272380D01*
X174608628Y-121272380D02*
X174561009Y-121462856D01*
X174561009Y-121462856D02*
X174513390Y-121558094D01*
X174513390Y-121558094D02*
X174465771Y-121605713D01*
X174465771Y-121605713D02*
X174370533Y-121653332D01*
X174370533Y-121653332D02*
X174275295Y-121653332D01*
X174275295Y-121653332D02*
X174180057Y-121605713D01*
X174180057Y-121605713D02*
X174132438Y-121558094D01*
X174132438Y-121558094D02*
X174084819Y-121462856D01*
X174084819Y-121462856D02*
X174084819Y-121224761D01*
X174084819Y-121224761D02*
X174132438Y-121081904D01*
X174084819Y-120748570D02*
X175084819Y-120510475D01*
X175084819Y-120510475D02*
X174370533Y-120319999D01*
X174370533Y-120319999D02*
X175084819Y-120129523D01*
X175084819Y-120129523D02*
X174084819Y-119891428D01*
X174084819Y-119605713D02*
X174084819Y-118986666D01*
X174084819Y-118986666D02*
X174465771Y-119319999D01*
X174465771Y-119319999D02*
X174465771Y-119177142D01*
X174465771Y-119177142D02*
X174513390Y-119081904D01*
X174513390Y-119081904D02*
X174561009Y-119034285D01*
X174561009Y-119034285D02*
X174656247Y-118986666D01*
X174656247Y-118986666D02*
X174894342Y-118986666D01*
X174894342Y-118986666D02*
X174989580Y-119034285D01*
X174989580Y-119034285D02*
X175037200Y-119081904D01*
X175037200Y-119081904D02*
X175084819Y-119177142D01*
X175084819Y-119177142D02*
X175084819Y-119462856D01*
X175084819Y-119462856D02*
X175037200Y-119558094D01*
X175037200Y-119558094D02*
X174989580Y-119605713D01*
X148183333Y-93334819D02*
X147850000Y-92858628D01*
X147611905Y-93334819D02*
X147611905Y-92334819D01*
X147611905Y-92334819D02*
X147992857Y-92334819D01*
X147992857Y-92334819D02*
X148088095Y-92382438D01*
X148088095Y-92382438D02*
X148135714Y-92430057D01*
X148135714Y-92430057D02*
X148183333Y-92525295D01*
X148183333Y-92525295D02*
X148183333Y-92668152D01*
X148183333Y-92668152D02*
X148135714Y-92763390D01*
X148135714Y-92763390D02*
X148088095Y-92811009D01*
X148088095Y-92811009D02*
X147992857Y-92858628D01*
X147992857Y-92858628D02*
X147611905Y-92858628D01*
X148516667Y-92334819D02*
X149135714Y-92334819D01*
X149135714Y-92334819D02*
X148802381Y-92715771D01*
X148802381Y-92715771D02*
X148945238Y-92715771D01*
X148945238Y-92715771D02*
X149040476Y-92763390D01*
X149040476Y-92763390D02*
X149088095Y-92811009D01*
X149088095Y-92811009D02*
X149135714Y-92906247D01*
X149135714Y-92906247D02*
X149135714Y-93144342D01*
X149135714Y-93144342D02*
X149088095Y-93239580D01*
X149088095Y-93239580D02*
X149040476Y-93287200D01*
X149040476Y-93287200D02*
X148945238Y-93334819D01*
X148945238Y-93334819D02*
X148659524Y-93334819D01*
X148659524Y-93334819D02*
X148564286Y-93287200D01*
X148564286Y-93287200D02*
X148516667Y-93239580D01*
X152588095Y-117574819D02*
X152588095Y-118384342D01*
X152588095Y-118384342D02*
X152635714Y-118479580D01*
X152635714Y-118479580D02*
X152683333Y-118527200D01*
X152683333Y-118527200D02*
X152778571Y-118574819D01*
X152778571Y-118574819D02*
X152969047Y-118574819D01*
X152969047Y-118574819D02*
X153064285Y-118527200D01*
X153064285Y-118527200D02*
X153111904Y-118479580D01*
X153111904Y-118479580D02*
X153159523Y-118384342D01*
X153159523Y-118384342D02*
X153159523Y-117574819D01*
X153588095Y-117670057D02*
X153635714Y-117622438D01*
X153635714Y-117622438D02*
X153730952Y-117574819D01*
X153730952Y-117574819D02*
X153969047Y-117574819D01*
X153969047Y-117574819D02*
X154064285Y-117622438D01*
X154064285Y-117622438D02*
X154111904Y-117670057D01*
X154111904Y-117670057D02*
X154159523Y-117765295D01*
X154159523Y-117765295D02*
X154159523Y-117860533D01*
X154159523Y-117860533D02*
X154111904Y-118003390D01*
X154111904Y-118003390D02*
X153540476Y-118574819D01*
X153540476Y-118574819D02*
X154159523Y-118574819D01*
X145243333Y-76769580D02*
X145195714Y-76817200D01*
X145195714Y-76817200D02*
X145052857Y-76864819D01*
X145052857Y-76864819D02*
X144957619Y-76864819D01*
X144957619Y-76864819D02*
X144814762Y-76817200D01*
X144814762Y-76817200D02*
X144719524Y-76721961D01*
X144719524Y-76721961D02*
X144671905Y-76626723D01*
X144671905Y-76626723D02*
X144624286Y-76436247D01*
X144624286Y-76436247D02*
X144624286Y-76293390D01*
X144624286Y-76293390D02*
X144671905Y-76102914D01*
X144671905Y-76102914D02*
X144719524Y-76007676D01*
X144719524Y-76007676D02*
X144814762Y-75912438D01*
X144814762Y-75912438D02*
X144957619Y-75864819D01*
X144957619Y-75864819D02*
X145052857Y-75864819D01*
X145052857Y-75864819D02*
X145195714Y-75912438D01*
X145195714Y-75912438D02*
X145243333Y-75960057D01*
X145719524Y-76864819D02*
X145910000Y-76864819D01*
X145910000Y-76864819D02*
X146005238Y-76817200D01*
X146005238Y-76817200D02*
X146052857Y-76769580D01*
X146052857Y-76769580D02*
X146148095Y-76626723D01*
X146148095Y-76626723D02*
X146195714Y-76436247D01*
X146195714Y-76436247D02*
X146195714Y-76055295D01*
X146195714Y-76055295D02*
X146148095Y-75960057D01*
X146148095Y-75960057D02*
X146100476Y-75912438D01*
X146100476Y-75912438D02*
X146005238Y-75864819D01*
X146005238Y-75864819D02*
X145814762Y-75864819D01*
X145814762Y-75864819D02*
X145719524Y-75912438D01*
X145719524Y-75912438D02*
X145671905Y-75960057D01*
X145671905Y-75960057D02*
X145624286Y-76055295D01*
X145624286Y-76055295D02*
X145624286Y-76293390D01*
X145624286Y-76293390D02*
X145671905Y-76388628D01*
X145671905Y-76388628D02*
X145719524Y-76436247D01*
X145719524Y-76436247D02*
X145814762Y-76483866D01*
X145814762Y-76483866D02*
X146005238Y-76483866D01*
X146005238Y-76483866D02*
X146100476Y-76436247D01*
X146100476Y-76436247D02*
X146148095Y-76388628D01*
X146148095Y-76388628D02*
X146195714Y-76293390D01*
D12*
%TO.C,J1*%
X158830000Y-129732500D02*
X158830000Y-133992500D01*
X158830000Y-146452500D02*
X158830000Y-138092500D01*
X165740000Y-129012500D02*
X166240000Y-129512500D01*
X166240000Y-129512500D02*
X166740000Y-129012500D01*
X166740000Y-129012500D02*
X165740000Y-129012500D01*
X171150000Y-129732500D02*
X158830000Y-129732500D01*
X171150000Y-133992500D02*
X171150000Y-129732500D01*
X171150000Y-138092500D02*
X171150000Y-146452500D01*
X171150000Y-146452500D02*
X158830000Y-146452500D01*
%TO.C,R7*%
X151615000Y-104692936D02*
X151615000Y-105147064D01*
X153085000Y-104692936D02*
X153085000Y-105147064D01*
%TO.C,C5*%
X156378748Y-116105000D02*
X156901252Y-116105000D01*
X156378748Y-117575000D02*
X156901252Y-117575000D01*
%TO.C,U1*%
X151675000Y-93320000D02*
X151675000Y-92370000D01*
X153075000Y-93320000D02*
X151675000Y-93320000D01*
X168675000Y-93320000D02*
X170075000Y-93320000D01*
X170075000Y-93320000D02*
X170075000Y-92370000D01*
X151675000Y-74370000D02*
X151175000Y-74370000D01*
X151675000Y-73870000D01*
X151675000Y-74370000D01*
G36*
X151675000Y-74370000D02*
G01*
X151175000Y-74370000D01*
X151675000Y-73870000D01*
X151675000Y-74370000D01*
G37*
%TO.C,SW4*%
X176810000Y-130220000D02*
X176810000Y-131720000D01*
X178060000Y-134220000D02*
X182560000Y-134220000D01*
X182560000Y-127720000D02*
X178060000Y-127720000D01*
X183810000Y-131720000D02*
X183810000Y-130220000D01*
%TO.C,C3*%
X137850000Y-136013000D02*
X137850000Y-135447000D01*
X137890000Y-136247000D02*
X137890000Y-135213000D01*
X137930000Y-136407000D02*
X137930000Y-135053000D01*
X137970000Y-136535000D02*
X137970000Y-134925000D01*
X138010000Y-136644000D02*
X138010000Y-134816000D01*
X138050000Y-136741000D02*
X138050000Y-134719000D01*
X138090000Y-136828000D02*
X138090000Y-134632000D01*
X138130000Y-136907000D02*
X138130000Y-134553000D01*
X138170000Y-136981000D02*
X138170000Y-134479000D01*
X138210000Y-137049000D02*
X138210000Y-134411000D01*
X138250000Y-137113000D02*
X138250000Y-134347000D01*
X138290000Y-137173000D02*
X138290000Y-134287000D01*
X138330000Y-137229000D02*
X138330000Y-134231000D01*
X138370000Y-137283000D02*
X138370000Y-134177000D01*
X138410000Y-137334000D02*
X138410000Y-134126000D01*
X138450000Y-134690000D02*
X138450000Y-134078000D01*
X138450000Y-137382000D02*
X138450000Y-136770000D01*
X138490000Y-134690000D02*
X138490000Y-134031000D01*
X138490000Y-137429000D02*
X138490000Y-136770000D01*
X138530000Y-134690000D02*
X138530000Y-133987000D01*
X138530000Y-137473000D02*
X138530000Y-136770000D01*
X138570000Y-134690000D02*
X138570000Y-133945000D01*
X138570000Y-137515000D02*
X138570000Y-136770000D01*
X138610000Y-134690000D02*
X138610000Y-133905000D01*
X138610000Y-137555000D02*
X138610000Y-136770000D01*
X138650000Y-134690000D02*
X138650000Y-133866000D01*
X138650000Y-137594000D02*
X138650000Y-136770000D01*
X138690000Y-134690000D02*
X138690000Y-133829000D01*
X138690000Y-137631000D02*
X138690000Y-136770000D01*
X138730000Y-134690000D02*
X138730000Y-133794000D01*
X138730000Y-137666000D02*
X138730000Y-136770000D01*
X138770000Y-134690000D02*
X138770000Y-133760000D01*
X138770000Y-137700000D02*
X138770000Y-136770000D01*
X138810000Y-134690000D02*
X138810000Y-133727000D01*
X138810000Y-137733000D02*
X138810000Y-136770000D01*
X138850000Y-134690000D02*
X138850000Y-133695000D01*
X138850000Y-137765000D02*
X138850000Y-136770000D01*
X138890000Y-134690000D02*
X138890000Y-133665000D01*
X138890000Y-137795000D02*
X138890000Y-136770000D01*
X138930000Y-134690000D02*
X138930000Y-133636000D01*
X138930000Y-137824000D02*
X138930000Y-136770000D01*
X138970000Y-134690000D02*
X138970000Y-133608000D01*
X138970000Y-137852000D02*
X138970000Y-136770000D01*
X139010000Y-134690000D02*
X139010000Y-133581000D01*
X139010000Y-137879000D02*
X139010000Y-136770000D01*
X139050000Y-134690000D02*
X139050000Y-133555000D01*
X139050000Y-137905000D02*
X139050000Y-136770000D01*
X139090000Y-134690000D02*
X139090000Y-133531000D01*
X139090000Y-137929000D02*
X139090000Y-136770000D01*
X139130000Y-134690000D02*
X139130000Y-133507000D01*
X139130000Y-137953000D02*
X139130000Y-136770000D01*
X139170000Y-134690000D02*
X139170000Y-133484000D01*
X139170000Y-137976000D02*
X139170000Y-136770000D01*
X139210000Y-134690000D02*
X139210000Y-133462000D01*
X139210000Y-137998000D02*
X139210000Y-136770000D01*
X139250000Y-134690000D02*
X139250000Y-133441000D01*
X139250000Y-138019000D02*
X139250000Y-136770000D01*
X139290000Y-134690000D02*
X139290000Y-133421000D01*
X139290000Y-138039000D02*
X139290000Y-136770000D01*
X139330000Y-134690000D02*
X139330000Y-133401000D01*
X139330000Y-138059000D02*
X139330000Y-136770000D01*
X139370000Y-134690000D02*
X139370000Y-133383000D01*
X139370000Y-138077000D02*
X139370000Y-136770000D01*
X139410000Y-134690000D02*
X139410000Y-133365000D01*
X139410000Y-138095000D02*
X139410000Y-136770000D01*
X139450000Y-134690000D02*
X139450000Y-133348000D01*
X139450000Y-138112000D02*
X139450000Y-136770000D01*
X139490000Y-134690000D02*
X139490000Y-133332000D01*
X139490000Y-138128000D02*
X139490000Y-136770000D01*
X139530000Y-134690000D02*
X139530000Y-133317000D01*
X139530000Y-138143000D02*
X139530000Y-136770000D01*
X139570000Y-134690000D02*
X139570000Y-133302000D01*
X139570000Y-138158000D02*
X139570000Y-136770000D01*
X139610000Y-134690000D02*
X139610000Y-133288000D01*
X139610000Y-138172000D02*
X139610000Y-136770000D01*
X139650000Y-134690000D02*
X139650000Y-133275000D01*
X139650000Y-138185000D02*
X139650000Y-136770000D01*
X139690000Y-134690000D02*
X139690000Y-133263000D01*
X139690000Y-138197000D02*
X139690000Y-136770000D01*
X139730000Y-134690000D02*
X139730000Y-133251000D01*
X139730000Y-138209000D02*
X139730000Y-136770000D01*
X139770000Y-134690000D02*
X139770000Y-133240000D01*
X139770000Y-138220000D02*
X139770000Y-136770000D01*
X139810000Y-134690000D02*
X139810000Y-133229000D01*
X139810000Y-138231000D02*
X139810000Y-136770000D01*
X139850000Y-134690000D02*
X139850000Y-133220000D01*
X139850000Y-138240000D02*
X139850000Y-136770000D01*
X139890000Y-134690000D02*
X139890000Y-133211000D01*
X139890000Y-138249000D02*
X139890000Y-136770000D01*
X139930000Y-134690000D02*
X139930000Y-133202000D01*
X139930000Y-138258000D02*
X139930000Y-136770000D01*
X139970000Y-134690000D02*
X139970000Y-133194000D01*
X139970000Y-138266000D02*
X139970000Y-136770000D01*
X140010000Y-134690000D02*
X140010000Y-133187000D01*
X140010000Y-138273000D02*
X140010000Y-136770000D01*
X140050000Y-134690000D02*
X140050000Y-133181000D01*
X140050000Y-138279000D02*
X140050000Y-136770000D01*
X140090000Y-134690000D02*
X140090000Y-133175000D01*
X140090000Y-138285000D02*
X140090000Y-136770000D01*
X140130000Y-134690000D02*
X140130000Y-133170000D01*
X140130000Y-138290000D02*
X140130000Y-136770000D01*
X140170000Y-134690000D02*
X140170000Y-133165000D01*
X140170000Y-138295000D02*
X140170000Y-136770000D01*
X140210000Y-134690000D02*
X140210000Y-133161000D01*
X140210000Y-138299000D02*
X140210000Y-136770000D01*
X140250000Y-134690000D02*
X140250000Y-133158000D01*
X140250000Y-138302000D02*
X140250000Y-136770000D01*
X140290000Y-134690000D02*
X140290000Y-133155000D01*
X140290000Y-138305000D02*
X140290000Y-136770000D01*
X140330000Y-134690000D02*
X140330000Y-133153000D01*
X140330000Y-138307000D02*
X140330000Y-136770000D01*
X140370000Y-134690000D02*
X140370000Y-133151000D01*
X140370000Y-138309000D02*
X140370000Y-136770000D01*
X140410000Y-134690000D02*
X140410000Y-133150000D01*
X140410000Y-138310000D02*
X140410000Y-136770000D01*
X140450000Y-134690000D02*
X140450000Y-133150000D01*
X140450000Y-138310000D02*
X140450000Y-136770000D01*
X143004775Y-137455000D02*
X143004775Y-136955000D01*
X143254775Y-137205000D02*
X142754775Y-137205000D01*
X143070000Y-135730000D02*
G75*
G02*
X137830000Y-135730000I-2620000J0D01*
G01*
X137830000Y-135730000D02*
G75*
G02*
X143070000Y-135730000I2620000J0D01*
G01*
%TO.C,R9*%
X168765000Y-124957064D02*
X168765000Y-124502936D01*
X170235000Y-124957064D02*
X170235000Y-124502936D01*
%TO.C,D3*%
X154530000Y-97170000D02*
X154374000Y-97170000D01*
X156846000Y-97170000D02*
X156690000Y-97170000D01*
X154530000Y-99770961D02*
G75*
G02*
X154530000Y-97689039I1080000J1040961D01*
G01*
X154530000Y-100401437D02*
G75*
G02*
X154374484Y-97170000I1080000J1671437D01*
G01*
X156690000Y-97689039D02*
G75*
G02*
X156690000Y-99770961I-1080000J-1040961D01*
G01*
X156845516Y-97170000D02*
G75*
G02*
X156690000Y-100401437I-1235516J-1560000D01*
G01*
%TO.C,R6*%
X148845000Y-105127064D02*
X148845000Y-104672936D01*
X150315000Y-105127064D02*
X150315000Y-104672936D01*
%TO.C,R1*%
X172185000Y-124957064D02*
X172185000Y-124502936D01*
X173655000Y-124957064D02*
X173655000Y-124502936D01*
%TO.C,D1*%
X147260000Y-136772500D02*
X147260000Y-142282500D01*
X150560000Y-136772500D02*
X147260000Y-136772500D01*
X150560000Y-136772500D02*
X150560000Y-142282500D01*
%TO.C,C2*%
X137880000Y-129913000D02*
X137880000Y-129347000D01*
X137920000Y-130147000D02*
X137920000Y-129113000D01*
X137960000Y-130307000D02*
X137960000Y-128953000D01*
X138000000Y-130435000D02*
X138000000Y-128825000D01*
X138040000Y-130544000D02*
X138040000Y-128716000D01*
X138080000Y-130641000D02*
X138080000Y-128619000D01*
X138120000Y-130728000D02*
X138120000Y-128532000D01*
X138160000Y-130807000D02*
X138160000Y-128453000D01*
X138200000Y-130881000D02*
X138200000Y-128379000D01*
X138240000Y-130949000D02*
X138240000Y-128311000D01*
X138280000Y-131013000D02*
X138280000Y-128247000D01*
X138320000Y-131073000D02*
X138320000Y-128187000D01*
X138360000Y-131129000D02*
X138360000Y-128131000D01*
X138400000Y-131183000D02*
X138400000Y-128077000D01*
X138440000Y-131234000D02*
X138440000Y-128026000D01*
X138480000Y-128590000D02*
X138480000Y-127978000D01*
X138480000Y-131282000D02*
X138480000Y-130670000D01*
X138520000Y-128590000D02*
X138520000Y-127931000D01*
X138520000Y-131329000D02*
X138520000Y-130670000D01*
X138560000Y-128590000D02*
X138560000Y-127887000D01*
X138560000Y-131373000D02*
X138560000Y-130670000D01*
X138600000Y-128590000D02*
X138600000Y-127845000D01*
X138600000Y-131415000D02*
X138600000Y-130670000D01*
X138640000Y-128590000D02*
X138640000Y-127805000D01*
X138640000Y-131455000D02*
X138640000Y-130670000D01*
X138680000Y-128590000D02*
X138680000Y-127766000D01*
X138680000Y-131494000D02*
X138680000Y-130670000D01*
X138720000Y-128590000D02*
X138720000Y-127729000D01*
X138720000Y-131531000D02*
X138720000Y-130670000D01*
X138760000Y-128590000D02*
X138760000Y-127694000D01*
X138760000Y-131566000D02*
X138760000Y-130670000D01*
X138800000Y-128590000D02*
X138800000Y-127660000D01*
X138800000Y-131600000D02*
X138800000Y-130670000D01*
X138840000Y-128590000D02*
X138840000Y-127627000D01*
X138840000Y-131633000D02*
X138840000Y-130670000D01*
X138880000Y-128590000D02*
X138880000Y-127595000D01*
X138880000Y-131665000D02*
X138880000Y-130670000D01*
X138920000Y-128590000D02*
X138920000Y-127565000D01*
X138920000Y-131695000D02*
X138920000Y-130670000D01*
X138960000Y-128590000D02*
X138960000Y-127536000D01*
X138960000Y-131724000D02*
X138960000Y-130670000D01*
X139000000Y-128590000D02*
X139000000Y-127508000D01*
X139000000Y-131752000D02*
X139000000Y-130670000D01*
X139040000Y-128590000D02*
X139040000Y-127481000D01*
X139040000Y-131779000D02*
X139040000Y-130670000D01*
X139080000Y-128590000D02*
X139080000Y-127455000D01*
X139080000Y-131805000D02*
X139080000Y-130670000D01*
X139120000Y-128590000D02*
X139120000Y-127431000D01*
X139120000Y-131829000D02*
X139120000Y-130670000D01*
X139160000Y-128590000D02*
X139160000Y-127407000D01*
X139160000Y-131853000D02*
X139160000Y-130670000D01*
X139200000Y-128590000D02*
X139200000Y-127384000D01*
X139200000Y-131876000D02*
X139200000Y-130670000D01*
X139240000Y-128590000D02*
X139240000Y-127362000D01*
X139240000Y-131898000D02*
X139240000Y-130670000D01*
X139280000Y-128590000D02*
X139280000Y-127341000D01*
X139280000Y-131919000D02*
X139280000Y-130670000D01*
X139320000Y-128590000D02*
X139320000Y-127321000D01*
X139320000Y-131939000D02*
X139320000Y-130670000D01*
X139360000Y-128590000D02*
X139360000Y-127301000D01*
X139360000Y-131959000D02*
X139360000Y-130670000D01*
X139400000Y-128590000D02*
X139400000Y-127283000D01*
X139400000Y-131977000D02*
X139400000Y-130670000D01*
X139440000Y-128590000D02*
X139440000Y-127265000D01*
X139440000Y-131995000D02*
X139440000Y-130670000D01*
X139480000Y-128590000D02*
X139480000Y-127248000D01*
X139480000Y-132012000D02*
X139480000Y-130670000D01*
X139520000Y-128590000D02*
X139520000Y-127232000D01*
X139520000Y-132028000D02*
X139520000Y-130670000D01*
X139560000Y-128590000D02*
X139560000Y-127217000D01*
X139560000Y-132043000D02*
X139560000Y-130670000D01*
X139600000Y-128590000D02*
X139600000Y-127202000D01*
X139600000Y-132058000D02*
X139600000Y-130670000D01*
X139640000Y-128590000D02*
X139640000Y-127188000D01*
X139640000Y-132072000D02*
X139640000Y-130670000D01*
X139680000Y-128590000D02*
X139680000Y-127175000D01*
X139680000Y-132085000D02*
X139680000Y-130670000D01*
X139720000Y-128590000D02*
X139720000Y-127163000D01*
X139720000Y-132097000D02*
X139720000Y-130670000D01*
X139760000Y-128590000D02*
X139760000Y-127151000D01*
X139760000Y-132109000D02*
X139760000Y-130670000D01*
X139800000Y-128590000D02*
X139800000Y-127140000D01*
X139800000Y-132120000D02*
X139800000Y-130670000D01*
X139840000Y-128590000D02*
X139840000Y-127129000D01*
X139840000Y-132131000D02*
X139840000Y-130670000D01*
X139880000Y-128590000D02*
X139880000Y-127120000D01*
X139880000Y-132140000D02*
X139880000Y-130670000D01*
X139920000Y-128590000D02*
X139920000Y-127111000D01*
X139920000Y-132149000D02*
X139920000Y-130670000D01*
X139960000Y-128590000D02*
X139960000Y-127102000D01*
X139960000Y-132158000D02*
X139960000Y-130670000D01*
X140000000Y-128590000D02*
X140000000Y-127094000D01*
X140000000Y-132166000D02*
X140000000Y-130670000D01*
X140040000Y-128590000D02*
X140040000Y-127087000D01*
X140040000Y-132173000D02*
X140040000Y-130670000D01*
X140080000Y-128590000D02*
X140080000Y-127081000D01*
X140080000Y-132179000D02*
X140080000Y-130670000D01*
X140120000Y-128590000D02*
X140120000Y-127075000D01*
X140120000Y-132185000D02*
X140120000Y-130670000D01*
X140160000Y-128590000D02*
X140160000Y-127070000D01*
X140160000Y-132190000D02*
X140160000Y-130670000D01*
X140200000Y-128590000D02*
X140200000Y-127065000D01*
X140200000Y-132195000D02*
X140200000Y-130670000D01*
X140240000Y-128590000D02*
X140240000Y-127061000D01*
X140240000Y-132199000D02*
X140240000Y-130670000D01*
X140280000Y-128590000D02*
X140280000Y-127058000D01*
X140280000Y-132202000D02*
X140280000Y-130670000D01*
X140320000Y-128590000D02*
X140320000Y-127055000D01*
X140320000Y-132205000D02*
X140320000Y-130670000D01*
X140360000Y-128590000D02*
X140360000Y-127053000D01*
X140360000Y-132207000D02*
X140360000Y-130670000D01*
X140400000Y-128590000D02*
X140400000Y-127051000D01*
X140400000Y-132209000D02*
X140400000Y-130670000D01*
X140440000Y-128590000D02*
X140440000Y-127050000D01*
X140440000Y-132210000D02*
X140440000Y-130670000D01*
X140480000Y-128590000D02*
X140480000Y-127050000D01*
X140480000Y-132210000D02*
X140480000Y-130670000D01*
X143034775Y-131355000D02*
X143034775Y-130855000D01*
X143284775Y-131105000D02*
X142784775Y-131105000D01*
X143100000Y-129630000D02*
G75*
G02*
X137860000Y-129630000I-2620000J0D01*
G01*
X137860000Y-129630000D02*
G75*
G02*
X143100000Y-129630000I2620000J0D01*
G01*
%TO.C,D4*%
X160490000Y-97180000D02*
X160334000Y-97180000D01*
X162806000Y-97180000D02*
X162650000Y-97180000D01*
X160490000Y-99780961D02*
G75*
G02*
X160490000Y-97699039I1080000J1040961D01*
G01*
X160490000Y-100411437D02*
G75*
G02*
X160334484Y-97180000I1080000J1671437D01*
G01*
X162650000Y-97699039D02*
G75*
G02*
X162650000Y-99780961I-1080000J-1040961D01*
G01*
X162805516Y-97180000D02*
G75*
G02*
X162650000Y-100411437I-1235516J-1560000D01*
G01*
%TO.C,C7*%
X168225000Y-108101252D02*
X168225000Y-107578748D01*
X169695000Y-108101252D02*
X169695000Y-107578748D01*
%TO.C,C1*%
X141021252Y-124765000D02*
X140498748Y-124765000D01*
X141021252Y-126235000D02*
X140498748Y-126235000D01*
%TO.C,SW2*%
X176840000Y-113170000D02*
X176840000Y-114670000D01*
X178090000Y-117170000D02*
X182590000Y-117170000D01*
X182590000Y-110670000D02*
X178090000Y-110670000D01*
X183840000Y-114670000D02*
X183840000Y-113170000D01*
%TO.C,R2*%
X148130436Y-90005000D02*
X148584564Y-90005000D01*
X148130436Y-91475000D02*
X148584564Y-91475000D01*
%TO.C,R5*%
X172165000Y-115897064D02*
X172165000Y-115442936D01*
X173635000Y-115897064D02*
X173635000Y-115442936D01*
%TO.C,C8*%
X168495000Y-116011252D02*
X168495000Y-115488748D01*
X169965000Y-116011252D02*
X169965000Y-115488748D01*
%TO.C,C4*%
X146655113Y-115363000D02*
X146655113Y-114797000D01*
X146695113Y-115597000D02*
X146695113Y-114563000D01*
X146735113Y-115757000D02*
X146735113Y-114403000D01*
X146775113Y-115885000D02*
X146775113Y-114275000D01*
X146815113Y-115994000D02*
X146815113Y-114166000D01*
X146855113Y-116091000D02*
X146855113Y-114069000D01*
X146895113Y-116178000D02*
X146895113Y-113982000D01*
X146935113Y-116257000D02*
X146935113Y-113903000D01*
X146975113Y-116331000D02*
X146975113Y-113829000D01*
X147015113Y-116399000D02*
X147015113Y-113761000D01*
X147055113Y-116463000D02*
X147055113Y-113697000D01*
X147095113Y-116523000D02*
X147095113Y-113637000D01*
X147135113Y-116579000D02*
X147135113Y-113581000D01*
X147175113Y-116633000D02*
X147175113Y-113527000D01*
X147215113Y-116684000D02*
X147215113Y-113476000D01*
X147255113Y-114040000D02*
X147255113Y-113428000D01*
X147255113Y-116732000D02*
X147255113Y-116120000D01*
X147295113Y-114040000D02*
X147295113Y-113381000D01*
X147295113Y-116779000D02*
X147295113Y-116120000D01*
X147335113Y-114040000D02*
X147335113Y-113337000D01*
X147335113Y-116823000D02*
X147335113Y-116120000D01*
X147375113Y-114040000D02*
X147375113Y-113295000D01*
X147375113Y-116865000D02*
X147375113Y-116120000D01*
X147415113Y-114040000D02*
X147415113Y-113255000D01*
X147415113Y-116905000D02*
X147415113Y-116120000D01*
X147455113Y-114040000D02*
X147455113Y-113216000D01*
X147455113Y-116944000D02*
X147455113Y-116120000D01*
X147495113Y-114040000D02*
X147495113Y-113179000D01*
X147495113Y-116981000D02*
X147495113Y-116120000D01*
X147535113Y-114040000D02*
X147535113Y-113144000D01*
X147535113Y-117016000D02*
X147535113Y-116120000D01*
X147575113Y-114040000D02*
X147575113Y-113110000D01*
X147575113Y-117050000D02*
X147575113Y-116120000D01*
X147615113Y-114040000D02*
X147615113Y-113077000D01*
X147615113Y-117083000D02*
X147615113Y-116120000D01*
X147655113Y-114040000D02*
X147655113Y-113045000D01*
X147655113Y-117115000D02*
X147655113Y-116120000D01*
X147695113Y-114040000D02*
X147695113Y-113015000D01*
X147695113Y-117145000D02*
X147695113Y-116120000D01*
X147735113Y-114040000D02*
X147735113Y-112986000D01*
X147735113Y-117174000D02*
X147735113Y-116120000D01*
X147775113Y-114040000D02*
X147775113Y-112958000D01*
X147775113Y-117202000D02*
X147775113Y-116120000D01*
X147815113Y-114040000D02*
X147815113Y-112931000D01*
X147815113Y-117229000D02*
X147815113Y-116120000D01*
X147855113Y-114040000D02*
X147855113Y-112905000D01*
X147855113Y-117255000D02*
X147855113Y-116120000D01*
X147895113Y-114040000D02*
X147895113Y-112881000D01*
X147895113Y-117279000D02*
X147895113Y-116120000D01*
X147935113Y-114040000D02*
X147935113Y-112857000D01*
X147935113Y-117303000D02*
X147935113Y-116120000D01*
X147975113Y-114040000D02*
X147975113Y-112834000D01*
X147975113Y-117326000D02*
X147975113Y-116120000D01*
X148015113Y-114040000D02*
X148015113Y-112812000D01*
X148015113Y-117348000D02*
X148015113Y-116120000D01*
X148055113Y-114040000D02*
X148055113Y-112791000D01*
X148055113Y-117369000D02*
X148055113Y-116120000D01*
X148095113Y-114040000D02*
X148095113Y-112771000D01*
X148095113Y-117389000D02*
X148095113Y-116120000D01*
X148135113Y-114040000D02*
X148135113Y-112751000D01*
X148135113Y-117409000D02*
X148135113Y-116120000D01*
X148175113Y-114040000D02*
X148175113Y-112733000D01*
X148175113Y-117427000D02*
X148175113Y-116120000D01*
X148215113Y-114040000D02*
X148215113Y-112715000D01*
X148215113Y-117445000D02*
X148215113Y-116120000D01*
X148255113Y-114040000D02*
X148255113Y-112698000D01*
X148255113Y-117462000D02*
X148255113Y-116120000D01*
X148295113Y-114040000D02*
X148295113Y-112682000D01*
X148295113Y-117478000D02*
X148295113Y-116120000D01*
X148335113Y-114040000D02*
X148335113Y-112667000D01*
X148335113Y-117493000D02*
X148335113Y-116120000D01*
X148375113Y-114040000D02*
X148375113Y-112652000D01*
X148375113Y-117508000D02*
X148375113Y-116120000D01*
X148415113Y-114040000D02*
X148415113Y-112638000D01*
X148415113Y-117522000D02*
X148415113Y-116120000D01*
X148455113Y-114040000D02*
X148455113Y-112625000D01*
X148455113Y-117535000D02*
X148455113Y-116120000D01*
X148495113Y-114040000D02*
X148495113Y-112613000D01*
X148495113Y-117547000D02*
X148495113Y-116120000D01*
X148535113Y-114040000D02*
X148535113Y-112601000D01*
X148535113Y-117559000D02*
X148535113Y-116120000D01*
X148575113Y-114040000D02*
X148575113Y-112590000D01*
X148575113Y-117570000D02*
X148575113Y-116120000D01*
X148615113Y-114040000D02*
X148615113Y-112579000D01*
X148615113Y-117581000D02*
X148615113Y-116120000D01*
X148655113Y-114040000D02*
X148655113Y-112570000D01*
X148655113Y-117590000D02*
X148655113Y-116120000D01*
X148695113Y-114040000D02*
X148695113Y-112561000D01*
X148695113Y-117599000D02*
X148695113Y-116120000D01*
X148735113Y-114040000D02*
X148735113Y-112552000D01*
X148735113Y-117608000D02*
X148735113Y-116120000D01*
X148775113Y-114040000D02*
X148775113Y-112544000D01*
X148775113Y-117616000D02*
X148775113Y-116120000D01*
X148815113Y-114040000D02*
X148815113Y-112537000D01*
X148815113Y-117623000D02*
X148815113Y-116120000D01*
X148855113Y-114040000D02*
X148855113Y-112531000D01*
X148855113Y-117629000D02*
X148855113Y-116120000D01*
X148895113Y-114040000D02*
X148895113Y-112525000D01*
X148895113Y-117635000D02*
X148895113Y-116120000D01*
X148935113Y-114040000D02*
X148935113Y-112520000D01*
X148935113Y-117640000D02*
X148935113Y-116120000D01*
X148975113Y-114040000D02*
X148975113Y-112515000D01*
X148975113Y-117645000D02*
X148975113Y-116120000D01*
X149015113Y-114040000D02*
X149015113Y-112511000D01*
X149015113Y-117649000D02*
X149015113Y-116120000D01*
X149055113Y-114040000D02*
X149055113Y-112508000D01*
X149055113Y-117652000D02*
X149055113Y-116120000D01*
X149095113Y-114040000D02*
X149095113Y-112505000D01*
X149095113Y-117655000D02*
X149095113Y-116120000D01*
X149135113Y-114040000D02*
X149135113Y-112503000D01*
X149135113Y-117657000D02*
X149135113Y-116120000D01*
X149175113Y-114040000D02*
X149175113Y-112501000D01*
X149175113Y-117659000D02*
X149175113Y-116120000D01*
X149215113Y-114040000D02*
X149215113Y-112500000D01*
X149215113Y-117660000D02*
X149215113Y-116120000D01*
X149255113Y-114040000D02*
X149255113Y-112500000D01*
X149255113Y-117660000D02*
X149255113Y-116120000D01*
X151809888Y-116805000D02*
X151809888Y-116305000D01*
X152059888Y-116555000D02*
X151559888Y-116555000D01*
X151875113Y-115080000D02*
G75*
G02*
X146635113Y-115080000I-2620000J0D01*
G01*
X146635113Y-115080000D02*
G75*
G02*
X151875113Y-115080000I2620000J0D01*
G01*
%TO.C,D2*%
X148570000Y-97170000D02*
X148414000Y-97170000D01*
X150886000Y-97170000D02*
X150730000Y-97170000D01*
X148570000Y-99770961D02*
G75*
G02*
X148570000Y-97689039I1080000J1040961D01*
G01*
X148570000Y-100401437D02*
G75*
G02*
X148414484Y-97170000I1080000J1671437D01*
G01*
X150730000Y-97689039D02*
G75*
G02*
X150730000Y-99770961I-1080000J-1040961D01*
G01*
X150885516Y-97170000D02*
G75*
G02*
X150730000Y-100401437I-1235516J-1560000D01*
G01*
%TO.C,R4*%
X171925000Y-108047064D02*
X171925000Y-107592936D01*
X173395000Y-108047064D02*
X173395000Y-107592936D01*
%TO.C,C6*%
X160238748Y-119995000D02*
X160761252Y-119995000D01*
X160238748Y-121465000D02*
X160761252Y-121465000D01*
%TO.C,U3*%
X158690000Y-125000000D02*
X158690000Y-124200000D01*
X158690000Y-125000000D02*
X158690000Y-125800000D01*
X161810000Y-125000000D02*
X161810000Y-124200000D01*
X161810000Y-125000000D02*
X161810000Y-125800000D01*
X162090000Y-123940000D02*
X161760000Y-123700000D01*
X162090000Y-123460000D01*
X162090000Y-123940000D01*
G36*
X162090000Y-123940000D02*
G01*
X161760000Y-123700000D01*
X162090000Y-123460000D01*
X162090000Y-123940000D01*
G37*
%TO.C,D5*%
X147340000Y-129330000D02*
X147340000Y-132630000D01*
X147340000Y-129330000D02*
X152850000Y-129330000D01*
X147340000Y-132630000D02*
X152850000Y-132630000D01*
%TO.C,SW1*%
X176830000Y-104750000D02*
X176830000Y-106250000D01*
X178080000Y-108750000D02*
X182580000Y-108750000D01*
X182580000Y-102250000D02*
X178080000Y-102250000D01*
X183830000Y-106250000D02*
X183830000Y-104750000D01*
%TO.C,R8*%
X154225000Y-104702936D02*
X154225000Y-105157064D01*
X155695000Y-104702936D02*
X155695000Y-105157064D01*
%TO.C,SW3*%
X176830000Y-121700000D02*
X176830000Y-123200000D01*
X178080000Y-125700000D02*
X182580000Y-125700000D01*
X182580000Y-119200000D02*
X178080000Y-119200000D01*
X183830000Y-123200000D02*
X183830000Y-121700000D01*
%TO.C,R3*%
X148122936Y-93795000D02*
X148577064Y-93795000D01*
X148122936Y-95265000D02*
X148577064Y-95265000D01*
%TO.C,U2*%
X148210000Y-119210000D02*
X151970000Y-119210000D01*
X148210000Y-126030000D02*
X151970000Y-126030000D01*
X151970000Y-119210000D02*
X151970000Y-120470000D01*
X151970000Y-126030000D02*
X151970000Y-124770000D01*
X146930000Y-119310000D02*
X146690000Y-118980000D01*
X147170000Y-118980000D01*
X146930000Y-119310000D01*
G36*
X146930000Y-119310000D02*
G01*
X146690000Y-118980000D01*
X147170000Y-118980000D01*
X146930000Y-119310000D01*
G37*
%TO.C,C9*%
X148701252Y-75665000D02*
X148178748Y-75665000D01*
X148701252Y-77135000D02*
X148178748Y-77135000D01*
%TD*%
M02*
