%TF.GenerationSoftware,KiCad,Pcbnew,9.0.2*%
%TF.CreationDate,2026-09-07T22:26:10+07:00*%
%TF.ProjectId,PWMaster,50574d61-7374-4657-922e-6b696361645f,rev?*%
%TF.SameCoordinates,Original*%
%TF.FileFunction,Legend,Bot*%
%TF.FilePolarity,Positive*%
%FSLAX46Y46*%
G04 Gerber Fmt 4.6, Leading zero omitted, Abs format (unit mm)*
G04 Created by KiCad (PCBNEW 9.0.2) date 2026-09-07 22:26:10*
%MOMM*%
%LPD*%
G01*
G04 APERTURE LIST*
%ADD10C,0.125000*%
%ADD11C,0.150000*%
%ADD12C,0.120000*%
G04 APERTURE END LIST*
D10*
X180579668Y-97887786D02*
X180579668Y-96887786D01*
X180579668Y-96887786D02*
X180246335Y-97602071D01*
X180246335Y-97602071D02*
X179913002Y-96887786D01*
X179913002Y-96887786D02*
X179913002Y-97887786D01*
X179579668Y-96887786D02*
X179008240Y-96887786D01*
X179293954Y-97887786D02*
X179293954Y-96887786D01*
X178103478Y-97792547D02*
X178151097Y-97840167D01*
X178151097Y-97840167D02*
X178293954Y-97887786D01*
X178293954Y-97887786D02*
X178389192Y-97887786D01*
X178389192Y-97887786D02*
X178532049Y-97840167D01*
X178532049Y-97840167D02*
X178627287Y-97744928D01*
X178627287Y-97744928D02*
X178674906Y-97649690D01*
X178674906Y-97649690D02*
X178722525Y-97459214D01*
X178722525Y-97459214D02*
X178722525Y-97316357D01*
X178722525Y-97316357D02*
X178674906Y-97125881D01*
X178674906Y-97125881D02*
X178627287Y-97030643D01*
X178627287Y-97030643D02*
X178532049Y-96935405D01*
X178532049Y-96935405D02*
X178389192Y-96887786D01*
X178389192Y-96887786D02*
X178293954Y-96887786D01*
X178293954Y-96887786D02*
X178151097Y-96935405D01*
X178151097Y-96935405D02*
X178103478Y-96983024D01*
X177674906Y-97887786D02*
X177674906Y-96887786D01*
X177103478Y-97887786D02*
X177532049Y-97316357D01*
X177103478Y-96887786D02*
X177674906Y-97459214D01*
X180579668Y-95331119D02*
X180579668Y-94331119D01*
X180579668Y-94331119D02*
X180246335Y-95045404D01*
X180246335Y-95045404D02*
X179913002Y-94331119D01*
X179913002Y-94331119D02*
X179913002Y-95331119D01*
X179579668Y-94331119D02*
X179008240Y-94331119D01*
X179293954Y-95331119D02*
X179293954Y-94331119D01*
X178674906Y-95331119D02*
X178674906Y-94331119D01*
X178674906Y-94331119D02*
X178436811Y-94331119D01*
X178436811Y-94331119D02*
X178293954Y-94378738D01*
X178293954Y-94378738D02*
X178198716Y-94473976D01*
X178198716Y-94473976D02*
X178151097Y-94569214D01*
X178151097Y-94569214D02*
X178103478Y-94759690D01*
X178103478Y-94759690D02*
X178103478Y-94902547D01*
X178103478Y-94902547D02*
X178151097Y-95093023D01*
X178151097Y-95093023D02*
X178198716Y-95188261D01*
X178198716Y-95188261D02*
X178293954Y-95283500D01*
X178293954Y-95283500D02*
X178436811Y-95331119D01*
X178436811Y-95331119D02*
X178674906Y-95331119D01*
X177484430Y-94331119D02*
X177293954Y-94331119D01*
X177293954Y-94331119D02*
X177198716Y-94378738D01*
X177198716Y-94378738D02*
X177103478Y-94473976D01*
X177103478Y-94473976D02*
X177055859Y-94664452D01*
X177055859Y-94664452D02*
X177055859Y-94997785D01*
X177055859Y-94997785D02*
X177103478Y-95188261D01*
X177103478Y-95188261D02*
X177198716Y-95283500D01*
X177198716Y-95283500D02*
X177293954Y-95331119D01*
X177293954Y-95331119D02*
X177484430Y-95331119D01*
X177484430Y-95331119D02*
X177579668Y-95283500D01*
X177579668Y-95283500D02*
X177674906Y-95188261D01*
X177674906Y-95188261D02*
X177722525Y-94997785D01*
X177722525Y-94997785D02*
X177722525Y-94664452D01*
X177722525Y-94664452D02*
X177674906Y-94473976D01*
X177674906Y-94473976D02*
X177579668Y-94378738D01*
X177579668Y-94378738D02*
X177484430Y-94331119D01*
X180579668Y-92774453D02*
X180579668Y-91774453D01*
X180579668Y-91774453D02*
X180246335Y-92488738D01*
X180246335Y-92488738D02*
X179913002Y-91774453D01*
X179913002Y-91774453D02*
X179913002Y-92774453D01*
X179579668Y-91774453D02*
X179008240Y-91774453D01*
X179293954Y-92774453D02*
X179293954Y-91774453D01*
X178674906Y-92774453D02*
X178674906Y-91774453D01*
X178674906Y-91774453D02*
X178436811Y-91774453D01*
X178436811Y-91774453D02*
X178293954Y-91822072D01*
X178293954Y-91822072D02*
X178198716Y-91917310D01*
X178198716Y-91917310D02*
X178151097Y-92012548D01*
X178151097Y-92012548D02*
X178103478Y-92203024D01*
X178103478Y-92203024D02*
X178103478Y-92345881D01*
X178103478Y-92345881D02*
X178151097Y-92536357D01*
X178151097Y-92536357D02*
X178198716Y-92631595D01*
X178198716Y-92631595D02*
X178293954Y-92726834D01*
X178293954Y-92726834D02*
X178436811Y-92774453D01*
X178436811Y-92774453D02*
X178674906Y-92774453D01*
X177674906Y-92774453D02*
X177674906Y-91774453D01*
X180579668Y-90217786D02*
X180579668Y-89217786D01*
X180579668Y-89217786D02*
X180246335Y-89932071D01*
X180246335Y-89932071D02*
X179913002Y-89217786D01*
X179913002Y-89217786D02*
X179913002Y-90217786D01*
X179579668Y-89217786D02*
X179008240Y-89217786D01*
X179293954Y-90217786D02*
X179293954Y-89217786D01*
X178674906Y-90217786D02*
X178674906Y-89217786D01*
X178674906Y-89217786D02*
X178341573Y-89932071D01*
X178341573Y-89932071D02*
X178008240Y-89217786D01*
X178008240Y-89217786D02*
X178008240Y-90217786D01*
X177579668Y-90170167D02*
X177436811Y-90217786D01*
X177436811Y-90217786D02*
X177198716Y-90217786D01*
X177198716Y-90217786D02*
X177103478Y-90170167D01*
X177103478Y-90170167D02*
X177055859Y-90122547D01*
X177055859Y-90122547D02*
X177008240Y-90027309D01*
X177008240Y-90027309D02*
X177008240Y-89932071D01*
X177008240Y-89932071D02*
X177055859Y-89836833D01*
X177055859Y-89836833D02*
X177103478Y-89789214D01*
X177103478Y-89789214D02*
X177198716Y-89741595D01*
X177198716Y-89741595D02*
X177389192Y-89693976D01*
X177389192Y-89693976D02*
X177484430Y-89646357D01*
X177484430Y-89646357D02*
X177532049Y-89598738D01*
X177532049Y-89598738D02*
X177579668Y-89503500D01*
X177579668Y-89503500D02*
X177579668Y-89408262D01*
X177579668Y-89408262D02*
X177532049Y-89313024D01*
X177532049Y-89313024D02*
X177484430Y-89265405D01*
X177484430Y-89265405D02*
X177389192Y-89217786D01*
X177389192Y-89217786D02*
X177151097Y-89217786D01*
X177151097Y-89217786D02*
X177008240Y-89265405D01*
X180188240Y-85814452D02*
X180521573Y-85338261D01*
X180759668Y-85814452D02*
X180759668Y-84814452D01*
X180759668Y-84814452D02*
X180378716Y-84814452D01*
X180378716Y-84814452D02*
X180283478Y-84862071D01*
X180283478Y-84862071D02*
X180235859Y-84909690D01*
X180235859Y-84909690D02*
X180188240Y-85004928D01*
X180188240Y-85004928D02*
X180188240Y-85147785D01*
X180188240Y-85147785D02*
X180235859Y-85243023D01*
X180235859Y-85243023D02*
X180283478Y-85290642D01*
X180283478Y-85290642D02*
X180378716Y-85338261D01*
X180378716Y-85338261D02*
X180759668Y-85338261D01*
X179854906Y-84814452D02*
X179188240Y-85814452D01*
X179188240Y-84814452D02*
X179854906Y-85814452D01*
X178807287Y-85814452D02*
X178807287Y-84814452D01*
X178807287Y-84814452D02*
X178569192Y-84814452D01*
X178569192Y-84814452D02*
X178426335Y-84862071D01*
X178426335Y-84862071D02*
X178331097Y-84957309D01*
X178331097Y-84957309D02*
X178283478Y-85052547D01*
X178283478Y-85052547D02*
X178235859Y-85243023D01*
X178235859Y-85243023D02*
X178235859Y-85385880D01*
X178235859Y-85385880D02*
X178283478Y-85576356D01*
X178283478Y-85576356D02*
X178331097Y-85671594D01*
X178331097Y-85671594D02*
X178426335Y-85766833D01*
X178426335Y-85766833D02*
X178569192Y-85814452D01*
X178569192Y-85814452D02*
X178807287Y-85814452D01*
X177616811Y-84814452D02*
X177521573Y-84814452D01*
X177521573Y-84814452D02*
X177426335Y-84862071D01*
X177426335Y-84862071D02*
X177378716Y-84909690D01*
X177378716Y-84909690D02*
X177331097Y-85004928D01*
X177331097Y-85004928D02*
X177283478Y-85195404D01*
X177283478Y-85195404D02*
X177283478Y-85433499D01*
X177283478Y-85433499D02*
X177331097Y-85623975D01*
X177331097Y-85623975D02*
X177378716Y-85719213D01*
X177378716Y-85719213D02*
X177426335Y-85766833D01*
X177426335Y-85766833D02*
X177521573Y-85814452D01*
X177521573Y-85814452D02*
X177616811Y-85814452D01*
X177616811Y-85814452D02*
X177712049Y-85766833D01*
X177712049Y-85766833D02*
X177759668Y-85719213D01*
X177759668Y-85719213D02*
X177807287Y-85623975D01*
X177807287Y-85623975D02*
X177854906Y-85433499D01*
X177854906Y-85433499D02*
X177854906Y-85195404D01*
X177854906Y-85195404D02*
X177807287Y-85004928D01*
X177807287Y-85004928D02*
X177759668Y-84909690D01*
X177759668Y-84909690D02*
X177712049Y-84862071D01*
X177712049Y-84862071D02*
X177616811Y-84814452D01*
X180902525Y-82101119D02*
X180331097Y-82101119D01*
X180616811Y-83101119D02*
X180616811Y-82101119D01*
X180093001Y-82101119D02*
X179426335Y-83101119D01*
X179426335Y-82101119D02*
X180093001Y-83101119D01*
X179045382Y-83101119D02*
X179045382Y-82101119D01*
X179045382Y-82101119D02*
X178807287Y-82101119D01*
X178807287Y-82101119D02*
X178664430Y-82148738D01*
X178664430Y-82148738D02*
X178569192Y-82243976D01*
X178569192Y-82243976D02*
X178521573Y-82339214D01*
X178521573Y-82339214D02*
X178473954Y-82529690D01*
X178473954Y-82529690D02*
X178473954Y-82672547D01*
X178473954Y-82672547D02*
X178521573Y-82863023D01*
X178521573Y-82863023D02*
X178569192Y-82958261D01*
X178569192Y-82958261D02*
X178664430Y-83053500D01*
X178664430Y-83053500D02*
X178807287Y-83101119D01*
X178807287Y-83101119D02*
X179045382Y-83101119D01*
X177854906Y-82101119D02*
X177759668Y-82101119D01*
X177759668Y-82101119D02*
X177664430Y-82148738D01*
X177664430Y-82148738D02*
X177616811Y-82196357D01*
X177616811Y-82196357D02*
X177569192Y-82291595D01*
X177569192Y-82291595D02*
X177521573Y-82482071D01*
X177521573Y-82482071D02*
X177521573Y-82720166D01*
X177521573Y-82720166D02*
X177569192Y-82910642D01*
X177569192Y-82910642D02*
X177616811Y-83005880D01*
X177616811Y-83005880D02*
X177664430Y-83053500D01*
X177664430Y-83053500D02*
X177759668Y-83101119D01*
X177759668Y-83101119D02*
X177854906Y-83101119D01*
X177854906Y-83101119D02*
X177950144Y-83053500D01*
X177950144Y-83053500D02*
X177997763Y-83005880D01*
X177997763Y-83005880D02*
X178045382Y-82910642D01*
X178045382Y-82910642D02*
X178093001Y-82720166D01*
X178093001Y-82720166D02*
X178093001Y-82482071D01*
X178093001Y-82482071D02*
X178045382Y-82291595D01*
X178045382Y-82291595D02*
X177997763Y-82196357D01*
X177997763Y-82196357D02*
X177950144Y-82148738D01*
X177950144Y-82148738D02*
X177854906Y-82101119D01*
X180235859Y-79435404D02*
X180331097Y-79387785D01*
X180331097Y-79387785D02*
X180473954Y-79387785D01*
X180473954Y-79387785D02*
X180616811Y-79435404D01*
X180616811Y-79435404D02*
X180712049Y-79530642D01*
X180712049Y-79530642D02*
X180759668Y-79625880D01*
X180759668Y-79625880D02*
X180807287Y-79816356D01*
X180807287Y-79816356D02*
X180807287Y-79959213D01*
X180807287Y-79959213D02*
X180759668Y-80149689D01*
X180759668Y-80149689D02*
X180712049Y-80244927D01*
X180712049Y-80244927D02*
X180616811Y-80340166D01*
X180616811Y-80340166D02*
X180473954Y-80387785D01*
X180473954Y-80387785D02*
X180378716Y-80387785D01*
X180378716Y-80387785D02*
X180235859Y-80340166D01*
X180235859Y-80340166D02*
X180188240Y-80292546D01*
X180188240Y-80292546D02*
X180188240Y-79959213D01*
X180188240Y-79959213D02*
X180378716Y-79959213D01*
X179759668Y-80387785D02*
X179759668Y-79387785D01*
X179759668Y-79387785D02*
X179188240Y-80387785D01*
X179188240Y-80387785D02*
X179188240Y-79387785D01*
X178712049Y-80387785D02*
X178712049Y-79387785D01*
X178712049Y-79387785D02*
X178473954Y-79387785D01*
X178473954Y-79387785D02*
X178331097Y-79435404D01*
X178331097Y-79435404D02*
X178235859Y-79530642D01*
X178235859Y-79530642D02*
X178188240Y-79625880D01*
X178188240Y-79625880D02*
X178140621Y-79816356D01*
X178140621Y-79816356D02*
X178140621Y-79959213D01*
X178140621Y-79959213D02*
X178188240Y-80149689D01*
X178188240Y-80149689D02*
X178235859Y-80244927D01*
X178235859Y-80244927D02*
X178331097Y-80340166D01*
X178331097Y-80340166D02*
X178473954Y-80387785D01*
X178473954Y-80387785D02*
X178712049Y-80387785D01*
X180854906Y-76674452D02*
X180235859Y-76674452D01*
X180235859Y-76674452D02*
X180569192Y-77055404D01*
X180569192Y-77055404D02*
X180426335Y-77055404D01*
X180426335Y-77055404D02*
X180331097Y-77103023D01*
X180331097Y-77103023D02*
X180283478Y-77150642D01*
X180283478Y-77150642D02*
X180235859Y-77245880D01*
X180235859Y-77245880D02*
X180235859Y-77483975D01*
X180235859Y-77483975D02*
X180283478Y-77579213D01*
X180283478Y-77579213D02*
X180331097Y-77626833D01*
X180331097Y-77626833D02*
X180426335Y-77674452D01*
X180426335Y-77674452D02*
X180712049Y-77674452D01*
X180712049Y-77674452D02*
X180807287Y-77626833D01*
X180807287Y-77626833D02*
X180854906Y-77579213D01*
X179950144Y-76674452D02*
X179616811Y-77674452D01*
X179616811Y-77674452D02*
X179283478Y-76674452D01*
X179045382Y-76674452D02*
X178426335Y-76674452D01*
X178426335Y-76674452D02*
X178759668Y-77055404D01*
X178759668Y-77055404D02*
X178616811Y-77055404D01*
X178616811Y-77055404D02*
X178521573Y-77103023D01*
X178521573Y-77103023D02*
X178473954Y-77150642D01*
X178473954Y-77150642D02*
X178426335Y-77245880D01*
X178426335Y-77245880D02*
X178426335Y-77483975D01*
X178426335Y-77483975D02*
X178473954Y-77579213D01*
X178473954Y-77579213D02*
X178521573Y-77626833D01*
X178521573Y-77626833D02*
X178616811Y-77674452D01*
X178616811Y-77674452D02*
X178902525Y-77674452D01*
X178902525Y-77674452D02*
X178997763Y-77626833D01*
X178997763Y-77626833D02*
X179045382Y-77579213D01*
X139819668Y-119009070D02*
X139819668Y-118009070D01*
X139819668Y-118009070D02*
X139438716Y-118009070D01*
X139438716Y-118009070D02*
X139343478Y-118056689D01*
X139343478Y-118056689D02*
X139295859Y-118104308D01*
X139295859Y-118104308D02*
X139248240Y-118199546D01*
X139248240Y-118199546D02*
X139248240Y-118342403D01*
X139248240Y-118342403D02*
X139295859Y-118437641D01*
X139295859Y-118437641D02*
X139343478Y-118485260D01*
X139343478Y-118485260D02*
X139438716Y-118532879D01*
X139438716Y-118532879D02*
X139819668Y-118532879D01*
X138295859Y-119009070D02*
X138867287Y-119009070D01*
X138581573Y-119009070D02*
X138581573Y-118009070D01*
X138581573Y-118009070D02*
X138676811Y-118151927D01*
X138676811Y-118151927D02*
X138772049Y-118247165D01*
X138772049Y-118247165D02*
X138867287Y-118294784D01*
X137724430Y-118437641D02*
X137819668Y-118390022D01*
X137819668Y-118390022D02*
X137867287Y-118342403D01*
X137867287Y-118342403D02*
X137914906Y-118247165D01*
X137914906Y-118247165D02*
X137914906Y-118199546D01*
X137914906Y-118199546D02*
X137867287Y-118104308D01*
X137867287Y-118104308D02*
X137819668Y-118056689D01*
X137819668Y-118056689D02*
X137724430Y-118009070D01*
X137724430Y-118009070D02*
X137533954Y-118009070D01*
X137533954Y-118009070D02*
X137438716Y-118056689D01*
X137438716Y-118056689D02*
X137391097Y-118104308D01*
X137391097Y-118104308D02*
X137343478Y-118199546D01*
X137343478Y-118199546D02*
X137343478Y-118247165D01*
X137343478Y-118247165D02*
X137391097Y-118342403D01*
X137391097Y-118342403D02*
X137438716Y-118390022D01*
X137438716Y-118390022D02*
X137533954Y-118437641D01*
X137533954Y-118437641D02*
X137724430Y-118437641D01*
X137724430Y-118437641D02*
X137819668Y-118485260D01*
X137819668Y-118485260D02*
X137867287Y-118532879D01*
X137867287Y-118532879D02*
X137914906Y-118628117D01*
X137914906Y-118628117D02*
X137914906Y-118818593D01*
X137914906Y-118818593D02*
X137867287Y-118913831D01*
X137867287Y-118913831D02*
X137819668Y-118961451D01*
X137819668Y-118961451D02*
X137724430Y-119009070D01*
X137724430Y-119009070D02*
X137533954Y-119009070D01*
X137533954Y-119009070D02*
X137438716Y-118961451D01*
X137438716Y-118961451D02*
X137391097Y-118913831D01*
X137391097Y-118913831D02*
X137343478Y-118818593D01*
X137343478Y-118818593D02*
X137343478Y-118628117D01*
X137343478Y-118628117D02*
X137391097Y-118532879D01*
X137391097Y-118532879D02*
X137438716Y-118485260D01*
X137438716Y-118485260D02*
X137533954Y-118437641D01*
X139819668Y-116474582D02*
X139819668Y-115474582D01*
X139819668Y-115474582D02*
X139438716Y-115474582D01*
X139438716Y-115474582D02*
X139343478Y-115522201D01*
X139343478Y-115522201D02*
X139295859Y-115569820D01*
X139295859Y-115569820D02*
X139248240Y-115665058D01*
X139248240Y-115665058D02*
X139248240Y-115807915D01*
X139248240Y-115807915D02*
X139295859Y-115903153D01*
X139295859Y-115903153D02*
X139343478Y-115950772D01*
X139343478Y-115950772D02*
X139438716Y-115998391D01*
X139438716Y-115998391D02*
X139819668Y-115998391D01*
X138295859Y-116474582D02*
X138867287Y-116474582D01*
X138581573Y-116474582D02*
X138581573Y-115474582D01*
X138581573Y-115474582D02*
X138676811Y-115617439D01*
X138676811Y-115617439D02*
X138772049Y-115712677D01*
X138772049Y-115712677D02*
X138867287Y-115760296D01*
X137962525Y-115474582D02*
X137295859Y-115474582D01*
X137295859Y-115474582D02*
X137724430Y-116474582D01*
X139819668Y-113940094D02*
X139819668Y-112940094D01*
X139819668Y-112940094D02*
X139438716Y-112940094D01*
X139438716Y-112940094D02*
X139343478Y-112987713D01*
X139343478Y-112987713D02*
X139295859Y-113035332D01*
X139295859Y-113035332D02*
X139248240Y-113130570D01*
X139248240Y-113130570D02*
X139248240Y-113273427D01*
X139248240Y-113273427D02*
X139295859Y-113368665D01*
X139295859Y-113368665D02*
X139343478Y-113416284D01*
X139343478Y-113416284D02*
X139438716Y-113463903D01*
X139438716Y-113463903D02*
X139819668Y-113463903D01*
X138295859Y-113940094D02*
X138867287Y-113940094D01*
X138581573Y-113940094D02*
X138581573Y-112940094D01*
X138581573Y-112940094D02*
X138676811Y-113082951D01*
X138676811Y-113082951D02*
X138772049Y-113178189D01*
X138772049Y-113178189D02*
X138867287Y-113225808D01*
X137438716Y-112940094D02*
X137629192Y-112940094D01*
X137629192Y-112940094D02*
X137724430Y-112987713D01*
X137724430Y-112987713D02*
X137772049Y-113035332D01*
X137772049Y-113035332D02*
X137867287Y-113178189D01*
X137867287Y-113178189D02*
X137914906Y-113368665D01*
X137914906Y-113368665D02*
X137914906Y-113749617D01*
X137914906Y-113749617D02*
X137867287Y-113844855D01*
X137867287Y-113844855D02*
X137819668Y-113892475D01*
X137819668Y-113892475D02*
X137724430Y-113940094D01*
X137724430Y-113940094D02*
X137533954Y-113940094D01*
X137533954Y-113940094D02*
X137438716Y-113892475D01*
X137438716Y-113892475D02*
X137391097Y-113844855D01*
X137391097Y-113844855D02*
X137343478Y-113749617D01*
X137343478Y-113749617D02*
X137343478Y-113511522D01*
X137343478Y-113511522D02*
X137391097Y-113416284D01*
X137391097Y-113416284D02*
X137438716Y-113368665D01*
X137438716Y-113368665D02*
X137533954Y-113321046D01*
X137533954Y-113321046D02*
X137724430Y-113321046D01*
X137724430Y-113321046D02*
X137819668Y-113368665D01*
X137819668Y-113368665D02*
X137867287Y-113416284D01*
X137867287Y-113416284D02*
X137914906Y-113511522D01*
X139819668Y-111405606D02*
X139819668Y-110405606D01*
X139819668Y-110405606D02*
X139438716Y-110405606D01*
X139438716Y-110405606D02*
X139343478Y-110453225D01*
X139343478Y-110453225D02*
X139295859Y-110500844D01*
X139295859Y-110500844D02*
X139248240Y-110596082D01*
X139248240Y-110596082D02*
X139248240Y-110738939D01*
X139248240Y-110738939D02*
X139295859Y-110834177D01*
X139295859Y-110834177D02*
X139343478Y-110881796D01*
X139343478Y-110881796D02*
X139438716Y-110929415D01*
X139438716Y-110929415D02*
X139819668Y-110929415D01*
X138295859Y-111405606D02*
X138867287Y-111405606D01*
X138581573Y-111405606D02*
X138581573Y-110405606D01*
X138581573Y-110405606D02*
X138676811Y-110548463D01*
X138676811Y-110548463D02*
X138772049Y-110643701D01*
X138772049Y-110643701D02*
X138867287Y-110691320D01*
X137391097Y-110405606D02*
X137867287Y-110405606D01*
X137867287Y-110405606D02*
X137914906Y-110881796D01*
X137914906Y-110881796D02*
X137867287Y-110834177D01*
X137867287Y-110834177D02*
X137772049Y-110786558D01*
X137772049Y-110786558D02*
X137533954Y-110786558D01*
X137533954Y-110786558D02*
X137438716Y-110834177D01*
X137438716Y-110834177D02*
X137391097Y-110881796D01*
X137391097Y-110881796D02*
X137343478Y-110977034D01*
X137343478Y-110977034D02*
X137343478Y-111215129D01*
X137343478Y-111215129D02*
X137391097Y-111310367D01*
X137391097Y-111310367D02*
X137438716Y-111357987D01*
X137438716Y-111357987D02*
X137533954Y-111405606D01*
X137533954Y-111405606D02*
X137772049Y-111405606D01*
X137772049Y-111405606D02*
X137867287Y-111357987D01*
X137867287Y-111357987D02*
X137914906Y-111310367D01*
X139819668Y-108871119D02*
X139819668Y-107871119D01*
X139819668Y-107871119D02*
X139438716Y-107871119D01*
X139438716Y-107871119D02*
X139343478Y-107918738D01*
X139343478Y-107918738D02*
X139295859Y-107966357D01*
X139295859Y-107966357D02*
X139248240Y-108061595D01*
X139248240Y-108061595D02*
X139248240Y-108204452D01*
X139248240Y-108204452D02*
X139295859Y-108299690D01*
X139295859Y-108299690D02*
X139343478Y-108347309D01*
X139343478Y-108347309D02*
X139438716Y-108394928D01*
X139438716Y-108394928D02*
X139819668Y-108394928D01*
X138295859Y-108871119D02*
X138867287Y-108871119D01*
X138581573Y-108871119D02*
X138581573Y-107871119D01*
X138581573Y-107871119D02*
X138676811Y-108013976D01*
X138676811Y-108013976D02*
X138772049Y-108109214D01*
X138772049Y-108109214D02*
X138867287Y-108156833D01*
X137438716Y-108204452D02*
X137438716Y-108871119D01*
X137676811Y-107823500D02*
X137914906Y-108537785D01*
X137914906Y-108537785D02*
X137295859Y-108537785D01*
X139819668Y-106336631D02*
X139819668Y-105336631D01*
X139819668Y-105336631D02*
X139438716Y-105336631D01*
X139438716Y-105336631D02*
X139343478Y-105384250D01*
X139343478Y-105384250D02*
X139295859Y-105431869D01*
X139295859Y-105431869D02*
X139248240Y-105527107D01*
X139248240Y-105527107D02*
X139248240Y-105669964D01*
X139248240Y-105669964D02*
X139295859Y-105765202D01*
X139295859Y-105765202D02*
X139343478Y-105812821D01*
X139343478Y-105812821D02*
X139438716Y-105860440D01*
X139438716Y-105860440D02*
X139819668Y-105860440D01*
X138295859Y-106336631D02*
X138867287Y-106336631D01*
X138581573Y-106336631D02*
X138581573Y-105336631D01*
X138581573Y-105336631D02*
X138676811Y-105479488D01*
X138676811Y-105479488D02*
X138772049Y-105574726D01*
X138772049Y-105574726D02*
X138867287Y-105622345D01*
X137962525Y-105336631D02*
X137343478Y-105336631D01*
X137343478Y-105336631D02*
X137676811Y-105717583D01*
X137676811Y-105717583D02*
X137533954Y-105717583D01*
X137533954Y-105717583D02*
X137438716Y-105765202D01*
X137438716Y-105765202D02*
X137391097Y-105812821D01*
X137391097Y-105812821D02*
X137343478Y-105908059D01*
X137343478Y-105908059D02*
X137343478Y-106146154D01*
X137343478Y-106146154D02*
X137391097Y-106241392D01*
X137391097Y-106241392D02*
X137438716Y-106289012D01*
X137438716Y-106289012D02*
X137533954Y-106336631D01*
X137533954Y-106336631D02*
X137819668Y-106336631D01*
X137819668Y-106336631D02*
X137914906Y-106289012D01*
X137914906Y-106289012D02*
X137962525Y-106241392D01*
X139819668Y-103802143D02*
X139819668Y-102802143D01*
X139819668Y-102802143D02*
X139438716Y-102802143D01*
X139438716Y-102802143D02*
X139343478Y-102849762D01*
X139343478Y-102849762D02*
X139295859Y-102897381D01*
X139295859Y-102897381D02*
X139248240Y-102992619D01*
X139248240Y-102992619D02*
X139248240Y-103135476D01*
X139248240Y-103135476D02*
X139295859Y-103230714D01*
X139295859Y-103230714D02*
X139343478Y-103278333D01*
X139343478Y-103278333D02*
X139438716Y-103325952D01*
X139438716Y-103325952D02*
X139819668Y-103325952D01*
X138295859Y-103802143D02*
X138867287Y-103802143D01*
X138581573Y-103802143D02*
X138581573Y-102802143D01*
X138581573Y-102802143D02*
X138676811Y-102945000D01*
X138676811Y-102945000D02*
X138772049Y-103040238D01*
X138772049Y-103040238D02*
X138867287Y-103087857D01*
X137914906Y-102897381D02*
X137867287Y-102849762D01*
X137867287Y-102849762D02*
X137772049Y-102802143D01*
X137772049Y-102802143D02*
X137533954Y-102802143D01*
X137533954Y-102802143D02*
X137438716Y-102849762D01*
X137438716Y-102849762D02*
X137391097Y-102897381D01*
X137391097Y-102897381D02*
X137343478Y-102992619D01*
X137343478Y-102992619D02*
X137343478Y-103087857D01*
X137343478Y-103087857D02*
X137391097Y-103230714D01*
X137391097Y-103230714D02*
X137962525Y-103802143D01*
X137962525Y-103802143D02*
X137343478Y-103802143D01*
X139819668Y-101267655D02*
X139819668Y-100267655D01*
X139819668Y-100267655D02*
X139438716Y-100267655D01*
X139438716Y-100267655D02*
X139343478Y-100315274D01*
X139343478Y-100315274D02*
X139295859Y-100362893D01*
X139295859Y-100362893D02*
X139248240Y-100458131D01*
X139248240Y-100458131D02*
X139248240Y-100600988D01*
X139248240Y-100600988D02*
X139295859Y-100696226D01*
X139295859Y-100696226D02*
X139343478Y-100743845D01*
X139343478Y-100743845D02*
X139438716Y-100791464D01*
X139438716Y-100791464D02*
X139819668Y-100791464D01*
X138295859Y-101267655D02*
X138867287Y-101267655D01*
X138581573Y-101267655D02*
X138581573Y-100267655D01*
X138581573Y-100267655D02*
X138676811Y-100410512D01*
X138676811Y-100410512D02*
X138772049Y-100505750D01*
X138772049Y-100505750D02*
X138867287Y-100553369D01*
X137343478Y-101267655D02*
X137914906Y-101267655D01*
X137629192Y-101267655D02*
X137629192Y-100267655D01*
X137629192Y-100267655D02*
X137724430Y-100410512D01*
X137724430Y-100410512D02*
X137819668Y-100505750D01*
X137819668Y-100505750D02*
X137914906Y-100553369D01*
X139819668Y-98733167D02*
X139819668Y-97733167D01*
X139819668Y-97733167D02*
X139438716Y-97733167D01*
X139438716Y-97733167D02*
X139343478Y-97780786D01*
X139343478Y-97780786D02*
X139295859Y-97828405D01*
X139295859Y-97828405D02*
X139248240Y-97923643D01*
X139248240Y-97923643D02*
X139248240Y-98066500D01*
X139248240Y-98066500D02*
X139295859Y-98161738D01*
X139295859Y-98161738D02*
X139343478Y-98209357D01*
X139343478Y-98209357D02*
X139438716Y-98256976D01*
X139438716Y-98256976D02*
X139819668Y-98256976D01*
X138295859Y-98733167D02*
X138867287Y-98733167D01*
X138581573Y-98733167D02*
X138581573Y-97733167D01*
X138581573Y-97733167D02*
X138676811Y-97876024D01*
X138676811Y-97876024D02*
X138772049Y-97971262D01*
X138772049Y-97971262D02*
X138867287Y-98018881D01*
X137676811Y-97733167D02*
X137581573Y-97733167D01*
X137581573Y-97733167D02*
X137486335Y-97780786D01*
X137486335Y-97780786D02*
X137438716Y-97828405D01*
X137438716Y-97828405D02*
X137391097Y-97923643D01*
X137391097Y-97923643D02*
X137343478Y-98114119D01*
X137343478Y-98114119D02*
X137343478Y-98352214D01*
X137343478Y-98352214D02*
X137391097Y-98542690D01*
X137391097Y-98542690D02*
X137438716Y-98637928D01*
X137438716Y-98637928D02*
X137486335Y-98685548D01*
X137486335Y-98685548D02*
X137581573Y-98733167D01*
X137581573Y-98733167D02*
X137676811Y-98733167D01*
X137676811Y-98733167D02*
X137772049Y-98685548D01*
X137772049Y-98685548D02*
X137819668Y-98637928D01*
X137819668Y-98637928D02*
X137867287Y-98542690D01*
X137867287Y-98542690D02*
X137914906Y-98352214D01*
X137914906Y-98352214D02*
X137914906Y-98114119D01*
X137914906Y-98114119D02*
X137867287Y-97923643D01*
X137867287Y-97923643D02*
X137819668Y-97828405D01*
X137819668Y-97828405D02*
X137772049Y-97780786D01*
X137772049Y-97780786D02*
X137676811Y-97733167D01*
X138829668Y-91841119D02*
X138829668Y-90841119D01*
X138829668Y-90841119D02*
X138448716Y-90841119D01*
X138448716Y-90841119D02*
X138353478Y-90888738D01*
X138353478Y-90888738D02*
X138305859Y-90936357D01*
X138305859Y-90936357D02*
X138258240Y-91031595D01*
X138258240Y-91031595D02*
X138258240Y-91174452D01*
X138258240Y-91174452D02*
X138305859Y-91269690D01*
X138305859Y-91269690D02*
X138353478Y-91317309D01*
X138353478Y-91317309D02*
X138448716Y-91364928D01*
X138448716Y-91364928D02*
X138829668Y-91364928D01*
X137924906Y-90841119D02*
X137258240Y-90841119D01*
X137258240Y-90841119D02*
X137686811Y-91841119D01*
X138829668Y-89261119D02*
X138829668Y-88261119D01*
X138829668Y-88261119D02*
X138448716Y-88261119D01*
X138448716Y-88261119D02*
X138353478Y-88308738D01*
X138353478Y-88308738D02*
X138305859Y-88356357D01*
X138305859Y-88356357D02*
X138258240Y-88451595D01*
X138258240Y-88451595D02*
X138258240Y-88594452D01*
X138258240Y-88594452D02*
X138305859Y-88689690D01*
X138305859Y-88689690D02*
X138353478Y-88737309D01*
X138353478Y-88737309D02*
X138448716Y-88784928D01*
X138448716Y-88784928D02*
X138829668Y-88784928D01*
X137401097Y-88261119D02*
X137591573Y-88261119D01*
X137591573Y-88261119D02*
X137686811Y-88308738D01*
X137686811Y-88308738D02*
X137734430Y-88356357D01*
X137734430Y-88356357D02*
X137829668Y-88499214D01*
X137829668Y-88499214D02*
X137877287Y-88689690D01*
X137877287Y-88689690D02*
X137877287Y-89070642D01*
X137877287Y-89070642D02*
X137829668Y-89165880D01*
X137829668Y-89165880D02*
X137782049Y-89213500D01*
X137782049Y-89213500D02*
X137686811Y-89261119D01*
X137686811Y-89261119D02*
X137496335Y-89261119D01*
X137496335Y-89261119D02*
X137401097Y-89213500D01*
X137401097Y-89213500D02*
X137353478Y-89165880D01*
X137353478Y-89165880D02*
X137305859Y-89070642D01*
X137305859Y-89070642D02*
X137305859Y-88832547D01*
X137305859Y-88832547D02*
X137353478Y-88737309D01*
X137353478Y-88737309D02*
X137401097Y-88689690D01*
X137401097Y-88689690D02*
X137496335Y-88642071D01*
X137496335Y-88642071D02*
X137686811Y-88642071D01*
X137686811Y-88642071D02*
X137782049Y-88689690D01*
X137782049Y-88689690D02*
X137829668Y-88737309D01*
X137829668Y-88737309D02*
X137877287Y-88832547D01*
X138829668Y-86681119D02*
X138829668Y-85681119D01*
X138829668Y-85681119D02*
X138448716Y-85681119D01*
X138448716Y-85681119D02*
X138353478Y-85728738D01*
X138353478Y-85728738D02*
X138305859Y-85776357D01*
X138305859Y-85776357D02*
X138258240Y-85871595D01*
X138258240Y-85871595D02*
X138258240Y-86014452D01*
X138258240Y-86014452D02*
X138305859Y-86109690D01*
X138305859Y-86109690D02*
X138353478Y-86157309D01*
X138353478Y-86157309D02*
X138448716Y-86204928D01*
X138448716Y-86204928D02*
X138829668Y-86204928D01*
X137353478Y-85681119D02*
X137829668Y-85681119D01*
X137829668Y-85681119D02*
X137877287Y-86157309D01*
X137877287Y-86157309D02*
X137829668Y-86109690D01*
X137829668Y-86109690D02*
X137734430Y-86062071D01*
X137734430Y-86062071D02*
X137496335Y-86062071D01*
X137496335Y-86062071D02*
X137401097Y-86109690D01*
X137401097Y-86109690D02*
X137353478Y-86157309D01*
X137353478Y-86157309D02*
X137305859Y-86252547D01*
X137305859Y-86252547D02*
X137305859Y-86490642D01*
X137305859Y-86490642D02*
X137353478Y-86585880D01*
X137353478Y-86585880D02*
X137401097Y-86633500D01*
X137401097Y-86633500D02*
X137496335Y-86681119D01*
X137496335Y-86681119D02*
X137734430Y-86681119D01*
X137734430Y-86681119D02*
X137829668Y-86633500D01*
X137829668Y-86633500D02*
X137877287Y-86585880D01*
X138829668Y-84101119D02*
X138829668Y-83101119D01*
X138829668Y-83101119D02*
X138448716Y-83101119D01*
X138448716Y-83101119D02*
X138353478Y-83148738D01*
X138353478Y-83148738D02*
X138305859Y-83196357D01*
X138305859Y-83196357D02*
X138258240Y-83291595D01*
X138258240Y-83291595D02*
X138258240Y-83434452D01*
X138258240Y-83434452D02*
X138305859Y-83529690D01*
X138305859Y-83529690D02*
X138353478Y-83577309D01*
X138353478Y-83577309D02*
X138448716Y-83624928D01*
X138448716Y-83624928D02*
X138829668Y-83624928D01*
X137924906Y-83101119D02*
X137305859Y-83101119D01*
X137305859Y-83101119D02*
X137639192Y-83482071D01*
X137639192Y-83482071D02*
X137496335Y-83482071D01*
X137496335Y-83482071D02*
X137401097Y-83529690D01*
X137401097Y-83529690D02*
X137353478Y-83577309D01*
X137353478Y-83577309D02*
X137305859Y-83672547D01*
X137305859Y-83672547D02*
X137305859Y-83910642D01*
X137305859Y-83910642D02*
X137353478Y-84005880D01*
X137353478Y-84005880D02*
X137401097Y-84053500D01*
X137401097Y-84053500D02*
X137496335Y-84101119D01*
X137496335Y-84101119D02*
X137782049Y-84101119D01*
X137782049Y-84101119D02*
X137877287Y-84053500D01*
X137877287Y-84053500D02*
X137924906Y-84005880D01*
X138829668Y-81521119D02*
X138829668Y-80521119D01*
X138829668Y-80521119D02*
X138448716Y-80521119D01*
X138448716Y-80521119D02*
X138353478Y-80568738D01*
X138353478Y-80568738D02*
X138305859Y-80616357D01*
X138305859Y-80616357D02*
X138258240Y-80711595D01*
X138258240Y-80711595D02*
X138258240Y-80854452D01*
X138258240Y-80854452D02*
X138305859Y-80949690D01*
X138305859Y-80949690D02*
X138353478Y-80997309D01*
X138353478Y-80997309D02*
X138448716Y-81044928D01*
X138448716Y-81044928D02*
X138829668Y-81044928D01*
X137877287Y-80616357D02*
X137829668Y-80568738D01*
X137829668Y-80568738D02*
X137734430Y-80521119D01*
X137734430Y-80521119D02*
X137496335Y-80521119D01*
X137496335Y-80521119D02*
X137401097Y-80568738D01*
X137401097Y-80568738D02*
X137353478Y-80616357D01*
X137353478Y-80616357D02*
X137305859Y-80711595D01*
X137305859Y-80711595D02*
X137305859Y-80806833D01*
X137305859Y-80806833D02*
X137353478Y-80949690D01*
X137353478Y-80949690D02*
X137924906Y-81521119D01*
X137924906Y-81521119D02*
X137305859Y-81521119D01*
X138829668Y-78941119D02*
X138829668Y-77941119D01*
X138829668Y-77941119D02*
X138448716Y-77941119D01*
X138448716Y-77941119D02*
X138353478Y-77988738D01*
X138353478Y-77988738D02*
X138305859Y-78036357D01*
X138305859Y-78036357D02*
X138258240Y-78131595D01*
X138258240Y-78131595D02*
X138258240Y-78274452D01*
X138258240Y-78274452D02*
X138305859Y-78369690D01*
X138305859Y-78369690D02*
X138353478Y-78417309D01*
X138353478Y-78417309D02*
X138448716Y-78464928D01*
X138448716Y-78464928D02*
X138829668Y-78464928D01*
X137305859Y-78941119D02*
X137877287Y-78941119D01*
X137591573Y-78941119D02*
X137591573Y-77941119D01*
X137591573Y-77941119D02*
X137686811Y-78083976D01*
X137686811Y-78083976D02*
X137782049Y-78179214D01*
X137782049Y-78179214D02*
X137877287Y-78226833D01*
D11*
X146014819Y-144396666D02*
X146729104Y-144396666D01*
X146729104Y-144396666D02*
X146871961Y-144349047D01*
X146871961Y-144349047D02*
X146967200Y-144253809D01*
X146967200Y-144253809D02*
X147014819Y-144110952D01*
X147014819Y-144110952D02*
X147014819Y-144015714D01*
X146110057Y-144825238D02*
X146062438Y-144872857D01*
X146062438Y-144872857D02*
X146014819Y-144968095D01*
X146014819Y-144968095D02*
X146014819Y-145206190D01*
X146014819Y-145206190D02*
X146062438Y-145301428D01*
X146062438Y-145301428D02*
X146110057Y-145349047D01*
X146110057Y-145349047D02*
X146205295Y-145396666D01*
X146205295Y-145396666D02*
X146300533Y-145396666D01*
X146300533Y-145396666D02*
X146443390Y-145349047D01*
X146443390Y-145349047D02*
X147014819Y-144777619D01*
X147014819Y-144777619D02*
X147014819Y-145396666D01*
D12*
%TO.C,J2*%
X135180000Y-146110000D02*
X135180000Y-143350000D01*
X142910000Y-143350000D02*
X135180000Y-143350000D01*
X142910000Y-146110000D02*
X135180000Y-146110000D01*
X142910000Y-146110000D02*
X142910000Y-143350000D01*
X144180000Y-146110000D02*
X145560000Y-146110000D01*
X145560000Y-146110000D02*
X145560000Y-144730000D01*
%TO.C,J4*%
X181695000Y-78550000D02*
X181695000Y-86280000D01*
X184455000Y-75900000D02*
X183075000Y-75900000D01*
X184455000Y-77280000D02*
X184455000Y-75900000D01*
X184455000Y-78550000D02*
X181695000Y-78550000D01*
X184455000Y-78550000D02*
X184455000Y-86280000D01*
X184455000Y-86280000D02*
X181695000Y-86280000D01*
%TO.C,J5*%
X133640000Y-79710000D02*
X133640000Y-92520000D01*
X136400000Y-77060000D02*
X135020000Y-77060000D01*
X136400000Y-78440000D02*
X136400000Y-77060000D01*
X136400000Y-79710000D02*
X133640000Y-79710000D01*
X136400000Y-79710000D02*
X136400000Y-92520000D01*
X136400000Y-92520000D02*
X133640000Y-92520000D01*
%TO.C,J3*%
X181655000Y-88380000D02*
X184415000Y-88380000D01*
X181655000Y-96110000D02*
X181655000Y-88380000D01*
X181655000Y-96110000D02*
X184415000Y-96110000D01*
X181655000Y-97380000D02*
X181655000Y-98760000D01*
X181655000Y-98760000D02*
X183035000Y-98760000D01*
X184415000Y-96110000D02*
X184415000Y-88380000D01*
%TO.C,J6*%
X133640000Y-99380000D02*
X133640000Y-119810000D01*
X136400000Y-96730000D02*
X135020000Y-96730000D01*
X136400000Y-98110000D02*
X136400000Y-96730000D01*
X136400000Y-99380000D02*
X133640000Y-99380000D01*
X136400000Y-99380000D02*
X136400000Y-119810000D01*
X136400000Y-119810000D02*
X133640000Y-119810000D01*
%TD*%
M02*
